CoelacanthPearlGross.sfdir
StartChar: exclam
Encoding: 33 33 75
Width: 291
VWidth: 1159
Flags: W
HStem: -57.5575 234.318<119.191 170.941>
VStem: 28.3893 233.639<34.0172 83.4269> 105.655 83.6775<209 363.762>
LayerCount: 2
Fore
SplineSet
105.65535 209 m 17xa0
 105.65535 339 101.65535 437 87.65535 533 c 0
 82.446169713 580 51.1910879808 604 53.795678125 654 c 1
 207.017673982 664 288.357745857 692 297.81589375 661 c 1
 265.81589375 625 269.81589375 601.739695348 257.81589375 533 c 0
 231.839573922 409 189.33286875 342 189.33286875 208 c 9
 105.65535 209 l 17xa0
EndSplineSet
Refer: 48 46 N 1 0 0 1 36.7093 0 2
Validated: 33
Substitution2: "pcap-1" exclam.pcap
Substitution2: "smcp-1" exclam.smcp
Position2: "cpsp-1" dx=0 dy=0 dh=50 dv=100
EndChar
StartChar: dollar
Encoding: 36 36 1373
Width: 463
VWidth: 1159
UnlinkRmOvrlpSave: 1
Flags: W
HStem: 0.639648 67.7803<159.394 306.572> 433.47 64.4199<164.34 314.975>
VStem: 67 87.8799<352.931 419.116> 331.97 86.3506<93.7822 169.465>
LayerCount: 2
Fore
SplineSet
422.450195312 432.580078125 m 1
 402.276694901 401.243424025 390.312383342 378.85976835 370 352 c 1
 312.770507812 388.870117188 l 1
 319.190122258 394.26182506 319.400390625 398.557190152 319.400390625 405.459960938 c 3
 319.400390625 414.545076348 289.162166813 433.469726562 256.860351562 433.469726562 c 3
 203.587283217 433.469726562 154.879882812 420.016084959 154.879882812 394.099609375 c 3
 154.879882812 338.15634445 215.912395923 343.85893809 271.259765625 316.309570312 c 0
 360.461886893 273.902916092 418.3203125 233.963156544 418.3203125 139.870117188 c 3
 418.3203125 60.5625 327.459960938 0.6396484375 224.099609375 0.6396484375 c 3
 140.831054688 0.6396484375 66.4873046875 49.8984375 34.5595703125 107.110351562 c 1
 52.3255050875 128.173121388 77.5302476473 151.72997744 98 176 c 1
 149.559570312 136.650390625 l 1
 148.48012734 132.714843749 145.969726562 124.063533423 145.969726562 118.940429688 c 3
 145.969726562 81.2100254081 189.156657003 68.419921875 236.120117188 68.419921875 c 3
 282.965090677 68.419921875 331.969726562 97.5198172778 331.969726562 127.469726562 c 3
 331.969726562 161.745747806 303.106753088 182.438707812 251.8203125 200.41015625 c 0
 148.138295096 235.796233392 67 267.479368964 67 366.01953125 c 3
 67 442.24890148 156.41731809 497.889648438 256.860351562 497.889648438 c 3
 328.149872217 497.889648438 388.416104093 462.560589962 422.450195312 432.580078125 c 1
EndSplineSet
Refer: 1970 58113 S 0.0181668 0.693762 -0.968418 0.0253589 231.417 -103.881 2
Substitution2: "case-1" dollar.alt
Substitution2: "lnum-1" dollar.alt
EndChar
StartChar: ampersand
Encoding: 38 38 78
Width: 676
VWidth: 1159
Flags: W
HStem: -11.3978 87.5904<506.268 593.815> -11 96.558<138.913 306.072>
VStem: 17 118.074<155.028 265.736> 81 79.3203<472.068 550.512> 257.131 110.869<465.533 536.883>
LayerCount: 2
Fore
SplineSet
198 320 m 1x68
 185.246812757 312.837909892 135.0743 284.354166666 135.0743 261 c 3
 135.0743 152.638764707 180.999906537 85.558 274.6884 85.558 c 3
 285.8732061 85.558 327.155325 124.388038 342.7536 149.2138 c 1
 281.98358631 259.547413056 207.711146903 302.338216304 198 320 c 1x68
179 551.474609375 m 1
 170.082036045 551.474609375 160.3203125 539.834500607 160.3203125 530 c 3x18
 160.3203125 478.381809305 196.731245414 452.794523767 237.139648438 433.762695312 c 1
 253.056336739 456.814270673 257.130859375 466.100678494 257.130859375 506.279296875 c 3
 257.130859375 528.433861826 224.859417459 551.474609375 179 551.474609375 c 1
646.8279 439.0652 m 1
 631.917598794 433.1304 555.947090822 408.575801178 551.94655 397.63495 c 0
 523.598311513 320.106967588 498.375201316 257.469184616 460.7953 184.6558 c 1
 490.507287687 102.533617902 517.766201602 76.192540625 551.290484375 76.192540625 c 3
 585.175968297 76.192540625 605.071565542 110.794847617 620.8931 131.05345 c 1
 672 108 l 1
 635.267605634 35.0933549088 622.718309859 -11.3978390625 509 -11.3978390625 c 3x98
 456.427419355 -11.3978390625 412.782258065 21.1223552129 386 62.0978 c 1
 366 68.392472269 336.149758454 -11 199 -11 c 3
 80 -11 17 85 17 172 c 3x68
 17 270.246273893 79.8388864619 338.633386112 151.528320312 370.418945312 c 1
 113.058327416 397.958847045 81 444.564834595 81 506 c 3
 81 593 156 626 231 653 c 1
 328.041666667 626.290322581 368 583.55483871 368 515 c 3
 368 495.082859849 327.78641183 429.107333097 290.139648438 391.762695312 c 1
 324.883532945 365.736791544 387.837428717 316.640033857 422.172325 264.213732812 c 1
 448.298207134 304.668357152 474.338640465 371.597246444 479.09794375 409.978807813 c 0
 483.985133669 449.391715239 449.309110359 478.569943561 431.786267188 484.032973438 c 1
 448.2699 531.39765 l 1
 500.971423636 509.34667069 592.571690909 490.052063793 655.3116 491.43025 c 1
 646.8279 439.0652 l 1
EndSplineSet
Validated: 33
Substitution2: "pcap-1" ampersand.pcap
Substitution2: "smcp-1" ampersand.smcp
Position2: "cpsp-1" dx=0 dy=0 dh=50 dv=100
EndChar
StartChar: quotesingle
Encoding: 39 39 79
Width: 200
VWidth: 1159
Flags: W
HStem: 445.7 254<72.6024 126.312>
VStem: 27.1723 144.569<581.101 699.7> 72.6024 53.7092<445.7 572.907>
LayerCount: 2
Fore
SplineSet
27.172325 699.700161698 m 1xc0
 171.7415125 699.700161698 l 1xc0
 170.063850731 630.734166261 130.637176669 537.034172461 126.3116 445.700178505 c 1
 72.60235 445.700178505 l 1xa0
 68.0765460094 536.911172469 29.1021275619 630.890166251 27.172325 699.700161698 c 1xc0
EndSplineSet
Validated: 1
Position2: "Extra space for context kern-1" dx=35 dy=0 dh=70 dv=0 [ddx={} ddy={} ddh={} ddv={}]
Position2: "cpsp-1" dx=0 dy=0 dh=7 dv=14
EndChar
StartChar: parenleft
Encoding: 40 40 627
Width: 351
Flags: HW
VStem: 37 99<120.902 422.905>
LayerCount: 2
Fore
SplineSet
305 714 m 1
 339 643 l 1
 203.359090909 576.046321526 136 437.234332425 136 271 c 3
 136 108.394978564 172.441097123 -0.510041908135 337 -102 c 1
 308 -177 l 1
 133 -81.5925925926 37 69.8148148148 37 271 c 3
 37 472.269320843 139 629.964871194 305 714 c 1
EndSplineSet
Position2: "cpsp-1" dx=0 dy=0 dh=50 dv=100
Position2: "'case' vertical ajustments for all-caps-1" dx=0 dy=125 dh=0 dv=0
EndChar
StartChar: asterisk
Encoding: 42 42 87
Width: 418
VWidth: 1159
Flags: W
HStem: 455.05 122.994<58.3684 121.814>
LayerCount: 2
Fore
SplineSet
221 432 m 1
 198.609375 369.958007812 220.57421875 357.583007812 182.556640625 298.46875 c 1
 146.692382812 283.759765625 78.6279296875 345.201171875 77.6162109375 373.513671875 c 1
 116.262695312 431.178710938 136.5234375 425.932617188 168.643554688 459.751953125 c 1
 102.71875 461.874023438 97.736328125 437.16015625 29.7666015625 455.049804688 c 1
 4.6962890625 484.61328125 42.09765625 568.333007812 68.7109375 578.043945312 c 1
 135.497070312 559.108398438 136.768554688 538.217773438 178.857421875 518.122070312 c 1
 160.50390625 581.475585938 135.459960938 578.577148438 131.469726562 648.747070312 c 1
 151.83984375 681.727539062 243.01953125 672.02734375 260.479492188 649.716796875 c 1
 263.108398438 580.348632812 243.633789062 572.68359375 237.526367188 526.444335938 c 1
 292.108398438 563.477539062 281.612304688 586.400390625 347.116210938 611.87890625 c 1
 384.776367188 602.697265625 403.727539062 512.981445312 387.904296875 489.482421875 c 1
 322.743164062 465.545898438 309.435546875 481.69921875 263.572265625 473.21875 c 1
 315.659179688 432.751953125 334.215820312 449.817382812 378.689453125 395.393554688 c 1
 381.594726562 356.739257812 302.126953125 310.993164062 274.888671875 318.778320312 c 1
 231.987304688 373.354492188 243.237304688 391.001953125 221 432 c 1
EndSplineSet
Validated: 33
EndChar
StartChar: comma
Encoding: 44 44 240
Width: 217
Flags: HW
HStem: -134.937 313.585
VStem: -5.87109 224.871<29.7477 78.7948>
LayerCount: 2
Fore
SplineSet
69.203125 -134.936523438 m 1
 30 -75 l 1
 57.0664298822 -54.395131112 76.6634489844 -24.6469608967 64 -11 c 1
 42.618021132 13.0879553242 30.749327412 14.7623040953 8.6025390625 33.1171875 c 0
 1.58853285329 38.3618881079 -5.87109375 46.1633750176 -5.87109375 54.859375 c 3
 -5.87109375 61.9563616317 1.326291346 65.1102165982 6.6025390625 70.236328125 c 0
 46.1322291926 108.64119672 56.8170895448 121.373200198 84.0350195313 166.004092188 c 0
 87.8898771824 172.325136277 93.191672296 178.648447366 102.690369532 178.648447366 c 3
 110.215939069 178.648447366 115.80148867 171.739576926 120.250347266 166.004092188 c 0
 153.193751662 125.099166658 176.369779495 110.567358263 201.634765625 97.30078125 c 0
 211.645382936 91.8428611974 219 79.3056042474 219 74 c 3
 219 37.2430212125 172.525901024 -83.8680534765 69.203125 -134.936523438 c 1
EndSplineSet
Position2: "Extra space for context kern-1" dx=78 dy=0 dh=156 dv=0
Position2: "cpsp-1" dx=0 dy=0 dh=7 dv=14
EndChar
StartChar: period
Encoding: 46 46 48
Width: 217
Flags: HW
HStem: -57.5575 234.318<82.4812 134.232>
VStem: -8.32 233.639<34.0172 83.4269>
LayerCount: 2
Back
SplineSet
215.857194335 39.9049164062 m 0
 158.848048668 10.4358325279 151.18620941 3.4967811649 125.978021385 -48.0954385743 c 0
 124.18519216 -54.4647755889 117.170344636 -57.5574504882 110.505014649 -57.5574504882 c 3
 103.031414504 -57.5574504882 93.5900212871 -53.9035184095 90.6663448243 -48.0954385743 c 0
 66.8156693332 -8.43338420878 57.9995526075 12.4405293601 2.1538115233 41.449930957 c 0
 -4.36549895 43.431924921 -8.3200037108 53.9028336982 -8.3200037108 61.3747632813 c 3
 -8.3200037108 68.009257178 -3.7416142903 73.1831312136 2.1538115233 75.7506126954 c 0
 51.3421910336 106.605305823 65.5941146614 115.215696341 90.6663448243 166.114845703 c 0
 92.8466534441 172.318370118 103.031414504 176.760177443 110.505014649 176.760177443 c 3
 117.170344636 176.760177443 123.945945116 172.341604983 125.978021385 166.114845703 c 0
 145.324722707 127.716539737 160.707553221 103.090821123 215.857194335 74.2064066407 c 0
 222.06862726 72.1943251146 225.31920625 66.4650651138 225.31920625 59.8297487305 c 3
 225.31920625 52.3578191474 222.046162626 42.1822351805 215.857194335 39.9049164062 c 0
EndSplineSet
Fore
SplineSet
215.857194335 39.9049164062 m 0
 172.72937776 8.90821963308 158.147948668 -5.26934451298 125.978021385 -48.0954385743 c 0
 122.003931808 -53.3859302974 117.170344636 -57.5574504882 110.505014649 -57.5574504882 c 3
 103.031414504 -57.5574504882 94.5168014224 -53.335253401 90.6663448243 -48.0954385743 c 0
 62.5044270256 -9.77187079178 45.9172895902 8.68941870868 2.1538115233 41.449930957 c 0
 -3.30104933468 45.5333366607 -8.3200037108 53.9028336982 -8.3200037108 61.3747632813 c 3
 -8.3200037108 68.009257178 -2.83901605647 71.6984923317 2.1538115233 75.7506126954 c 0
 44.8970849311 110.440552578 53.6639173391 118.612825197 90.6663448243 166.114845703 c 0
 94.7071607744 171.302260021 103.031414504 176.760177443 110.505014649 176.760177443 c 3
 117.170344636 176.760177443 121.860428745 171.208694537 125.978021385 166.114845703 c 0
 156.151164626 128.787833547 176.623048843 104.665684967 215.857194335 74.2064066407 c 0
 221.014603967 70.2024714596 225.31920625 66.4650651138 225.31920625 59.8297487305 c 3
 225.31920625 52.3578191474 221.212241343 43.7536799538 215.857194335 39.9049164062 c 0
EndSplineSet
Position2: "Extra space for context kern-1" dx=78 dy=0 dh=156 dv=0
Position2: "cpsp-1" dx=0 dy=0 dh=7 dv=14
EndChar
StartChar: zero
Encoding: 48 48 2269
Width: 573
Flags: HW
HStem: -12 108<239.407 361.775> 410 98<217.332 336.688>
VStem: 51 114<179.344 351.311> 414 108<156.957 330.444>
LayerCount: 2
Fore
SplineSet
279 410 m 3
 188.800040979 410 165 312.320150317 165 258 c 3
 165 209.667653203 201.221083911 96 313 96 c 3
 354.372742893 96 414 150.384731629 414 244 c 3
 414 382.962777728 291.234560258 410 279 410 c 3
285 508 m 3
 456 508 522 364 522 252 c 3
 522 140 449 -12 297 -12 c 3
 134 -12 51 112 51 260 c 3
 51 336 107 508 285 508 c 3
EndSplineSet
Substitution2: "'zero' Slashed Zero lookup 22-1" zero.alt
Substitution2: "dnom-1" zero.denom
Substitution2: "numr-1" zero.numerator
Substitution2: "lnum-1" zero.proportionallining
Substitution2: "tnum-1" zero.tabulartext
EndChar
StartChar: one
Encoding: 49 49 64
Width: 485
VWidth: 1159
Flags: W
HStem: -0.65625 89.8867<317.792 358.035> -0.65625 55.2236<110.567 132.616> 442.641 56.4805<117.524 164.753> 494.051 20G<357.364 378.862>
VStem: 193.17 111.495<96.0942 414.897>
LayerCount: 2
Fore
SplineSet
117.524414062 499.12109375 m 1x68
 189.672128854 494.438329348 335.915068994 502.450452993 378.8125 514.05078125 c 1
 378.984375 444.084960938 l 1
 313.518684878 452.643018653 313.36908069 414.47182077 310.61328125 399.2578125 c 0
 304.070492295 364.107692445 304.665039062 301.693088909 304.665039062 242.504882812 c 3
 304.665039062 166.835986694 315.949066996 90.322107808 329.67578125 89.23046875 c 0x98
 338.473420818 72.4682354058 382.402664001 58.3700246269 380.9296875 55.734375 c 1
 377.154296875 -0.65625 l 1
 305.5123858 -0.0986328125 219.193846814 -0.0283203125 110.567382812 -0.65625 c 1
 103.021484375 54.5673828125 l 1
 58.3189897639 57.1267716761 161.557062802 83.3490261712 167.157226562 89.8779296875 c 0
 184.878062895 111.094386627 193.169921875 139.667977147 193.169921875 242.504882812 c 3
 193.169921875 331.248883135 190.983003512 349.870897149 182.547851562 393.208984375 c 0
 178.57565871 418.112222697 150.75460327 434.105704281 115.690429688 442.640625 c 1
 117.524414062 499.12109375 l 1x68
EndSplineSet
Validated: 33
Substitution2: "dnom-1" one.denom
Substitution2: "numr-1" one.numerator
Substitution2: "tnum-1" one.tabulartext
Substitution2: "lnum-1" one.proportionallining
EndChar
StartChar: two
Encoding: 50 50 775
Width: 623
Flags: HW
HStem: -6.54492 15.6328G<97.7374 121.188 487.648 502.273> 0.992188 111.271<199.35 447.55> 391.373 124.358<206.717 300.975>
VStem: 311.537 133.49<295.499 381.738>
LayerCount: 2
Fore
SplineSet
87.302734375 386.836914062 m 1xb0
 123.980253671 431.68583749 193.160491339 515.731445312 289.674804688 515.731445312 c 1
 395.63878765 515.731445312 445.02734375 426.194600354 445.02734375 357.551757812 c 3
 445.02734375 229.867338104 172.297416218 128.930195884 194.474609376 98.7265625 c 1
 299.079720316 115.376573881 365.12045296 98.2368339528 375.30859375 112.263671875 c 1
 449.24826764 115.829808182 472.650148392 155.064451982 486.251953124 175.876953124 c 1
 558.072265625 121.48828125 l 1
 558.072265625 121.48828125 510.359938424 80.9584353012 494.185546875 -11.912109375 c 1
 481.110902269 -1.23708173675 359.538779624 0.9921875 334.098632812 0.9921875 c 1x70
 254.951826748 0.9921875 134.602097773 3.76627430396 107.774414062 -6.544921875 c 1
 68.09375 72.5234375 l 1
 90.5372247745 129.598670126 311.537109376 236.586370548 311.537109376 333.33203125 c 3
 311.537109376 389.767774695 272.144416411 391.373046876 246.326171876 391.373046876 c 1
 211.358549985 391.373046876 151.99743379 347.474252554 126.244140625 342.372070312 c 1
 87.302734375 386.836914062 l 1xb0
EndSplineSet
Substitution2: "dnom-1" two.denom
Substitution2: "numr-1" two.numerator
Substitution2: "tnum-1" two.tabulartext
Substitution2: "lnum-1" two.proportionallining
EndChar
StartChar: three
Encoding: 51 51 66
Width: 490
Flags: HW
HStem: -177.1 56.4707<114.363 147.164> 400.161 107.224<172.908 290.107>
VStem: 255.734 127.056<299.953 385.601> 290.588 127.152<0.427854 115.57>
LayerCount: 2
Fore
SplineSet
88.6611328125 -120.62890625 m 1xd0
 241.587476174 -67.1911841609 290.587890624 -50.5520978481 290.587890624 44.669921875 c 3xd0
 290.587890624 117.083232843 243.857077714 141.563144978 209.70703125 165.88671875 c 1
 196.406908927 158.371242387 157.159295458 137.995281723 130.74609375 138.388671875 c 1
 99.5302734375 183.491210938 l 1
 177.815040751 228.441119113 255.734375 270.860074296 255.734375 344.341796876 c 3
 255.734375 375.662271072 221.92413418 400.161248046 208.39573125 400.161248046 c 3
 132.13972246 400.161248046 128.865812208 368.95338496 111.177351855 364.872159278 c 1
 73.9510619628 402.511373926 l 1
 99.8139851562 444.115723535 179.711400684 507.384854834 249.019701513 507.384854834 c 3
 331.194224707 507.384854834 382.790434278 448.02138086 382.790434278 381.367524072 c 3xe0
 382.790434278 293.747563067 328.958607161 263.263303281 304.267578125 242.3359375 c 1
 347.942462613 216.350562627 417.740234375 166.744709023 417.740234375 68.4609375 c 3
 417.740234375 -55.4290682166 213.870190824 -148.784580583 118 -177.099609375 c 1
 88.6611328125 -120.62890625 l 1xd0
EndSplineSet
Substitution2: "dnom-1" three.denom
Substitution2: "numr-1" three.numerator
Substitution2: "tnum-1" three.tabulartext
Substitution2: "lnum-1" three.proportionallining
EndChar
StartChar: four
Encoding: 52 52 67
Width: 641
Flags: HW
HStem: -8.63477 21G<542.871 567.601> 1.04492 90.875<175.541 332.902 442.193 510.383> 487.018 20G<390.793 439.332>
VStem: 334.952 107.241<-76.3179 1.04492 96.3945 278.644>
LayerCount: 2
Fore
SplineSet
332.90234375 91.919921875 m 1x70
 332.90234375 167.450963782 335.319039774 229.987601238 326.861766408 281.04612832 c 1
 326.861766408 281.04612832 233.526159997 161.563954847 172.779296876 84.81640625 c 1
 219.496398851 91.919921875 295.422263398 91.919921875 332.90234375 91.919921875 c 1x70
480.10923828 463.175337694 m 1
 443.795470201 404.501048998 441.828432737 288.85978398 440.897953026 225.267495019 c 0
 440.316476336 162.148625365 441.62449403 169.362632836 442.193359375 96.39453125 c 1
 523.081354435 95.5090208544 486.364152254 111.450088929 558.87890625 142.48046875 c 1
 558.87890625 142.48046875 600.503169428 125.833466249 604.077148438 123.841796875 c 1
 604.077148438 123.841796875 576.142146564 44.2111413608 559.060546875 -8.634765625 c 1xb0
 526.680623236 -0.279416755379 477.008571188 1.98720714906 442.193359375 2.1435546875 c 1
 441.081215202 -40.0573982965 455.461349968 -77.5682507541 478.4140625 -91.7158203115 c 1
 406.725722254 -100.551877173 427.568144577 -151.975716893 378 -177.099609375 c 1
 378 -177.099609375 284.097916383 -142.959655092 280.409179688 -138.801757812 c 1
 330.473227279 -101.554242458 334.572538163 -2.79287304199 334.952148438 1.044921875 c 1
 71.1499570857 1.044921875 136.879744044 11.4361803032 89.1083984375 -40.75390625 c 1
 89.1083984375 -40.75390625 9.83095786005 3.52671773309 4.505859375 7.71484375 c 1
 24.8564591487 27.4549496647 376.458271332 439.777186778 405.127050536 507.017878183 c 1
 480.10923828 463.175337694 l 1
EndSplineSet
Substitution2: "dnom-1" four.denom
Substitution2: "numr-1" four.numerator
Substitution2: "tnum-1" four.tabulartext
Substitution2: "lnum-1" four.proportionallining
EndChar
StartChar: five
Encoding: 53 53 68
Width: 488
Flags: HW
HStem: 379.568 119.471<188.305 351.088> 550.239 20G<380.351 385.02>
VStem: 102.699 86.1504<325.932 379.533> 281.945 106.525<30.3477 157.371>
LayerCount: 2
Fore
SplineSet
102.69921875 499.0390625 m 1
 256.250991516 491.950717209 290.179716087 495.63016175 320.098632812 497.995117188 c 0
 351.400280649 500.466374277 375.683163167 548.040321315 385.01953125 570.239257812 c 1
 385.01953125 570.239257812 430.492422805 539.563581069 433.568359375 537.970703125 c 1
 401.036996716 480.47789696 363.917742928 369.506890472 362.092773438 377.147460938 c 0
 239.442717151 385.736064029 288.669115885 380.616166869 188.3046875 379.568359376 c 1
 188.3046875 379.568359376 187.458984196 331.289781994 188.849609376 323.923828124 c 1
 314.449836302 332.330168472 388.470703125 250.126986291 388.470703125 129.732421875 c 3
 388.470703125 -35.7418967316 223.587635937 -157.148317884 69 -177.099609375 c 1
 69 -177.099609375 69.6273193906 -106.121322694 65.30859375 -101.822265624 c 1
 60.240661932 -105.459602086 281.9453125 -95.7049017379 281.9453125 107.310546876 c 3
 281.9453125 145.593839714 244.948698908 202.598040772 97.517578125 224.197265625 c 1
 104.558112047 302.666944114 106.481063422 407.765397443 102.69921875 499.0390625 c 1
EndSplineSet
Substitution2: "dnom-1" five.denom
Substitution2: "numr-1" five.numerator
Substitution2: "tnum-1" five.tabulartext
Substitution2: "lnum-1" five.proportionallining
EndChar
StartChar: six
Encoding: 54 54 69
Width: 603
Flags: HW
HStem: -14.0537 96.6035<283.25 379.219> 317.066 103.599<272.441 372.159> 656.201 20G<280.25 383.672>
VStem: 86.6972 121.622<184.922 386.105> 415.045 112.214<116.436 272.78>
LayerCount: 2
Fore
SplineSet
383.671875 676.201171874 m 1
 383.671875 676.201171874 403.98119545 615.22075156 413.134765624 604.30078125 c 1
 270 515 208.318789307 419.048556887 208.318789307 279.4837 c 3
 208.318789307 226.21851771 248.452855301 82.5498046875 337.926757814 82.5498046875 c 3
 345.652419437 82.5498046875 415.04515 104.873735679 415.04515 174.54625 c 3
 415.04515 308.425253225 341.230222151 317.066199806 303.68835835 317.066199806 c 3
 283.024387245 317.066199806 278.212676151 297.182747253 272.609685448 297.022306931 c 1
 237.066421776 360.0599 l 1
 255.634144608 388.636172753 285.340978796 420.6649 340.65616538 420.6649 c 3
 451.500259692 420.6649 527.25895 317.069182368 527.25895 197.19295 c 3
 527.25895 83.5877967388 429.048403271 -14.0537109375 306.094726562 -14.0537109375 c 3
 139.972712949 -14.0537109375 86.6972106934 148.568109432 86.6972106934 243.2464 c 3
 86.6972106934 424.075824786 176.828935856 570.397520593 383.671875 676.201171874 c 1
EndSplineSet
Substitution2: "dnom-1" six.denom
Substitution2: "numr-1" six.numerator
Substitution2: "tnum-1" six.tabulartext
Substitution2: "lnum-1" six.proportionallining
EndChar
StartChar: seven
Encoding: 55 55 70
Width: 575
Flags: HW
HStem: 395.44 104.537<170.402 363.798>
LayerCount: 2
Fore
SplineSet
194.084960938 507.116210938 m 1
 194.773353625 506.083524826 209.76925168 500.273609173 221.2109375 499.977539062 c 0
 328.239651959 497.208016815 476.807225473 499.02823694 496.037109375 500.927734375 c 1
 496.037109375 500.927734375 517.15624895 434.926777834 521.341796876 430.0859375 c 1
 496.327965727 391.110928312 219.298869828 -135.708342915 209.734375 -172.337890625 c 1
 209.734375 -172.337890625 69.1909960841 -172.113512822 66.3056640615 -172.180664062 c 1
 164.481116723 11.1474614874 280 168 376.826171876 374.203125 c 0
 379.507344372 379.913008358 366.867006256 388.376547756 365.093749999 388.749023438 c 0
 337.376950042 394.570987374 314.854268965 395.440429688 282.171875 395.440429688 c 3
 178.311079329 395.440429688 121.613808005 364.242837928 116 324 c 1
 116 324 56.7981466187 350.259427351 51.4150390625 351.467773438 c 1
 51.4150390625 351.467773438 112.642225617 496.208422425 122.692382812 548.783203125 c 1
 194.084960938 507.116210938 l 1
EndSplineSet
Substitution2: "dnom-1" seven.denom
Substitution2: "numr-1" seven.numerator
Substitution2: "tnum-1" seven.tabulartext
Substitution2: "lnum-1" seven.proportionallining
EndChar
StartChar: eight
Encoding: 56 56 293
Width: 570
UnlinkRmOvrlpSave: 1
Flags: HW
HStem: -12.5264 80.5264<268.846 359.963> 588.136 72.7168<233.316 314.156>
VStem: 82.5742 125.426<134.148 239.224> 119.264 111.447<469.027 578.702> 339.527 108.473<445.606 562.278> 372 116.877<83.2988 202.845>
LayerCount: 2
Fore
SplineSet
266.333984375 588.135742188 m 3xe8
 248.142195279 588.135742188 230.7109375 581.826903964 230.7109375 552.537109376 c 3
 230.7109375 360.558521768 488.876953125 377.919948968 488.876953125 173.89453125 c 3xd4
 488.876953125 87.6819690175 437.276279164 -12.5263671875 279.974609375 -12.5263671875 c 3
 163.43678299 -12.5263671875 82.57421875 59.3987685114 82.57421875 167.532226562 c 3
 82.57421875 324.08003316 339.52734375 373.005134249 339.52734375 510.934570312 c 3
 339.52734375 562.641749816 290.904894839 588.135742188 266.333984375 588.135742188 c 3xe8
275.196289062 660.852539062 m 3
 309.469560689 660.852539062 448 652.211302001 448 499 c 3
 448 348.8817939 208 364.113130694 208 196 c 3xe8
 208 174.233350873 241.255691932 68 332 68 c 3
 354.136155482 68 372 93.5050095016 372 136 c 3
 372 179.729329682 351.372964764 212.45079435 313.361379373 245 c 0
 193.083674011 347.993435466 119.263671875 407.570492073 119.263671875 491.041015625 c 3
 119.263671875 614.638491857 220.559812246 660.852539062 275.196289062 660.852539062 c 3
EndSplineSet
Substitution2: "dnom-1" eight.denom
Substitution2: "numr-1" eight.numerator
Substitution2: "lnum-1" eight.proportionallining
Substitution2: "tnum-1" eight.tabulartext
EndChar
StartChar: greater
Encoding: 62 62 333
Width: 463
VWidth: 0
Flags: W
LayerCount: 2
Back
SplineSet
52.83965 387.29356 m 5
 118 477.115789062 l 5
 412 276.116 l 5
 73 60.1157890625 l 5
 29.9583 131.8643 l 5
 233.44465 258.78636 l 5
 52.83965 387.29356 l 5
EndSplineSet
Fore
SplineSet
40.83984375 395.293945312 m 1
 106 485.116210938 l 1
 412 276.116 l 1
 79 64.1162109375 l 1
 35.9580078125 135.864257812 l 1
 233.44465 258.78636 l 1
 40.83984375 395.293945312 l 1
EndSplineSet
Validated: 1
Position2: "'case' vertical ajustments for all-caps-1" dx=0 dy=90 dh=0 dv=0
EndChar
StartChar: question
Encoding: 63 63 74
Width: 394
Flags: HW
HStem: -57.5575 234.318<148.007 199.757> 539.365 149.961<88.5176 256.882>
VStem: 57.2054 233.639<34.0172 83.4269> 312.68 71.1406<409.178 505.768>
LayerCount: 2
Fore
SplineSet
57.171875 532.322265625 m 1
 59.76323061 549.480993542 60.85546875 564.983257016 60.85546875 578.993164062 c 3
 60.85546875 662.25246877 35.88671875 687.128391014 35.88671875 703.950195312 c 3
 35.88671875 712.159516034 46.3830274731 717.863514477 78.912109375 721.326171875 c 1
 104.426175207 689.326171875 130.197184168 689.326171875 169.34765625 689.326171875 c 3
 286.100581395 689.326171875 383.8203125 584.068058439 383.8203125 474.154296875 c 3
 383.8203125 376.94086785 334.949479764 306.881746199 312 274 c 0
 231.23921917 244.214699804 207.32602542 256.69924812 213.215820312 215 c 1
 213.215820312 215 182.468450414 209.982421875 138.82421875 209.982421875 c 1
 126.802370872 217.710373572 114.521276205 246.893864464 114.521276205 279.09305577 c 3
 114.521276205 315.170065561 124.52211833 354.77029512 150 374 c 0
 200.147045918 401.60840984 312.6796875 367.160264913 312.6796875 456.30859375 c 3
 312.6796875 514.832561827 256.734491762 539.36520136 141.032995157 539.36520136 c 3
 114.316363572 539.36520136 86.0275454046 536.935894432 57.171875 532.322265625 c 1
EndSplineSet
Refer: 48 46 N 1 0 0 1 65.5254 0 2
Position2: "cpsp-1" dx=0 dy=0 dh=50 dv=100
Substitution2: "smcp-1" question.smcp
Substitution2: "pcap-1" question.pcap
EndChar
StartChar: at
Encoding: 64 64 874
Width: 838
VWidth: 1159
Flags: W
HStem: -173.741 91.3281<339.888 544.523> 29.8896 108.806<487.423 612.875> 41.8887 111.812<337.123 423.07> 611.438 73.5283<337.595 552.559>
VStem: 18.5762 144.028<101.289 357.883> 217.948 165.284<158.918 270.089> 486.181 92.041<246.473 320.915> 702.096 113.877<264.28 466.084>
LayerCount: 2
Fore
SplineSet
639.203125 427.319335938 m 1xbf
 617.070012401 378.842920885 590.181816646 295.902498394 586.60546875 269.578125 c 0
 580.912614427 237.399445239 578.221679688 200.319047202 578.221679688 186.668945312 c 3
 578.221679688 152.893026729 588.984808231 138.6953125 607.19921875 138.6953125 c 3
 618.550304274 138.6953125 636.585174676 139.7079299 659.282226562 167.224609375 c 0
 690.704831987 202.175281764 702.095703125 270.735984454 702.095703125 354.23828125 c 3
 702.095703125 527.534678268 587.137034322 611.438476562 430.172851562 611.438476562 c 3
 224.282535009 611.438476562 162.604492188 455.449325108 162.604492188 215.438476562 c 3
 162.604492188 39.6316995548 298.609492699 -82.413085938 441.877929688 -82.413085938 c 3
 576.225909279 -82.413085938 671.866770485 -31.7574526545 747.190429688 47.7666015625 c 1
 764.302734375 34.9677734375 773.955078125 27.748046875 791.067382812 14.94921875 c 1
 710.138671875 -81.8154296875 571.520507812 -173.741210938 416.772460938 -173.741210938 c 3
 215.852539062 -173.741210938 18.576171875 -23.3916015625 18.576171875 216.438476562 c 3
 18.576171875 474.852539062 222.891601562 684.966796875 474.172851562 684.966796875 c 3
 646.473632812 684.966796875 815.97265625 560.233398438 815.97265625 360.5390625 c 3
 815.97265625 250.107519695 731.412708993 162.314395648 688.967773438 116.206054688 c 0
 650.76953125 74.7109374997 584.583007812 29.8896484375 519.184570312 29.8896484375 c 3xdf
 455.660783116 29.8896484375 436.958246125 66.3497164962 442.497070312 103.872070312 c 1
 403.295335388 68.315201733 368.3240026 41.888671875 337.123046875 41.888671875 c 3
 266.412947486 41.888671875 217.948242188 101.524847578 217.948242188 173.10546875 c 3
 217.948242188 287.092669566 311.13410654 392.367398891 395.918945312 427.131835938 c 0
 436.188476562 446.140625 467.83844306 450.054605387 533.553710938 464.948242188 c 0
 546.93359375 467.981445312 561.129882812 483.615234375 566.223632812 493.659179688 c 1
 656 470 l 1
 647.212890625 446.258789062 647.836914062 450.647460938 639.203125 427.319335938 c 1xbf
477.8359375 399.030273438 m 1
 466.870223942 401.509642321 455.26171875 403.990234375 445.392578125 403.990234375 c 3
 427.883789062 403.990234375 404.759765625 382.112304688 396.546875 353.62109375 c 0
 390.460375137 335.126298417 383.232421875 308.497799113 383.232421875 260.767578125 c 3
 383.232421875 204.877866725 381.114585273 153.701171875 423.0703125 153.701171875 c 3xbf
 431.877394612 153.701171875 430.451893111 153.410632651 433.283203125 153.130859375 c 1
 447.354532534 200.210720692 468.710459721 252.740239367 481.126953125 305.318359375 c 0
 483.575672906 322.294585395 486.180664062 342.945031694 486.180664062 371.614257812 c 3
 486.180664062 384.465995539 483.766714167 394.170902271 477.8359375 399.030273438 c 1
EndSplineSet
Validated: 33
Position2: "'case' vertical ajustments for all-caps-1" dx=0 dy=160 dh=0 dv=0
Position2: "cpsp-1" dx=0 dy=0 dh=50 dv=100
EndChar
StartChar: A
Encoding: 65 65 26
Width: 733
VWidth: 1159
Flags: HMW
AnchorPoint: "Top" 382 679 basechar 0
AnchorPoint: "Bottom" 356 -15 basechar 0
LayerCount: 2
Fore
SplineSet
271.47265625 257.77734375 m 1
 317.455360111 252.084960936 366.452968737 265.58203125 409.13671875 265.58203125 c 1
 387.907545972 354.422991071 366.857744492 391.561755952 345.521484376 448.400390624 c 1
 314.586557749 360.257102774 299.501873944 343.433945863 271.47265625 257.77734375 c 1
441.888671875 -7.9677734375 m 1
 441.888671875 -7.9677734375 423.981445312 70.16015625 423.491210938 71.451171875 c 1
 446.771484375 77.4765625 470.011849302 70.2271300887 459.536132812 95.34375 c 0
 442.698300127 137.174804689 445.763032112 146.46484375 431.896484375 189.09765625 c 1
 349.234466909 189.958007812 361.244910142 190.474609375 253.088867188 191.700195312 c 1
 236.395537304 149.208984375 244.391519198 160.250851039 226.916015624 118.34375 c 0
 216.557491676 93.503509611 220.63671875 78.9794921875 266.80859375 73.365234375 c 1
 261.06640625 -5.9677734375 l 1
 222.792807256 0.8916015625 176.614052737 3.4072265625 131.09375 3.4072265625 c 3
 102.141601562 3.4072265625 73.599609375 1.6005859375 49.0693359375 -1.1396484375 c 1
 47.2412109375 15.41015625 43.1552734375 52.904296875 39.4140625 76.451171875 c 1
 88.3916015625 86.794921875 99.1388717798 77.3568226493 108.465820312 99.3974609375 c 0
 194.065696843 301.6796875 263.471782184 461.53360733 319.958984375 609.28515625 c 0
 335.008789062 648.650390625 335.1484375 653.858398438 343.12890625 688.512695312 c 1
 421.416015625 688.9609375 l 1
 427.564453125 657.3125 432.106594358 650.187099045 444.330078125 609.821289062 c 0
 510.223398017 392.220703125 548.445291548 304.401804074 637.323242188 91.3115234375 c 0
 645.650390625 71.3466796875 661.90625 71.3935546875 695.55859375 67.451171875 c 1
 696.37890625 50.8515625 698.918945312 19.0732421875 699.81640625 -0.1396484375 c 1
 662.993164062 1.16015625 596.270507812 3.2646484375 564.002929688 3.2646484375 c 3
 522.315429688 3.2646484375 482.797851562 0.83984375 441.888671875 -7.9677734375 c 1
EndSplineSet
Position2: "cpsp-1" dx=0 dy=0 dh=50 dv=100
Substitution2: "c2pc-1" a.pcap
Substitution2: "c2sc-1" a.smcp
EndChar
StartChar: B
Encoding: 66 66 2302
Width: 683
Flags: HMW
AnchorPoint: "Bottom" 315.986 -15 basechar 0
AnchorPoint: "Top" 329.986 679 basechar 0
LayerCount: 2
Fore
SplineSet
377.091796875 379.890625 m 0
 408.986328125 385 422.986328125 454.603515625 422.986328125 461 c 3
 422.986328125 549 382.671875 606.9765625 332.78125 606.9765625 c 3
 304.279296875 606.9765625 321.51171875 610.993164062 313.07421875 607.375976562 c 0
 302.990234375 603.052734375 293.461914062 581.0703125 293.235351562 566.161132812 c 0
 292.03515625 487.319335938 290.856445312 408.280273438 291.740234375 376.890625 c 1
 331.123046875 376.890625 353.90234375 376.17578125 377.091796875 379.890625 c 0
357.42578125 319.958007812 m 0
 328.571289062 319.36328125 317.073242188 315.09765625 289.568359375 312.09765625 c 1
 291.067382812 215.00390625 288.321289062 155.486328125 291.740234375 100.819335938 c 0
 292.916992188 82.0029296875 294.2265625 80.013671875 307.620117188 79.982421875 c 0
 320.541992188 79.9501953125 349.510742188 80.505859375 395.931640625 80.505859375 c 3
 433.069335938 80.505859375 457.556640625 107.223632812 457.556640625 199.568359375 c 3
 457.556640625 264.155273438 407.986328125 321 357.42578125 319.958007812 c 0
79.7421875 81.5048828125 m 1
 132.638671875 83 137.669921875 89.25390625 137.986328125 91 c 0
 139.456054688 99.111328125 138.4296875 182.786132812 138.4296875 287.483398438 c 3
 138.4296875 444.012695312 139.938476562 583.85546875 130.430664062 595.885742188 c 0
 129.612304688 596.920898438 130.322265625 597.708984375 127.138671875 597.979492188 c 0
 114.375 599.065429688 83.4033203125 603.323242188 72 605.237304688 c 1
 87.4833984375 690.139648438 l 1
 118.504882812 685.569335938 128.05078125 678.311523438 194.846679688 678.311523438 c 3
 255.141601562 678.311523438 302.88671875 688.311523438 360.694335938 688.311523438 c 3
 499.006835938 688.311523438 567.662109375 603.07421875 567.662109375 510.171875 c 3
 567.662109375 440.975585938 533.818359375 384.609375 460.580078125 360.557617188 c 1
 564.397460938 345.42578125 631.350585938 276.423828125 631.350585938 191.967773438 c 3
 631.350585938 70.9091796875 516.5546875 -3.4833984375 366.694335938 -3.4833984375 c 3
 307.513671875 -3.4833984375 266.88671875 1.6025390625 200.673828125 1.6025390625 c 3
 125.22265625 1.6025390625 115.333007812 -1.4833984375 84.5703125 -3.3115234375 c 1
 79.7421875 81.5048828125 l 1
EndSplineSet
Position2: "cpsp-1" dx=0 dy=0 dh=50 dv=100
Substitution2: "c2pc-1" b.pcap
Substitution2: "c2sc-1" b.smcp
EndChar
StartChar: C
Encoding: 67 67 2306
Width: 732
Flags: HW
HStem: -15.709 93.3604<345.58 529.516> 600.343 87.9229<325.769 490.078>
VStem: 43 174.898<223.333 447.604>
AnchorPoint: "Top" 416.689 679 basechar 0
AnchorPoint: "Bottom" 402.689 -15 basechar 0
LayerCount: 2
Fore
SplineSet
43 319.893554688 m 3
 43 502.436523438 166.254882812 688.265625 413.888671875 688.265625 c 3
 466.724609375 688.265625 492.1875 681.557617188 537.1328125 676.822265625 c 0
 593.739257812 663.1171875 605.416015625 666.795898438 629.576171875 668.1796875 c 1
 678.663085938 644.245117188 l 1
 654.794921875 595.334960938 655.724609375 576.751953125 658.524414062 522.025390625 c 0
 660.359375 486.14453125 640.086914062 478.39453125 586.98046875 477.479492188 c 1
 543.643554688 510.994140625 556.758789062 522.400390625 535.333984375 539.361328125 c 0
 493.83203125 583.229492188 462.4140625 600.342773438 411.796875 600.342773438 c 3
 297.712890625 600.342773438 217.8984375 507.388671875 217.8984375 348.169921875 c 3
 217.8984375 167.912109375 331.415039062 77.6513671875 427.22265625 77.6513671875 c 3
 564.071289062 77.6513671875 581.1484375 153.47265625 627.19921875 201.450195312 c 1
 688.107421875 185.637695312 l 1
 682.513671875 134.16015625 663.293945312 98.1982421875 647.942382812 51.55078125 c 1
 582.200195312 16.5107421875 518.931640625 -15.708984375 427.759765625 -15.708984375 c 3
 200.776367188 -15.708984375 43 120.58984375 43 319.893554688 c 3
EndSplineSet
Position2: "cpsp-1" dx=0 dy=0 dh=50 dv=100
Substitution2: "c2pc-1" c.pcap
Substitution2: "c2sc-1" c.smcp
EndChar
StartChar: D
Encoding: 68 68 2318
Width: 804
Flags: HW
HStem: -9.39746 86.4717<56.2725 130.407> -2.65625 89.9629<254.786 476.996> 596.832 91.3076<299.152 463.389>
VStem: 133.634 159.58<94.1296 564.32> 612.21 150.79<219.896 460.752>
AnchorPoint: "Top" 377.435 679 basechar 0
AnchorPoint: "Bottom" 363.435 -15 basechar 0
LayerCount: 2
Fore
SplineSet
391.399414062 87.306640625 m 3x78
 503.727539062 87.306640625 612.209960938 186.598632812 612.209960938 316.53515625 c 3
 612.209960938 485.288085938 559.83984375 596.83203125 316.450195312 596.83203125 c 3
 314.778320312 596.83203125 309.978515625 596 307.434570312 596 c 0
 304.434570312 596 300.178710938 593.022460938 299.6015625 584.98828125 c 0
 295.125 522.700195312 293.213867188 453.979492188 293.213867188 387.987304688 c 3
 293.213867188 277.583007812 298.21484375 194.159179688 311.922851562 102.529296875 c 0
 313.2109375 93.916015625 318.77734375 88.9501953125 324.643554688 88.0361328125 c 0
 343.155273438 85.1513671875 364.674804688 87.306640625 391.399414062 87.306640625 c 3x78
50.1005859375 681.967773438 m 1
 101.96875 678.139648438 122.83203125 674.139648438 172.743164062 674.139648438 c 1
 257.000976562 674.139648438 300.431640625 688.139648438 381.948242188 688.139648438 c 3
 527.702148438 688.139648438 763 596.216796875 763 342.34375 c 3
 763 70.1640625 548.23828125 -2.65625 359.775390625 -2.65625 c 3x78
 291.259765625 -2.65625 253.743164062 4.34375 180.657226562 4.34375 c 3
 142.28125 4.34375 106.735351562 -0.0625 56.0146484375 -9.3974609375 c 1
 56.2724609375 77.07421875 l 1xb8
 107.221679688 74.5732421875 130.489257812 81.4658203125 130.94921875 85.4599609375 c 0
 132.842773438 127.567382812 133.633789062 185.0703125 133.633789062 241.380859375 c 3
 133.633789062 383.779296875 126.354492188 524.194335938 119.598632812 593.51171875 c 0
 119.000976562 600.412109375 74.8466796875 595.80078125 48.2724609375 596.237304688 c 1
 50.1005859375 681.967773438 l 1
EndSplineSet
Position2: "cpsp-1" dx=0 dy=0 dh=50 dv=100
Substitution2: "c2pc-1" d.pcap
Substitution2: "c2sc-1" d.smcp
EndChar
StartChar: E
Encoding: 69 69 2324
Width: 683
Flags: HW
HStem: 3.30371 82.6982<297.073 489.508> 300.281 81.3682<297.16 443.77> 513.313 21G<498.917 566.445> 601.251 77.8885<73.2061 131.236 302.525 469.205> 667.216 20G<545.584 568.578>
VStem: 131.048 164.129<88.6364 299.377 382.559 590.083> 454.85 75.8057<261.341 300.053 382.35 419.571> 502.199 64.2461<527.141 576.414>
AnchorPoint: "Top" 336.955 679 basechar 0
AnchorPoint: "Bottom" 327.955 -15 basechar 0
LayerCount: 2
Fore
SplineSet
73.2060546875 684.215820312 m 1xf6
 137.456054688 681.030273438 240.865234375 679.139648438 336.6328125 679.139648438 c 3xf6
 439.517578125 679.139648438 533.631835938 681.123046875 557.536132812 687.215820312 c 1
 579.620117188 670.905273438 586.639648438 660.729492188 586.639648438 647.3359375 c 3
 586.639648438 629.392578125 568.686523438 588.849609375 566.4453125 527.140625 c 1
 502.19921875 513.313476562 l 1xed
 495.634765625 541.799804688 497.608398438 571.276367188 481.447265625 576.416015625 c 0
 432.659179688 592.606445312 404.067382812 601.250976562 366.129882812 601.250976562 c 3
 351.466796875 601.250976562 335.408203125 599.959960938 316.247070312 597.313476562 c 0
 308.107421875 596.130859375 302.66796875 593.463867188 302.525390625 582.021484375 c 0
 302.018554688 509.5703125 298.16015625 449.748046875 297.16015625 382.55859375 c 1
 342.271484375 384.66015625 432.678710938 381.35546875 437.984375 381.649414062 c 0
 446.514648438 382.49609375 445.2421875 403.689453125 456.084960938 435.393554688 c 1
 535.04296875 418.997070312 l 1
 526.909179688 386.731445312 523.217773438 357.520507812 523.217773438 327.434570312 c 3
 523.217773438 306.954101562 525.78515625 285.9140625 530.655273438 262.169921875 c 1
 454.849609375 238.1171875 l 1
 437.521484375 281.19140625 446.219726562 300.1484375 438.481445312 300.28125 c 0
 404.939453125 299.731445312 349.319335938 297.29296875 293.23046875 299.376953125 c 1
 293.143554688 209.100585938 293.775390625 167.173828125 295.176757812 107.15234375 c 0
 295.616210938 92.31640625 302.081054688 90.1884765625 308.107421875 89.552734375 c 0
 338.26171875 85.125 329.921875 86.001953125 364.7890625 86.001953125 c 1
 402.33984375 86.001953125 388.484375 87.13671875 422.494140625 90.9453125 c 0
 479.171875 94.4716796875 496.037109375 98.30859375 554.0234375 179.09375 c 1
 620 165.470703125 l 1
 605.397460938 104.915039062 590.836914062 58.7255859375 578.76171875 1.9365234375 c 1
 487.426757812 -0.6875 391.67578125 3.3037109375 300.80859375 3.3037109375 c 3
 221.041015625 3.3037109375 146.123046875 0.09765625 85.033203125 -13.8818359375 c 1
 70.66015625 65.212890625 l 1
 108.98046875 72.8369140625 131.03515625 87.0830078125 131.047851562 95.1767578125 c 1
 131.342773438 133.657226562 131.516601562 225.0078125 131.516601562 345.940429688 c 3
 131.516601562 465.108398438 131.4140625 575.119140625 131.171875 585.430664062 c 0
 131.086914062 591.543945312 78.4580078125 590.177734375 69.6357421875 594.421875 c 1
 73.2060546875 684.215820312 l 1xf6
EndSplineSet
Position2: "cpsp-1" dx=0 dy=0 dh=50 dv=100
Substitution2: "c2pc-1" e.pcap
Substitution2: "c2sc-1" e.smcp
EndChar
StartChar: F
Encoding: 70 70 2342
Width: 622
Flags: HW
HStem: -7.56934 97.4385<288.606 399.908> 4.46875 83.4092<286.756 396.147> 288.891 78.5908<280.575 402.812> 511.979 21G<479.204 543.93> 592.16 88.7217<55.9345 114.788> 672.425 20G<514.138 536.307>
VStem: 117.631 169.522<93.906 287.597> 117.967 160.484<94.7676 291.732 370.721 592.033> 421.376 87.3223<226.956 283.345> 477.77 66.1602<516.806 559.292>
AnchorPoint: "Top" 308.153 679 basechar 0
AnchorPoint: "Bottom" 219.153 -15 basechar 0
LayerCount: 2
Fore
SplineSet
398.866210938 -7.5693359375 m 1xb680
 340.81640625 0.2939453125 286.280273438 4.46875 233.438476562 4.46875 c 3
 176.358398438 4.46875 121.15625 0.6708984375 66.76171875 -7.3974609375 c 1
 57.5361328125 86.90234375 l 1
 77.8955078125 80.666015625 117.1015625 93.068359375 117.630859375 87.8779296875 c 1x7280
 117.8671875 112.123046875 117.967773438 155.23046875 117.967773438 217.107421875 c 3
 117.967773438 355.795898438 121.153320312 559 114.788085938 592.16015625 c 0
 114.7109375 592.560546875 65.16015625 590.568359375 49.5361328125 600.409179688 c 1
 55.9345703125 680.881835938 l 1x79
 108.470703125 678.268554688 195.021484375 675.737304688 279.831054688 675.737304688 c 3
 393.043945312 675.737304688 503.521484375 678.705078125 524.754882812 692.424804688 c 1
 547.859375 682.643554688 553 680.583984375 553 640.568359375 c 1
 553 613.8984375 546.055664062 575.149414062 543.930664062 516.805664062 c 1
 477.770507812 511.978515625 l 1
 480.638671875 542.591796875 461.709960938 559.826171875 444.153320312 567 c 0
 404.158203125 583.342773438 336.834960938 599.528320312 280.946289062 592.059570312 c 0
 277.575195312 591.5859375 276.641601562 584.938476562 276.311523438 574.252929688 c 0
 274.134765625 503.745117188 277.374023438 435.59765625 278.452148438 370.720703125 c 1x3540
 320.438476562 372.244140625 385.361328125 367.278320312 391.240234375 367.481445312 c 0
 404.350585938 367.935546875 406.790039062 383.18359375 423.678710938 422.734375 c 1
 511.891601562 414.642578125 l 1
 500.356445312 385.12109375 497.389648438 355.87109375 497.389648438 327.489257812 c 3
 497.389648438 289.36328125 501.743164062 265.419921875 508.698242188 228.822265625 c 1
 421.375976562 205.54296875 l 1
 396.329101562 251.4296875 408.37109375 287.791015625 392.327148438 288.890625 c 0
 373.896484375 290.154296875 321.576171875 289.857421875 280.575195312 291.732421875 c 1
 281.927734375 202.936523438 285.100585938 151.3046875 287.153320312 99 c 0
 287.423828125 92.103515625 341.153320312 93 413.374023438 89.869140625 c 1
 398.866210938 -7.5693359375 l 1xb680
EndSplineSet
Position2: "cpsp-1" dx=0 dy=0 dh=50 dv=100
Substitution2: "c2pc-1" f.pcap
Substitution2: "c2sc-1" f.smcp
EndChar
StartChar: G
Encoding: 71 71 2343
Width: 777
Flags: HW
HStem: -12.4512 84.8965<388.622 512.91> 273.012 84.3857<409.275 483.655> 294.581 59.8164<687.358 720.148> 602.082 85.7461<310.383 538.249>
VStem: 38 182.938<249.273 452.397> 517.991 162.984<80.0187 271.753>
AnchorPoint: "Top" 423.714 679 basechar 0
AnchorPoint: "Bottom" 423.714 -15 basechar 0
LayerCount: 2
Fore
SplineSet
38 333.548828125 m 3xbc
 38 541.866210938 216.575195312 687.828125 425.512695312 687.828125 c 1
 478.055664062 687.828125 515.38671875 674.719726562 554.909179688 664.826171875 c 0
 580.272460938 656.8828125 561.958007812 695.509765625 577.266601562 682.7421875 c 1
 646.512695312 687.828125 l 1
 684.607421875 543.817382812 l 1
 623.447265625 521.591796875 l 1
 597.713867188 504 606.594726562 602.08203125 407.969726562 602.08203125 c 3
 281.616210938 602.08203125 220.938476562 528.0625 220.938476562 385.171875 c 1
 220.938476562 178.479492188 343.904296875 72.4453125 501.415039062 72.4453125 c 1
 506.712890625 72.4453125 510.014648438 76.0517578125 512.672851562 84.572265625 c 0
 513.606445312 87.5654296875 517.865234375 109.4296875 517.991210938 113.865234375 c 0
 519.001953125 149.395507812 520.909179688 195.744140625 518.611328125 256.833007812 c 0
 518.190429688 270.251953125 525.002929688 271.30859375 485.012695312 272.01171875 c 0
 455.900390625 272.432617188 436.553710938 272.51171875 404.926757812 273.01171875 c 1
 409.66796875 357.397460938 l 1xdc
 532.515625 345.569335938 648.381835938 345.65625 720.147460938 354.397460938 c 1
 725.889648438 294.581054688 l 1
 710.821289062 298.130859375 685.276367188 290.240234375 684.977539062 277.639648438 c 0
 683.266601562 199.688476562 681.96875 151.892578125 680.975585938 97.94140625 c 0
 680.782226562 87.4521484375 686.889648438 87.0634765625 708.975585938 77.0537109375 c 1
 704.147460938 32.291015625 l 1
 622.40625 18.462890625 502.484375 -12.451171875 435.689453125 -12.451171875 c 1
 221.3984375 -12.451171875 38 123.288085938 38 333.548828125 c 3xbc
EndSplineSet
Position2: "cpsp-1" dx=0 dy=0 dh=50 dv=100
Substitution2: "c2pc-1" g.pcap
Substitution2: "c2sc-1" g.smcp
EndChar
StartChar: H
Encoding: 72 72 2351
Width: 870
Flags: HW
HStem: -2.4834 21.1719G<324.438 351.075 568.886 587.243 798.835 823.325> 5.40723 93.6045<65.2342 122.65> 308.279 77.7227<295.423 608.312> 600.613 82.8047<309.87 356.826> 607.959 84.9229<782.224 817.452> 665.882 20G<552.878 571.77>
VStem: 60.4061 0.00976562<597.959 611.297> 121.283 174.142<90.3725 305> 131.35 164.072<135.93 305.642 388 594.628> 608.312 156.172<99.6482 308.279 386.002 550.897>
AnchorPoint: "Top" 453.74 679 basechar 0
AnchorPoint: "Bottom" 450.74 -15 basechar 0
LayerCount: 2
Fore
SplineSet
60.40625 686.794921875 m 1xa2c0
 117.348632812 678.424804688 171.7109375 674.171875 228.313476562 674.171875 c 3
 263.796875 674.171875 316.609375 677.20703125 357.34375 683.41796875 c 1
 356.826171875 600.61328125 l 1xb2c0
 343.740234375 599 319.28515625 590.918945312 309.396484375 601.0625 c 1
 305.75 565.265625 293.458984375 475.213867188 291.455078125 388 c 1
 608.3125 386.001953125 l 1
 609.310546875 449.7890625 598.765625 610.50390625 597.916015625 603.62890625 c 0
 588.404296875 599.838867188 534.533203125 610.814453125 549.16015625 605.302734375 c 1
 554.10546875 685.881835938 l 1x26c0
 589.435546875 680.53125 632.93359375 676.740234375 661.306640625 676.740234375 c 3
 706.000976562 676.740234375 752.208984375 681.173828125 816.069335938 692.881835938 c 1
 832.849609375 607.958984375 l 1
 849.62109375 610.377929688 783.142578125 608.873046875 782.12890625 603.19140625 c 0
 770.720703125 496.40234375 764.484375 356.579101562 764.484375 231.573242188 c 3
 764.484375 168.04296875 766.33203125 111.91796875 770.955078125 99.01171875 c 0
 773.65234375 99.0654296875 834.935546875 89.92578125 833.333984375 99.943359375 c 1
 833.333984375 99.943359375 823.268554688 -0.7470703125 823.381835938 -2.3115234375 c 1
 774.2890625 2.21484375 728.325195312 5.4072265625 681.5078125 5.4072265625 c 3
 651.008789062 5.4072265625 604.0703125 2.9111328125 570.416992188 -3.4833984375 c 1
 567.35546875 22.57421875 563.09765625 56.076171875 559.126953125 89.6328125 c 1
 575.740234375 87 598.56640625 92.1083984375 599.98046875 102.044921875 c 0
 610.26171875 180.688476562 608.701171875 230.755859375 608.3125 308.279296875 c 1
 295.422851562 305.641601562 l 1x6ac0
 295.420898438 233.61328125 288.799804688 153.10546875 295.424804688 102.202148438 c 0
 297.361328125 80.40625 337.740234375 91 358.966796875 96.4609375 c 1
 358.966796875 96.4609375 351.125 -0.939453125 351.025390625 -2.4833984375 c 1
 297.8515625 3.9814453125 237.118164062 6.9111328125 194.016601562 6.9111328125 c 3
 151.47265625 6.9111328125 110.448242188 4.30859375 65.234375 -0.4833984375 c 1
 65.234375 -0.4833984375 47.9912109375 96.2529296875 47.7509765625 98.24609375 c 1
 32.6171875 85.2978515625 120.548828125 90.259765625 121.283203125 92.6357421875 c 0xa340
 130.860351562 205.060546875 131.350585938 343.590820312 131.350585938 462.693359375 c 3
 131.350585938 531.190429688 127.712890625 589.642578125 120.6640625 594.9140625 c 0
 114.69140625 598.321289062 61.587890625 611.296875 60.416015625 597.958984375 c 1
 60.40625 686.794921875 l 1xa2c0
EndSplineSet
Position2: "cpsp-1" dx=0 dy=0 dh=50 dv=100
Substitution2: "c2pc-1" h.pcap
Substitution2: "c2sc-1" h.smcp
EndChar
StartChar: I
Encoding: 73 73 2355
Width: 453
Flags: HW
HStem: -3.31152 21G<70.796 97.1929 361.963 388.663> 6.7168 668.642<155.364 309.25> 672.709 20G<76.3777 104.046 362.706 391.894>
VStem: 154.403 155.869<90.577 590.006>
AnchorPoint: "Top" 234.392 679 basechar 0
AnchorPoint: "Bottom" 235.392 -15 basechar 0
LayerCount: 2
Fore
SplineSet
77.5693359375 692.708984375 m 1x30
 130.522460938 680.497070312 180.692382812 675.358398438 231.6953125 675.358398438 c 3x50
 282.658203125 675.358398438 334.458984375 680.475585938 390.952148438 688.794921875 c 1
 395.693359375 588.065429688 l 1
 404.137695312 603.612304688 335.422851562 596.903320312 334.982421875 603 c 0
 314.774414062 526.869140625 310.271484375 429.44140625 310.271484375 282.779296875 c 3
 310.271484375 218.55859375 314.276367188 161.206054688 324.149414062 87.1162109375 c 0
 324.78515625 85.7021484375 353.080078125 78.49609375 392.392578125 84.5908203125 c 1
 387.564453125 -3.3115234375 l 1x90
 336.361328125 3.26171875 283.897460938 6.716796875 232.705078125 6.716796875 c 3x50
 176.4765625 6.716796875 121.81640625 2.5986328125 72.5693359375 -6.1396484375 c 1
 64 90.5048828125 l 1
 114.171875 74.7939453125 146.78125 73.244140625 147.592773438 80.017578125 c 0
 152.5 160.010742188 154.40234375 257.158203125 154.40234375 362.453125 c 3
 154.40234375 464.357421875 147.002929688 546.154296875 142.005859375 604 c 0
 141.90625 595.408203125 43.9853515625 612.651367188 71.7412109375 594.893554688 c 1
 77.5693359375 692.708984375 l 1x30
EndSplineSet
Position2: "cpsp-1" dx=0 dy=0 dh=50 dv=100
Substitution2: "c2pc-1" i.pcap
Substitution2: "c2sc-1" i.smcp
EndChar
StartChar: J
Encoding: 74 74 2369
Width: 401
Flags: HMW
AnchorPoint: "Top" 210.054 679 basechar 0
AnchorPoint: "Bottom" 265.054 -168 basechar 0
LayerCount: 2
Fore
SplineSet
122.541992188 600.533203125 m 1
 117.528320312 597.326171875 18.6845703125 618.9453125 18.5400390625 596.806640625 c 1
 27.28125 690.537109375 l 1
 97.6015625 679.084960938 157.021484375 674.708007812 214.6796875 674.708007812 c 3
 267.828125 674.708007812 319.044921875 681.758789062 382.8359375 690.537109375 c 1
 387.578125 590.806640625 l 1
 422.825195312 610.921875 301.544921875 603.827148438 300.448242188 598.365234375 c 0
 278.282226562 487.986328125 284.8359375 383.122070312 284.8359375 231.397460938 c 1
 284.8359375 125.963867188 297.783203125 95.439453125 297.686523438 50.38671875 c 1
 306.323242188 -46.5078125 207.137695312 -111.26171875 135.75 -141 c 0
 112.733398438 -150.587890625 93.8525390625 -163.663085938 73.4091796875 -175.700195312 c 1
 22.3427734375 -105.501953125 l 1
 47.81640625 -95.1767578125 69.8505859375 -88.1689453125 89.3564453125 -75.861328125 c 0
 96.5166015625 -71.34375 104.034179688 -66.25390625 109.208007812 -61.06640625 c 0
 139.888671875 -30.3076171875 139.551757812 15.2080078125 140.7890625 105.225585938 c 1
 141.712890625 136.079101562 127.771484375 588.075195312 122.541992188 600.533203125 c 1
EndSplineSet
Position2: "cpsp-1" dx=0 dy=0 dh=50 dv=100
Substitution2: "c2pc-1" j.pcap
Substitution2: "c2sc-1" j.smcp
EndChar
StartChar: K
Encoding: 75 75 36
Width: 754
VWidth: 1159
Flags: W
HStem: -2.77637 54.1602<691.543 721.557> 609.237 71.6445<445.548 485.663> 614.635 71.0742<72.0641 124.607 596.079 647.158>
VStem: 120.814 156.653<77.3039 301.342> 130.612 140.153<84.1561 301.672 360.624 545.206>
AnchorPoint: "Top" 369 679 basechar 0
AnchorPoint: "Bottom" 374 -15 basechar 0
LayerCount: 2
Fore
SplineSet
445.913085938 680.881835938 m 1xc8
 466.517079286 677.08984375 486.654154231 675.276367188 506.7890625 675.276367188 c 3
 552.442459322 675.276367188 598.131610769 680.995117188 646.920898438 691.537109375 c 1
 662.318359375 609.548828125 l 1
 613.176009356 597.981477012 583.88899936 594.630962355 562.330078125 571.974609375 c 0
 511.525839566 511.175575623 447.349689134 464.865338604 394.14453125 389.921875 c 1
 610.163085938 133.146484375 l 1
 657.954231061 83.643183682 692.593971825 75.476472549 729.018554688 51.3837890625 c 1
 720.44921875 -2.7763671875 l 1
 683.754787925 1.4296875 649.368455547 5.9443359375 609.103515625 5.9443359375 c 3
 543.880800103 5.9443359375 509.117525589 1.1162109375 452.147460938 -3.8837890625 c 1
 438.749023438 60.845703125 l 1
 440.555954719 61.6956922333 470.881777008 68.4034246917 469.556640624 70.763671875 c 1
 457.935932663 81.4878239713 336.768089844 222.442792713 270.765625 301.671875 c 1xc8
 270.765625 230.563583044 275.956659396 139.725952685 277.467773438 95.333984375 c 0
 277.795639 87.4317135873 318.4375 60.0806680538 342.876953125 70.5908203125 c 1
 334.220703125 -3.1396484375 l 1
 278.932733187 2.8798828125 229.280629944 6.1298828125 172.168945312 6.1298828125 c 3
 141.2890625 6.1298828125 107.565429688 3.76953125 67.5263671875 -1.2255859375 c 1
 61.78515625 81.4189453125 l 1
 84.443359375 66.6904296875 120.471611021 71.6110054114 120.814453125 69.2685546875 c 0xd0
 126.794962593 175.342730865 130.612304688 276.76171875 130.612304688 388.450195312 c 3
 130.612304688 463.604573128 132.882937442 523.50197293 124.916992188 592.627929688 c 0
 121.64266821 613.9679549 109.62109375 614.392578124 59.87109375 614.634765625 c 1
 72.2685546875 685.708984375 l 1xa8
 112.711484098 678.53125 151.742411367 675.522460938 190.177734375 675.522460938 c 3
 237.909069201 675.522460938 284.747940334 679.544921875 332.318359375 685.794921875 c 1
 339.888671875 606.151367188 l 1
 321.788962609 614.949519408 298.934398433 596.356123192 298.620117188 601.317382812 c 1
 292.324134573 521.537033265 274.817227703 441.766862292 273.8828125 360.624023438 c 1
 330.346312265 438.327716314 395.248410605 495.711852188 461.223632812 576.92578125 c 0
 475.212971446 593.917292172 480.688869896 597.047574451 485.665039062 600.580078125 c 0
 486.013954086 601.079101562 460.715349136 605.036132812 442.171875 609.237304688 c 1
 445.913085938 680.881835938 l 1xc8
EndSplineSet
Validated: 33
Position2: "cpsp-1" dx=0 dy=0 dh=50 dv=100
Substitution2: "c2pc-1" k.pcap
Substitution2: "c2sc-1" k.smcp
EndChar
StartChar: L
Encoding: 76 76 2375
Width: 682
Flags: HW
HStem: -15.332 21G<598.329 627.632> -3.39746 95.0742<68.2432 124.161> 5.60254 90.1123<299.717 508.66> 667.882 19.8271G<56 83.6821 359.157 382.123>
VStem: 128.414 161.674<95.0364 589.493>
AnchorPoint: "Top" 207.83 679 basechar 0
AnchorPoint: "Bottom" 335.83 -15 basechar 0
LayerCount: 2
Fore
SplineSet
382.486328125 687.881835938 m 1x58
 380.796875 594.787109375 l 1
 286.43359375 600.94921875 290.830078125 574.422851562 290.6953125 551.13671875 c 0
 290.397460938 493.766601562 290.986328125 129.866210938 290.087890625 113.948242188 c 1
 290.775390625 99.3369140625 291.505859375 96.162109375 300.3828125 95.71484375 c 0x38
 344.672851562 92.521484375 442.8203125 91.1943359375 487.935546875 109.685546875 c 0
 546.77734375 128.981445312 530.142578125 132.423828125 574.111328125 218.4453125 c 1
 653.087890625 197.6484375 l 1
 658.978515625 139.451171875 644.28515625 210.162109375 610.978515625 -15.33203125 c 1x98
 585.678710938 -7.4091796875 578.600585938 2.1689453125 533.088867188 3.583984375 c 0
 519.247070312 4.015625 426.69140625 5.6025390625 320.122070312 5.6025390625 c 1x38
 94.9482421875 5.6025390625 113.801757812 -3.3974609375 68.2431640625 -3.3974609375 c 1
 58.5009765625 91.6767578125 l 1
 73.259765625 85.5234375 123.03515625 96.7529296875 125.265625 101.721679688 c 0
 127.283203125 111.162109375 128.4140625 195.568359375 128.4140625 302.7421875 c 3
 128.4140625 452.04296875 120.830078125 562.477539062 118.830078125 578 c 0
 118.319335938 581.966796875 92.830078125 594 55 585.474609375 c 1
 56.2431640625 687.708984375 l 1
 111.12109375 678.543945312 170.1015625 674.87890625 227.517578125 674.87890625 c 3
 282.439453125 674.87890625 335.828125 680.052734375 382.486328125 687.881835938 c 1x58
EndSplineSet
Position2: "cpsp-1" dx=0 dy=0 dh=50 dv=100
Substitution2: "c2pc-1" l.pcap
Substitution2: "c2sc-1" l.smcp
EndChar
StartChar: M
Encoding: 77 77 2382
Width: 899
Flags: HW
HStem: -8.31152 94.9404<196.253 253.58 600.98 645.649> 590.409 95.6445<788.989 860.24> 591.423 101.717<45.5681 96.5771>
VStem: 95.2541 99.9893<97.2466 380.52> 392.44 77.5779<-2.69771 76.9153>
AnchorPoint: "Top" 455.661 679 basechar 0
AnchorPoint: "Bottom" 436.661 -15 basechar 0
LayerCount: 2
Fore
SplineSet
873.595703125 -6.537109375 m 1xd8
 836.428710938 1.0009765625 799.0859375 5.4443359375 760.106445312 5.4443359375 c 3
 709.990234375 5.4443359375 657.874023438 1.1865234375 601.715820312 -8.623046875 c 1
 591.232421875 86.9345703125 l 1
 632.18359375 94.650390625 652.041015625 106.646484375 654.008789062 120.978515625 c 0
 671.435546875 226.668945312 659.953125 339.518554688 648.946289062 433.66796875 c 1
 602.903320312 330.353515625 548.202148438 223.189453125 508.239257812 127.802734375 c 0
 491.938476562 89.5419921875 485.354492188 43.1064453125 470.018554688 -2.697265625 c 1
 392.440429688 -2.697265625 l 1
 391.573242188 39.46875 377.666015625 73.001953125 359.290039062 118.715820312 c 0
 312.310546875 250.435546875 191.877929688 440.65234375 200.077148438 438.486328125 c 1
 186.979492188 344.788085938 186.35546875 232.587890625 195.243164062 132.248046875 c 0
 198.232421875 74.1201171875 188.809570312 100.728515625 261.817382812 86.62890625 c 1
 252.956054688 -8.3115234375 l 1
 215.228515625 0.4189453125 171.357421875 5.6318359375 125.233398438 5.6318359375 c 3
 94.9208984375 5.6318359375 63.1953125 1.498046875 32.4833984375 -8.1396484375 c 1
 25 82.7626953125 l 1
 82.6826171875 85.2607421875 98.015625 123.684570312 95.25390625 121.715820312 c 1
 95.2236328125 123.625 113.049804688 524.814453125 112.745117188 528.02734375 c 1
 115.096679688 541.045898438 106.219726562 564.859375 89.9833984375 579.498046875 c 0
 83.25 585.634765625 75.87109375 602.453125 32.041015625 591.422851562 c 1
 46.568359375 693.139648438 l 1xb8
 111.880859375 682.483398438 183.8828125 676.311523438 247.8828125 678.311523438 c 1
 276.260742188 679.02734375 282.236328125 653.52734375 283.375 649.9140625 c 0
 325.646484375 507.176757812 413.528320312 367.927734375 481.661132812 231 c 1
 480.284179688 238.180664062 666.688476562 659.34375 667.147460938 660.2578125 c 0
 673.975585938 673.828125 686.622070312 684.157226562 703.598632812 682.311523438 c 0
 758.217773438 676.310546875 805.993164062 681.053710938 859.6796875 686.053710938 c 1
 867.334960938 590.409179688 l 1
 824.299804688 585.536132812 789.4296875 602.580078125 789.098632812 577.860351562 c 0
 786.506835938 424.672851562 800.408203125 278.791015625 806.389648438 106.90234375 c 0
 806.836914062 96.5849609375 817.760742188 86.0263671875 876.186523438 98.041015625 c 1
 873.595703125 -6.537109375 l 1xd8
EndSplineSet
Position2: "cpsp-1" dx=0 dy=0 dh=50 dv=100
Substitution2: "c2pc-1" m.pcap
Substitution2: "c2sc-1" m.smcp
EndChar
StartChar: N
Encoding: 78 78 2385
Width: 802
Flags: HW
HStem: -14.8926 21G<634.255 717.128> -6.53711 95.8906<218.867 320.337> 580.926 102.73<35.2685 83.4121> 596.508 84.3203<749.382 802.008> 671.483 20G<525.132 563.49>
VStem: 641.734 80.0869<291.564 338.181>
AnchorPoint: "Bottom" 411.326 -15 basechar 0
AnchorPoint: "Top" 414.326 679 basechar 0
LayerCount: 2
Fore
SplineSet
35.2685546875 683.65625 m 1x64
 67.6142578125 683.897460938 135.365234375 674.28515625 178.181640625 673.828125 c 0
 198.677734375 673.609375 209.0546875 660.927734375 213.977539062 655.516601562 c 0
 343.091796875 513.583984375 475.205078125 389.294921875 641.734375 291.564453125 c 1
 644.3359375 355.39453125 647.7578125 392.556640625 647.7578125 463.01953125 c 3
 647.7578125 485.625 649.303710938 506.198242188 648.326171875 529 c 1
 648.326171875 573.053710938 628.630859375 597.12890625 518.458007812 601.09765625 c 1
 527.028320312 691.483398438 l 1x0c
 599.952148438 681.810546875 627.720703125 678.141601562 690.634765625 678.141601562 c 3
 714.325195312 678.141601562 776.995117188 679.138671875 802.0078125 680.828125 c 1
 806 596.5078125 l 1
 761.895507812 592.625 748.168945312 589.625976562 744.326171875 554 c 0
 726.33203125 387.18359375 721.821289062 280.047851562 721.821289062 96.8984375 c 0
 721.821289062 69.9423828125 729.649414062 32.8974609375 735.649414062 10.1611328125 c 1
 643.833007812 -14.892578125 l 1x94
 624.677734375 37.18359375 589.631835938 71.9453125 552.548828125 110.033203125 c 0
 439.571289062 226.071289062 344.96484375 320.33203125 211.91015625 423.419921875 c 1
 211.91015625 419.036132812 202.326171875 234 201.860351562 225.022460938 c 1
 198.6015625 74 218.887695312 104 332.115234375 89.353515625 c 1
 319.409179688 -6.537109375 l 1
 270.142578125 2.8896484375 222.325195312 6.255859375 179.497070312 6.255859375 c 3
 131.294921875 6.255859375 84.87890625 0.4189453125 32.6953125 -5.1396484375 c 1
 23.326171875 96 l 1
 51.8779296875 94 89.947265625 102 92.326171875 132 c 0
 99.564453125 240.575195312 105.279296875 343.024414062 105.279296875 455.26171875 c 3
 105.279296875 470.485351562 105.1953125 478.33984375 105.170898438 491.764648438 c 1
 105.103515625 528.315429688 79.37109375 600.76171875 32.3544921875 580.92578125 c 1
 35.2685546875 683.65625 l 1x64
EndSplineSet
Position2: "cpsp-1" dx=0 dy=0 dh=50 dv=100
Substitution2: "c2pc-1" n.pcap
Substitution2: "c2sc-1" n.smcp
EndChar
StartChar: O
Encoding: 79 79 2398
Width: 818
Flags: HW
HStem: -16.2793 88.0098<375.893 521.36> 598.422 90.6641<292.212 444.211>
VStem: 48 185.133<268.197 450.24> 597.133 172.917<213.637 413.835>
AnchorPoint: "Bottom" 420.133 -15 basechar 0
AnchorPoint: "Top" 415.133 679 basechar 0
AnchorPoint: "Horn" 644 595 basechar 0
AnchorPoint: "Middle" 413.697 347.853 basechar 0
LayerCount: 2
Fore
SplineSet
359.090820312 598.421875 m 3
 279.095703125 598.421875 233.1328125 541.373046875 233.1328125 406 c 3
 233.1328125 236 325.541992188 71.73046875 454.890625 71.73046875 c 3
 551.1328125 71.73046875 597.1328125 168.783203125 597.1328125 284 c 3
 597.1328125 442 503.341796875 598.421875 359.090820312 598.421875 c 3
407.206054688 689.0859375 m 3
 595.82421875 689.0859375 770.049804688 540.353515625 770.049804688 328.946289062 c 3
 770.049804688 131.124023438 603.15234375 -16.279296875 416.525390625 -16.279296875 c 3
 244.66015625 -16.279296875 48 100.2421875 48 330.774414062 c 3
 48 532.926757812 217.299804688 689.0859375 407.206054688 689.0859375 c 3
EndSplineSet
Position2: "cpsp-1" dx=0 dy=0 dh=50 dv=100
Substitution2: "c2pc-1" o.pcap
Substitution2: "c2sc-1" o.smcp
EndChar
StartChar: P
Encoding: 80 80 2416
Width: 639
Flags: HW
HStem: -9.62305 86.041<71.1222 116.216> 198.131 78.9785<283.205 363> 605.102 81.1562<268.992 359.478>
VStem: 116.982 167.131<86.8247 198.128 277.109 511.157> 443.264 153.736<357.972 526.167>
AnchorPoint: "Bottom" 227 -15 basechar 0
AnchorPoint: "Top" 323 679 basechar 0
LayerCount: 2
Fore
SplineSet
291.19921875 277.267578125 m 1
 372.412109375 277.267578125 443.263671875 348.412109375 443.263671875 434.609375 c 0
 443.263671875 498.231445312 420.54296875 543.2578125 384.669921875 571 c 0
 355.234375 593.764648438 316.942382812 604.889648438 275.08203125 605.1015625 c 0
 271.959960938 605.1171875 268.212890625 599.043945312 268.322265625 592.98828125 c 0
 269.548828125 525.052734375 274.54296875 363 280.11328125 277.109375 c 1
 283.54296875 277 288.466796875 277.267578125 291.19921875 277.267578125 c 1
40.6708984375 681.0859375 m 1
 74.2783203125 677.2578125 91.9873046875 675.2578125 136.861328125 675.2578125 c 1
 211.884765625 675.2578125 241.276367188 686.2578125 314.291015625 686.2578125 c 1
 479.662109375 686.2578125 597 571.634765625 597 445.979492188 c 1
 597 344.840820312 514.166992188 198.130859375 283.205078125 198.130859375 c 1
 285.1953125 198.130859375 282.629882812 194.181640625 284.11328125 192.4375 c 1
 286.25390625 143.375976562 291.328125 103.237304688 293.54296875 86 c 0
 294.16015625 81.1962890625 390.74609375 83.083984375 384.841796875 86.73046875 c 1
 381.450195312 -6.1396484375 l 1
 328.7109375 4.2001953125 262.025390625 5.1826171875 222.008789062 5.1826171875 c 3
 172.520507812 5.1826171875 148.951171875 6.439453125 73.154296875 -9.623046875 c 1
 48.17578125 76.41796875 l 1
 101.54296875 85 116.29296875 84.1015625 116.305664062 90.9384765625 c 0
 116.364257812 122.513671875 116.982421875 135.915039062 116.982421875 178.797851562 c 3
 116.982421875 332.600585938 113.028320312 527.391601562 102.348632812 594.033203125 c 0
 101.616210938 596.254882812 83.650390625 603.305664062 37.8427734375 593.35546875 c 1
 40.6708984375 681.0859375 l 1
EndSplineSet
Position2: "cpsp-1" dx=0 dy=0 dh=50 dv=100
Substitution2: "c2pc-1" p.pcap
Substitution2: "c2sc-1" p.smcp
EndChar
StartChar: Q
Encoding: 81 81 42
Width: 801
Flags: HW
HStem: -156.843 91.8779<675.148 778.791> 611.898 81.1875<299.365 462.663>
VStem: 42.166 158.359<259.167 470.85> 589.13 155.762<223.497 458.508>
AnchorPoint: "Bottom" 321 -15 basechar 0
AnchorPoint: "Top" 394 679 basechar 0
LayerCount: 2
Fore
SplineSet
366.779296876 611.8984375 m 3
 280.766788671 611.8984375 200.525390624 518.859956011 200.525390624 395.349609376 c 3
 200.525390624 188.023683067 325.716807223 83.484375 413.935546876 83.484375 c 3
 536.82749784 83.484375 589.130111524 174.707941645 589.130111524 299.79864453 c 3
 589.130111524 542.221932572 481.874071876 611.8984375 366.779296876 611.8984375 c 3
566 42 m 1
 617.589149026 -30.1984563129 710.462064559 -64.96484375 756.12109375 -64.96484375 c 3
 766.126298873 -64.96484375 774.60241762 -65.064618331 779 -65.11328125 c 1
 803.794921875 -135.875976562 l 1
 788.725585938 -144.470703125 759.689453125 -156.842773438 724 -156.842773438 c 3
 591.908734511 -156.842773438 474.410730215 -102.304524641 370.78125 -17.869140625 c 1
 148.587890624 18.130859375 42.166015625 147.35828324 42.166015625 347.860351562 c 3
 42.166015625 547.921875 194.544921875 693.0859375 389.2421875 693.0859375 c 3
 584.94921875 693.0859375 744.892221387 547.595829894 744.892221387 356.77445 c 3
 744.892221387 214.306591376 678.68110268 87.0980073554 566 42 c 1
EndSplineSet
Position2: "cpsp-1" dx=0 dy=0 dh=50 dv=100
Substitution2: "salt-1" Q.alt
Substitution2: "c2pc-1" q.pcap
Substitution2: "c2sc-1" q.smcp
EndChar
StartChar: R
Encoding: 82 82 43
Width: 800
Flags: HMW
LayerCount: 2
Fore
SplineSet
285.78444375 328.388428125 m 1
 311.513575585 327.388428125 285.245191114 326.605 313.366510352 326.605 c 3
 435.835918346 326.605 435.97265625 385.166015625 435.97265625 470.3359375 c 3
 435.97265625 541.971679688 388.098710269 604.758789062 356.282226562 604.758789062 c 3
 314.127342071 604.758789062 288.494208361 593.368323876 287.293945312 586.474609375 c 0
 284.208570612 568.753750337 286.171318528 399.946931381 285.78444375 328.388428125 c 1
71.83203125 674.602539062 m 1
 114.921875 673.602539062 140.897460938 672.602539062 178.936523438 672.602539062 c 1
 238.501953125 672.602539062 264.133789062 693.171875 334.538085938 693.171875 c 1
 464.814453125 693.171875 592.161132812 608.592773438 592.161132812 484.75390625 c 1
 592.161132812 393.384733913 541.888989356 331.073281659 494.633310938 297.646915625 c 1
 613.060670896 108.124625916 667.681840887 57.9113218421 788.591796875 54.5048828125 c 1
 770.280273438 -29.4833984375 l 1
 603.153611708 -25.808700635 433.449969079 120.735012948 362.150285938 249.0235625 c 1
 348.91170873 249.246539678 345.255421061 249.367235938 332.717443945 249.367235938 c 1
 297.298990296 249.367235938 307.223929735 251.866006262 286.78444375 252.453398438 c 1
 288.47183971 190.596784894 292.167200055 157.823615342 294.063476562 104.333007812 c 0
 294.455346545 93.2790484425 336.453727908 89.9676383948 353.473632812 91.7626953125 c 1
 334.989257812 -8.0537109375 l 1
 288.778995299 1.5224609375 240.786696673 6.4423828125 191.40234375 6.4423828125 c 3
 157.494140625 6.4423828125 122.76171875 1.984375 87.40234375 -7.1396484375 c 1
 71.181640625 92.009765625 l 1
 95 93 125 96 135.333984375 97.65625 c 1
 139.868164062 207.228515625 141.381364282 262.652870527 141.381364282 339.421918861 c 3
 141.381364282 420.562600511 139.655273438 472.89453125 137.860351562 577.359375 c 1
 136.116210938 592.557617188 123.78515625 590.614257812 71.83203125 592.614257812 c 1
 71.83203125 674.602539062 l 1
EndSplineSet
Position2: "cpsp-1" dx=0 dy=0 dh=50 dv=100
Substitution2: "salt-1" R.alt
Substitution2: "c2pc-1" r.pcap
Substitution2: "c2sc-1" r.smcp
EndChar
StartChar: S
Encoding: 83 83 2429
Width: 587
Flags: HW
HStem: -12.3975 100.39<217.312 376.509> 0.688477 21G<71.2823 145.69> 595.059 91.9414<234.027 378.416>
VStem: 80.1817 138.125<488.061 574.338> 393.383 137.617<104.9 246.056>
AnchorPoint: "Bottom" 308.289 -15 basechar 0
AnchorPoint: "Top" 314.289 679 basechar 0
LayerCount: 2
Fore
SplineSet
50.7548828125 197.615234375 m 1x78
 131.2890625 208 l 1
 144.2890625 185 164.848632812 143.387695312 174.265625 136.123046875 c 0
 221.719726562 99.517578125 272.928710938 87.9921875 325.927734375 87.9921875 c 3
 370.779296875 87.9921875 393.3828125 114.176757812 393.3828125 160.984375 c 3
 393.3828125 215.416015625 282.786132812 269.618164062 189.1328125 320.734375 c 0
 173.33203125 329.358398438 80.181640625 370.625976562 80.181640625 495.580078125 c 3
 80.181640625 589.249023438 169.73828125 687 309.369140625 687 c 3
 368.483398438 687 403.754882812 680 428.754882812 666 c 0
 431.513671875 664.455078125 432.494140625 662.508789062 439.2265625 680.7421875 c 1
 511.30078125 665.34375 l 1
 499.2890625 632.024414062 497.450195312 614.981445312 501.021484375 596.448242188 c 0
 512.2109375 538.37890625 520.768554688 494.7265625 428.2890625 501 c 1
 422.077148438 526.953125 396.802734375 558.388671875 384.881835938 568.387695312 c 0
 353.251953125 594.91796875 329.01953125 595.05859375 290.9375 595.05859375 c 3
 254.524414062 595.05859375 218.306640625 574.8203125 218.306640625 542.490234375 c 3
 218.306640625 467.078125 267.216796875 478.086914062 414.2890625 396 c 0
 500.2890625 348 531 287.009765625 531 204.71875 c 3
 531 103.874023438 470.642578125 -12.3974609375 293.01171875 -12.3974609375 c 3xb8
 253.662109375 -12.3974609375 203.84765625 -0.95703125 158.48046875 19.51171875 c 1
 158.497070312 13.955078125 149.0234375 10.7060546875 142.356445312 0.6884765625 c 1
 71.2822265625 7.4306640625 l 1
 74.6396484375 78.44921875 71.1640625 90.3740234375 50.7548828125 197.615234375 c 1x78
EndSplineSet
Position2: "cpsp-1" dx=0 dy=0 dh=50 dv=100
Substitution2: "c2pc-1" s.pcap
Substitution2: "c2sc-1" s.smcp
EndChar
StartChar: T
Encoding: 84 84 2437
Width: 724
Flags: HW
HStem: -15.1064 30.4834G<180.381 212.166 529.458 548.598> 513.303 21G<45.3972 120.287 593.583 693.912> 589.949 89.7237<125.661 289.698 463.184 609.468>
VStem: 280.458 169.722<98.7811 438.098> 287.589 175.595<248.051 588.587> 593.583 98.5997<526.27 583.233>
AnchorPoint: "Bottom" 374.641 -15 basechar 0
AnchorPoint: "Top" 374.641 679 basechar 0
LayerCount: 2
Fore
SplineSet
170.032226562 679.672851562 m 0xec
 288.111328125 680.009765625 411.749023438 677.56640625 533.940429688 677.56640625 c 3
 564.147460938 677.56640625 582.22265625 677.801757812 611.9921875 678.171875 c 0
 635.180664062 678.459960938 643.939453125 694.649414062 653.859375 706.967773438 c 1
 729.926757812 671.032226562 l 1
 712.151367188 623.784179688 695.640625 570 692.182617188 513.302734375 c 1
 593.583007812 526.26953125 l 1
 593.342773438 517.540039062 614.208007812 596.559570312 609.467773438 583.559570312 c 1
 590.336914062 584.014648438 507.959960938 587.42578125 463.18359375 588.586914062 c 1xec
 459.513671875 453.127929688 450.1796875 300.447265625 450.1796875 162.368164062 c 3
 450.1796875 153.911132812 450.93359375 138.6484375 450.877929688 133.021484375 c 0
 450.5625 101.256835938 453.640625 93 556.08203125 90.041015625 c 1
 546.619140625 -5.623046875 l 1
 512.295898438 3.5576171875 467.4765625 7.771484375 421.251953125 7.771484375 c 3
 333.583007812 7.771484375 242.247070312 -0.517578125 182.084960938 -15.1064453125 c 1
 173.5625 84.90234375 l 1
 258.640625 91 279.700195312 78.8544921875 280.458007812 107.837890625 c 0xf4
 282.689453125 193.203125 287.588867188 392.263671875 287.588867188 526.354492188 c 3
 287.588867188 553.487304688 288.068359375 575.845703125 289.697265625 591.0859375 c 1
 263.75 590.549804688 223.760742188 590.1875 196.99609375 589.94921875 c 1
 134.283203125 589.006835938 140.114257812 603.926757812 100.459960938 515.693359375 c 1
 2 551.456054688 l 1
 26.8193359375 598.3515625 58.984375 679.446289062 80.8408203125 720.225585938 c 1
 114.307617188 702.905273438 148.86328125 679.6015625 170.032226562 679.672851562 c 0xec
EndSplineSet
Position2: "cpsp-1" dx=0 dy=0 dh=50 dv=100
Substitution2: "c2pc-1" t.pcap
Substitution2: "c2sc-1" t.smcp
EndChar
StartChar: U
Encoding: 85 85 2445
Width: 816
Flags: HW
HStem: -13.3975 114.397<352.95 535.729> 596.098 89.9023<50.2181 109.116 715.645 776.277>
VStem: 113.828 166.208<169.607 590.806> 606.912 109.298<178.865 588.122>
AnchorPoint: "Bottom" 420.346 -15 basechar 0
AnchorPoint: "Top" 423.346 679 basechar 0
LayerCount: 2
Fore
SplineSet
50.7421875 686 m 1
 80.8818359375 681.358398438 128.602539062 678.908203125 177.334960938 678.908203125 c 3
 229.473632812 678.908203125 282.490234375 680.900390625 322.157226562 685.0859375 c 1
 323.727539062 601.18359375 l 1
 288.771484375 602.904296875 280.014648438 609.982421875 276.928710938 591.233398438 c 0
 274.547851562 576.764648438 278.345703125 343 280.036132812 266.7421875 c 0
 280.82421875 231.185546875 288.797851562 193.370117188 296.791015625 177.181640625 c 0
 324.185546875 121.698242188 384.319335938 101 460.345703125 101 c 3
 506.173828125 101 550.228515625 121.79296875 575.0234375 159.353515625 c 0
 592.020507812 185.1015625 600.780273438 217.8828125 606.912109375 262.6875 c 0
 614.345703125 317 610.8359375 491.44140625 609.90625 575.21484375 c 0
 609.708984375 593.00390625 594.345703125 595 530.83984375 595.26953125 c 1
 532.83984375 686.171875 l 1
 566.514648438 680.79296875 623.358398438 676.318359375 674.1328125 676.318359375 c 3
 718.412109375 676.318359375 758.18359375 681.497070312 775.911132812 686.9140625 c 1
 781.65234375 590.442382812 l 1
 728.345703125 585.49609375 711.399414062 596.336914062 714.345703125 561 c 0
 715.31640625 549.360351562 719.560546875 447.427734375 716.209960938 262.171875 c 0
 714.7890625 183.61328125 687.909179688 125.456054688 647.721679688 77.8818359375 c 0
 595.357421875 15.8935546875 514.833984375 -13.3974609375 419.572265625 -13.3974609375 c 3
 303.275390625 -13.3974609375 224.58203125 22.341796875 172.991210938 78.3115234375 c 0
 133.435546875 121.225585938 117.791015625 177.635742188 113.828125 245.9140625 c 0
 111.881835938 279.455078125 113.100585938 565.138671875 109.412109375 579.334960938 c 0
 106.228515625 591.587890625 95.1875 591.09375 43 596.09765625 c 1
 50.7421875 686 l 1
EndSplineSet
Position2: "cpsp-1" dx=0 dy=0 dh=50 dv=100
Substitution2: "c2pc-1" u.pcap
Substitution2: "c2sc-1" u.smcp
EndChar
StartChar: V
Encoding: 86 86 2471
Width: 756
Flags: HW
HStem: -9.71289 21G<339.525 424.795> 588.991 96.127<507.211 566.175> 591.249 93.3857<265.626 294.696 696.093 747.322> 602.658 86.7188<10.736 70.7803>
AnchorPoint: "Bottom" 389.155 -15 basechar 0
AnchorPoint: "Top" 390.155 679 basechar 0
LayerCount: 2
Fore
SplineSet
307.524414062 684.634765625 m 1xa0
 294.696289062 591.249023438 l 1xa0
 283.833984375 591.658203125 261.784179688 595.565429688 265.794921875 594.083984375 c 0
 257.869140625 590.499023438 258.62890625 587.583984375 261.6953125 579.18359375 c 1
 260.752929688 571.79296875 420.155273438 216 427.129882812 199.177734375 c 1
 436.155273438 222 559.680664062 562.661132812 565.71484375 569.581054688 c 1
 575.7421875 576.686523438 573.274414062 580.875976562 565.413085938 582.600585938 c 0
 553.309570312 585.508789062 520.639648438 585.844726562 505.296875 588.991210938 c 1
 507.2109375 685.118164062 l 1xc0
 541.075195312 676.59375 583.2734375 676.23046875 627.521484375 676.23046875 c 3
 674.149414062 676.23046875 728.4765625 680.361328125 747.057617188 688.860351562 c 1
 756.627929688 584.474609375 l 1
 708.861328125 572.872070312 671.75 564.84765625 670.283203125 557.893554688 c 1
 651.311523438 524.856445312 503.7265625 208.010742188 447.2578125 58.828125 c 0
 438.09375 34.689453125 430.515625 14.46875 424.794921875 -8.798828125 c 1
 342.94921875 -9.712890625 l 1
 336.1015625 18.2568359375 332.091796875 20.6044921875 319.225585938 54.9140625 c 0
 278.986328125 162.424804688 154.502929688 377.256835938 77.5927734375 571.3671875 c 0
 65.623046875 601.885742188 52.2919921875 595.981445312 0 602.658203125 c 1
 11.6787109375 689.376953125 l 1x90
 72.83203125 679.705078125 122.635742188 676.552734375 162.583984375 676.552734375 c 3
 205.213867188 676.552734375 244.680664062 681.36328125 307.524414062 684.634765625 c 1xa0
EndSplineSet
Position2: "cpsp-1" dx=0 dy=0 dh=50 dv=100
Substitution2: "c2pc-1" v.pcap
Substitution2: "c2sc-1" v.smcp
EndChar
StartChar: W
Encoding: 87 87 2472
Width: 1038
Flags: HW
HStem: -8.39746 20.1719G<299.44 392.718 660.083 754.375> 596 93.6758<262.727 288.677 397.626 445.72> 611.885 77.8037<990.003 1029.63>
VStem: 305.706 85.5908<-8.39746 55.3772>
AnchorPoint: "Bottom" 498 -15 basechar 0
AnchorPoint: "Top" 530 679 basechar 0
LayerCount: 2
Fore
SplineSet
1028.40820312 689.688476562 m 1xb0
 1042 611.884765625 l 1xb0
 976.88671875 571.719726562 985.862304688 617.173828125 947.125976562 527.689453125 c 1
 851.026367188 269.233398438 820.126953125 179.657226562 775.557617188 46.828125 c 0
 766.380859375 19.4775390625 765.40625 18.267578125 754.375 -6.3974609375 c 1
 659.383789062 -9.2255859375 l 1
 660.783203125 12 657.783203125 40 648.395507812 66.4833984375 c 0
 610.693359375 172.842773438 562.982421875 283.5390625 530.614257812 389.409179688 c 1
 461.258789062 212.662109375 402.172851562 45.0283203125 399.466796875 36.3974609375 c 0
 394.763671875 21.3955078125 394.140625 8.5732421875 391.296875 -8.3974609375 c 1
 305.706054688 -8.3974609375 l 1
 293.173828125 29.4287109375 291.415039062 35.662109375 265.016601562 110.256835938 c 0
 181.013671875 347.626953125 98.8603515625 542.9921875 94.4228515625 552.151367188 c 0
 92.3310546875 556.469726562 78.5732421875 572.975585938 68.783203125 579 c 0
 55.783203125 587 31.0234375 590.513671875 1.515625 591.744140625 c 1
 15.4609375 691.516601562 l 1
 41.44140625 680.709960938 85.787109375 675.833984375 130.362304688 675.833984375 c 3
 190.678710938 675.833984375 251.3046875 684.317382812 287.69921875 689.67578125 c 1
 300.783203125 596 l 1xd0
 272.783203125 593 262.783203125 591 261.842773438 569.248046875 c 1
 261.842773438 562.483398438 262.872070312 554.561523438 265.529296875 545.763671875 c 1
 276.783203125 499 380.783203125 227 391.685546875 189.58984375 c 1
 397.458007812 205.361328125 496.63671875 449.573242188 499.438476562 460 c 1
 464.619140625 563.53125 437.969726562 585.34375 430.783203125 593 c 1
 428.783203125 594 400.931640625 595.58203125 389.89453125 593.916015625 c 1
 398.236328125 686.602539062 l 1
 422.788085938 680.682617188 473.008789062 677.338867188 510.4296875 677.338867188 c 3
 549.709960938 677.338867188 635.419921875 680.102539062 665.853515625 688.602539062 c 1
 674.423828125 597.130859375 l 1
 659.9296875 600.719726562 639.783203125 599 633.783203125 599 c 0
 624.727539062 599 623.072265625 593.815429688 623.072265625 582.787109375 c 3
 623.072265625 567.983398438 753.016601562 193.234375 757.7421875 178.133789062 c 1
 801.627929688 307.458984375 827.509765625 409.314453125 843.078125 517.556640625 c 0
 850.6875 570.461914062 825.783203125 597 779.84375 598.752929688 c 1
 782.938476562 684.688476562 l 1
 806.591796875 679.505859375 855.170898438 676.803710938 891.7734375 676.803710938 c 3
 934.420898438 676.803710938 982.883789062 680.930664062 1028.40820312 689.688476562 c 1xb0
EndSplineSet
Position2: "cpsp-1" dx=0 dy=0 dh=50 dv=100
Substitution2: "c2pc-1" w.pcap
Substitution2: "c2sc-1" w.smcp
EndChar
StartChar: X
Encoding: 88 88 2477
Width: 690
Flags: HW
HStem: -5.31152 84.1396<223.376 257.585 637.51 672.789> 2.12402 76.7041<119.441 232.854> 591.951 92.2539<399.02 438.966> 614.872 68.0742<580.955 634.013>
AnchorPoint: "Bottom" 342.457 -15 basechar 0
AnchorPoint: "Top" 340.457 679 basechar 0
LayerCount: 2
Fore
SplineSet
12.2353515625 682.946289062 m 1x50
 58.7216796875 680.465820312 94.8056640625 678.719726562 121.5546875 678.719726562 c 3
 169.045898438 678.719726562 206.609375 680.685546875 275.504882812 687.774414062 c 1
 275.333007812 609.043945312 l 1
 267.73828125 604.302734375 261.704101562 602.125976562 251.279296875 598.560546875 c 0
 248.217773438 597.838867188 253.806640625 577.178710938 248.73046875 584.323242188 c 1
 247.916992188 588.727539062 361.536132812 423.015625 363.4375 421.453125 c 1
 372.629882812 440.022460938 422.668945312 536.881835938 436.091796875 565.216796875 c 0
 442.953125 576.469726562 450.37109375 590.041992188 438.966796875 591.951171875 c 1
 428.388671875 594.341796875 399.091796875 596.249023438 388.577148438 612.388671875 c 1
 400.146484375 684.205078125 l 1
 426.361328125 679.157226562 477.982421875 676.881835938 502.745117188 676.881835938 c 3
 553.444335938 676.881835938 577.484375 680.555664062 633.801757812 687.205078125 c 1
 639.45703125 609.216796875 l 1
 601.359375 601.982421875 568.208007812 599.012695312 526.490234375 546.744140625 c 0
 520.27734375 539.198242188 512.734375 518.358398438 401.828125 378.525390625 c 1
 421.211914062 351.615234375 581.161132812 163.87109375 596.18359375 144.833984375 c 1
 634.951171875 97.44921875 654.600585938 79.8583984375 688 77.6767578125 c 1
 671.602539062 -6.3115234375 l 1
 643.931640625 1.06640625 610.091796875 4.5029296875 575.454101562 4.5029296875 c 3
 509.732421875 4.5029296875 441.900390625 -0.01953125 391.73046875 -8.1396484375 c 1
 388.989257812 70.6767578125 l 1
 401.322265625 75.873046875 416.524414062 77.546875 425.022460938 78.5830078125 c 0
 441.8515625 82.1318359375 440.109375 88.8037109375 434.774414062 97.1123046875 c 0
 374.77734375 199.810546875 332.107421875 268.233398438 322.234375 284.818359375 c 1
 291.03125 234.225585938 242.446289062 132.110351562 221.55859375 89.1181640625 c 1
 223.767578125 93.310546875 226.4140625 78.6513671875 232.853515625 78.828125 c 0
 243.396484375 79.3076171875 246.947265625 81.896484375 258.1015625 74.24609375 c 1
 259.2734375 -5.3115234375 l 1xa0
 206.106445312 -0.8427734375 162.696289062 2.1240234375 119.440429688 2.1240234375 c 3
 86.5302734375 2.1240234375 53.7373046875 -0.591796875 14.392578125 -7.3115234375 c 1
 13.478515625 60.9345703125 l 1
 15.7900390625 66.6640625 71.6806640625 87.5927734375 117.13671875 128.2421875 c 0
 124.264648438 132.416015625 151.793945312 169.012695312 275.98046875 327.041015625 c 1
 79.3798828125 561.390625 65.8203125 585.440429688 52.255859375 595.970703125 c 0
 24.0078125 614.296875 -18.447265625 611.653320312 11.2353515625 614.872070312 c 1
 12.2353515625 682.946289062 l 1x50
EndSplineSet
Position2: "cpsp-1" dx=0 dy=0 dh=50 dv=100
Substitution2: "c2pc-1" x.pcap
Substitution2: "c2sc-1" x.smcp
EndChar
StartChar: Y
Encoding: 89 89 2479
Width: 658
Flags: HW
HStem: -10.5371 93.9883<185.344 251.51> 588.943 88.4482<481.463 568.322> 667.688 19.0859G<8.22709 29.6395 243.723 256.917 450.943 464.298 636.918 649.389>
VStem: 275.074 155.711<107.061 290.945>
AnchorPoint: "Bottom" 353.939 -15 basechar 0
AnchorPoint: "Top" 345.939 679 basechar 0
LayerCount: 2
Fore
SplineSet
264.74609375 592.055664062 m 1xb0
 246.2265625 597.807617188 252.921875 582.270507812 246.91796875 583.658203125 c 0
 250.369140625 584.243164062 234.647460938 566.12109375 229.541015625 574.1953125 c 1
 266.200195312 474.836914062 342.993164062 399.883789062 364.833984375 372.53515625 c 1
 397.49609375 427.125976562 492.390625 596.93359375 487.365234375 576.168945312 c 1
 491.068359375 580.765625 493.315429688 588.814453125 481.463867188 588.943359375 c 0
 475.161132812 588.650390625 455.809570312 588.470703125 445.590820312 595.130859375 c 1
 452.418945312 687.688476562 l 1
 476.178710938 682.697265625 521.875976562 677.391601562 568.322265625 677.391601562 c 3xd0
 597.228515625 677.391601562 626.379882812 682.545898438 647.45703125 689.430664062 c 1
 657.45703125 585.958007812 l 1
 648.637695312 603.771484375 611.966796875 579.418945312 600.44140625 564.865234375 c 1
 518.180664062 510.822265625 458.015625 409.017578125 430.78515625 319.1796875 c 1
 429.455078125 276.725585938 429.654296875 232.584960938 436.251953125 116.828125 c 0
 437.318359375 98.12109375 524.555664062 75.13671875 535.510742188 83.1064453125 c 1
 526.854492188 -6.1396484375 l 1
 461.772460938 0.0078125 401.239257812 4.46484375 340.84375 4.46484375 c 3
 288.002929688 4.46484375 235.26953125 0.2900390625 178.870117188 -10.537109375 c 1
 158.385742188 83.451171875 l 1
 195.251953125 75.98046875 266.493164062 113.049804688 267.07421875 123.017578125 c 1
 267.39453125 125.849609375 268.931640625 262.673828125 270.865234375 265.361328125 c 1
 248.390625 295.509765625 172.264648438 447.90625 45.986328125 565.826171875 c 1
 44.0634765625 573.146484375 -8.107421875 587.234375 3.751953125 600.614257812 c 1
 9.580078125 686.774414062 l 1
 49.69921875 682.66796875 109.959960938 677.553710938 164.4921875 677.553710938 c 3
 199.860351562 677.553710938 232.658203125 679.666015625 254.7890625 685.602539062 c 1
 264.74609375 592.055664062 l 1xb0
EndSplineSet
Position2: "cpsp-1" dx=0 dy=0 dh=50 dv=100
Substitution2: "c2pc-1" y.pcap
Substitution2: "c2sc-1" y.smcp
EndChar
StartChar: Z
Encoding: 90 90 58
Width: 724
VWidth: 1159
Flags: W
HStem: 3.19336 69.0098<262.75 498.281> 511.111 21G<36.8085 113.221> 587.898 91.6543<151.522 425.328>
AnchorPoint: "Bottom" 360 -15 basechar 0
AnchorPoint: "Top" 372 679 basechar 0
LayerCount: 2
Back
SplineSet
31.9375 532.66796875 m 5
 66.6681328572 608.634724945 66.9650050209 738.806368477 131.19921875 728.041015624 c 5
 144.988858431 707.259438514 181.649179494 679.464121995 164.526367188 679.552734375 c 4
 212.770811315 677.791782933 547.737915334 670.591895562 641.94921875 681.115234375 c 4
 652.080966641 682.210356088 651.559032914 681.097984917 653.802734375 680.725585938 c 5
 684.512695312 640.358398438 l 5
 685.319506335 640.768068655 679.900583148 633.469000829 678.966796875 633.669921875 c 4
 734.45110157 704.463024846 270.277599689 74.0548324949 262.75 72.203125 c 5
 322.927274697 74.4140625 423.466175535 82.5314298404 431.6875 83.021484375 c 4
 582.795554659 93.0364929396 597 123 634.034179688 211.815429688 c 5
 706.880859376 177.044921876 l 5
 660.848259878 69.3697767154 643.635167673 14.608030372 605.94140625 -39.58984375 c 5
 564.650916773 -15.1439830257 564.600585647 5.01756623552 451.939453124 3.193359375 c 4
 346.404461443 1.60507866624 117.955501347 6.33020619877 60.580078125 -0.3115234375 c 5
 36.52734375 60.193359375 l 5
 73.4695126108 80.7007358984 103.079348808 111.047914829 128.169921875 143.451171875 c 5
 235.073763429 284.411342505 348.283944496 455.799200125 454.728515624 597.443359376 c 5
 454.781172934 597.404088087 457.814453124 601.443359376 457.814453124 601.443359376 c 5
 439.880098192 597.460743536 178.613859968 588.990917806 169.44921875 587.8984375 c 5
 148.486727607 585.111461016 127.049131519 563.761244781 99.392578125 511.111328124 c 5
 31.9375 532.66796875 l 5
EndSplineSet
Fore
SplineSet
31.9375 532.66796875 m 1
 66.6681328572 605.524090908 62.9650050209 716.365556277 131.19921875 720.041015625 c 1
 154.091709626 702.688155982 163.119401466 680.102372294 186.526367188 679.552734375 c 0
 232.563892211 678.284788702 551.992702676 671.392002509 641.94921875 681.115234375 c 0
 652.080966641 682.210356088 651.559032914 681.097984917 653.802734375 680.725585938 c 1
 684.512695312 640.358398438 l 1
 685.319506335 640.768068655 678.377592006 632.918148177 678.966796875 633.669921875 c 0
 734.45110157 704.463024846 270.277599689 74.0548324949 262.75 72.203125 c 1
 322.927274697 74.4140625 423.469612373 82.4768263477 431.6875 83.021484375 c 0
 582.795554659 93.0364929396 597 123 634.034179688 211.815429688 c 1
 706.880859376 177.044921876 l 1
 660.848259878 69.3697767154 643.635167673 14.608030372 605.94140625 -39.58984375 c 1
 564.650916773 -15.1439830257 564.602595257 4.88891733533 451.939453124 3.193359375 c 0
 346.404461443 1.60507866624 117.955501347 6.33020619877 60.580078125 -0.3115234375 c 1
 36.52734375 60.193359375 l 1
 73.4695126108 80.7007358984 103.079348808 111.047914829 128.169921875 143.451171875 c 1
 235.073763429 284.411342505 348.283944496 455.799200125 454.728515624 597.443359376 c 1
 454.781172934 597.404088087 457.814453124 601.443359376 457.814453124 601.443359376 c 1
 439.880098192 597.460743536 178.613859968 588.990917806 169.44921875 587.8984375 c 1
 148.486727607 585.111461016 127.049131519 563.761244781 99.392578125 511.111328124 c 1
 31.9375 532.66796875 l 1
EndSplineSet
Validated: 37
Position2: "cpsp-1" dx=0 dy=0 dh=50 dv=100
Substitution2: "c2pc-1" z.pcap
Substitution2: "c2sc-1" z.smcp
EndChar
StartChar: bracketleft
Encoding: 91 91 85
Width: 246
Flags: HW
VStem: 37 182<-177 -92.1621 634.162 717> 37 94.1582<-67.1016 607.102>
LayerCount: 2
Fore
SplineSet
131.158203124 607.1015625 m 1x40
 131.158203124 -67.1015625 l 1x40
 219 -92.162109376 l 1
 219 -177 l 1
 37 -177 l 1
 37 717 l 1
 219 717 l 1
 219 634.162109376 l 1x80
 131.158203124 607.1015625 l 1x40
EndSplineSet
Position2: "cpsp-1" dx=0 dy=0 dh=50 dv=100
Position2: "'case' vertical ajustments for all-caps-1" dx=0 dy=90 dh=0 dv=0
EndChar
StartChar: asciicircum
Encoding: 94 94 872
Width: 463
VWidth: 1159
Flags: W
HStem: 374 322
LayerCount: 2
Fore
SplineSet
424 401 m 1
 369 374 l 1
 232 494 l 1
 93 374 l 1
 40 401 l 1
 204 696 l 1
 258 696 l 1
 424 401 l 1
EndSplineSet
Validated: 1
EndChar
StartChar: a
Encoding: 97 97 0
Width: 512
Flags: HMW
AnchorPoint: "Top" 267 537 basechar 0
AnchorPoint: "Ogonek" 397 18 basechar 0
AnchorPoint: "Bottom" 267 -15 basechar 0
LayerCount: 2
Fore
SplineSet
287 245 m 1
 286 246 283 248 281 248 c 1
 278 248 275.366210938 248.669921875 269 248 c 0
 222.133789062 243.154296875 195 209.609375 195 185 c 3
 195 133.783203125 217.551757812 96 285 96 c 3
 289.263671875 96 290.920898438 98.625 290 103 c 1
 287 114.887695312 286 158.774414062 286 194 c 3
 286 214.147460938 288 233.666992188 287 245 c 1
281 525 m 3
 312.83984375 525 388.65234375 468.158203125 406 441 c 0
 419 417 418 386 418 367 c 1
 418 294.143554688 416 194.142578125 416 127 c 3
 416 100.428710938 436.091796875 94.837890625 443 91 c 0
 444.887695312 89.951171875 450.571289062 89 453 89 c 3
 459.071289062 89 485.786132812 91 487 91 c 1
 485 26 l 1
 468.7421875 19.052734375 417.2578125 -7 401 -7 c 3
 372.544921875 -7 346.62109375 11.931640625 326 27 c 1
 271.717773438 2.08203125 225.190429688 -10 168 -10 c 3
 71 -10 59 56 59 112 c 1
 59 139.280273438 60 180.640625 71 200 c 1
 77 216 88 228 99 233 c 1
 191.879882812 296.428710938 211.330078125 291.142578125 288 307 c 1
 288 335 l 1
 288 360.338867188 282.63671875 373.553710938 277 387 c 1
 272.326171875 391.565429688 241.9375 420 226 420 c 3
 220.88671875 420 211 419.125 211 406 c 0
 212 400.077148438 212 395 212 395 c 1
 77 350 l 1
 77 350.875 68 370.125 68 385 c 3
 68 409 83.380859375 439.509765625 108 459 c 0
 131.326171875 478 233.375976562 525 281 525 c 3
EndSplineSet
Substitution2: "case-1" A
Substitution2: "pcap-1" a.pcap
Substitution2: "smcp-1" a.smcp
EndChar
StartChar: b
Encoding: 98 98 189
Width: 566
Flags: HMW
AnchorPoint: "Bottom" 257 -15 basechar 0
AnchorPoint: "Top" 159 720 basechar 0
LayerCount: 2
Fore
SplineSet
196 399 m 1
 199 318 199 324 200 203 c 1
 200 200 203 187 204 186 c 1
 230 112 300 84 328 84 c 3
 380 84 398 120 398 174 c 3
 398 259 343 402 210 402 c 3
 202 402 200 402 196 399 c 1
14 676 m 1
 80 678 138 704 202 744 c 1
 246 714 l 1
 236 689 224.170898438 656.853515625 220 641 c 0
 208 595 199 546 197 469 c 1
 233 489 262 500 309 500 c 3
 405 500 522 373 522 269 c 3
 522 116 403 -11 255 -11 c 3
 174 -11 162 8 151 8 c 1
 141 8 124 1 99 -17 c 1
 47 9 l 1
 47 10 56 41 59 48 c 1
 61.3330078125 64 74.005859375 97.0078125 75 149 c 0
 76.6572265625 235.618164062 79 288.377929688 79 375 c 3
 79 484.063476562 75.9755859375 509.604492188 64 581 c 0
 60.765625 600.21484375 50.6943359375 608.802734375 40 609 c 1
 34.9013671875 609.455078125 30.0458984375 609.237304688 27 610 c 1
 14 676 l 1
EndSplineSet
Substitution2: "case-1" B
Substitution2: "pcap-1" b.pcap
Substitution2: "smcp-1" b.smcp
EndChar
StartChar: c
Encoding: 99 99 203
Width: 468
Flags: HMW
AnchorPoint: "Top" 262 537 basechar 0
AnchorPoint: "Bottom" 253 -15 basechar 0
LayerCount: 2
Fore
SplineSet
319 324 m 1
 313.767578125 331.901367188 246.732421875 402 205 402 c 3
 162.375 402 166 367.350585938 166 317 c 3
 166 249.885742188 181.25 112 317 112 c 3
 347 112 356.158203125 122.791015625 377 141 c 1
 431 56 l 1
 382.30078125 24 326.349609375 -10 259 -10 c 3
 199.903320312 -10 30 39.720703125 30 230 c 3
 30 389 143.46875 516 279 516 c 3
 344.571289062 516 409.1015625 485 432 464 c 1
 408.458007812 367.19140625 425.72265625 374.638671875 319 324 c 1
EndSplineSet
Substitution2: "case-1" C
Substitution2: "pcap-1" c.pcap
Substitution2: "smcp-1" c.smcp
EndChar
StartChar: d
Encoding: 100 100 244
Width: 561
Flags: HMW
AnchorPoint: "Bottom" 258 -15 basechar 0
AnchorPoint: "Top" 390 732 basechar 0
LayerCount: 2
Fore
SplineSet
200 402 m 3
 194.176757812 402 183.879882812 394.494140625 180 390 c 0
 174.3671875 384.314453125 164 375.100585938 164 365 c 3
 164 216.42578125 224.293945312 94 354 94 c 3
 358.625 94 364 94 366 94 c 1
 367.333007812 144.213867188 367.333007812 210.463867188 362 260 c 1
 358.494140625 310.13671875 335.774414062 361.345703125 280 383 c 0
 255.579101562 393.432617188 217.5234375 402 200 402 c 3
361 18 m 1
 330.653320312 3.142578125 291.979492188 -10 247 -10 c 3
 122 -10 38 103 38 230 c 3
 38 320 84.1083984375 418.8203125 149 458 c 0
 202 490 251 500 310 500 c 3
 321.767578125 500 341.208984375 494.428710938 354 496 c 1
 351 518.990234375 345.666992188 540.859375 340 556 c 1
 331.754882812 578 320.853515625 588 301 588 c 3
 300.518554688 588 298 588 293 588 c 1
 276 654 l 1
 330 666 423 703 463 743 c 1
 511 713 l 1
 506 698 496.682617188 670.0390625 495 655 c 0
 479 512 479 347 479 190 c 3
 479 167.48828125 480 127.295898438 485 108 c 1
 487.708007812 89.0556640625 504.530273438 77.05859375 524 77 c 0
 529.540039062 76.9833984375 532.122070312 77.0908203125 534 77 c 1
 535 6 l 1
 499.079101562 0.3076171875 448.420898438 -27 430 -27 c 3
 413.424804688 -27 395.98046875 -23.6787109375 379 -8 c 0
 371.799804688 -0.12109375 364.599609375 10.9091796875 361 18 c 1
EndSplineSet
Substitution2: "case-1" D
Substitution2: "pcap-1" d.pcap
Substitution2: "smcp-1" d.smcp
EndChar
StartChar: e
Encoding: 101 101 268
Width: 513
Flags: HMW
AnchorPoint: "Bottom" 251 -15 basechar 0
AnchorPoint: "Ogonek" 393 18 basechar 0
AnchorPoint: "Top" 280 537 basechar 0
LayerCount: 2
Back
SplineSet
236 427 m 7
 208.682617188 427 183.682617188 392.098632812 191 324 c 5
 301 333 l 5
 307 333 303 338 303 344 c 5
 305.151367188 390.049804688 264.543945312 427 236 427 c 7
272 517 m 7
 345.713867188 517 421.318359375 458.301757812 444 364 c 5
 447 352 450 345 456 344 c 5
 456 274 l 5
 372 268.444335938 273.125 260.666992188 197 254 c 5
 198 253.384765625 198 252.615234375 198 252 c 5
 211.693359375 157.18359375 255.321289062 97 310 97 c 7
 315.272460938 97 369.848632812 133.306640625 385 168 c 5
 454 115 l 5
 417.451171875 56 355.4296875 -12 248 -12 c 7
 96.87890625 -12 38 129.328125 38 230 c 7
 38 419 168.5 517 272 517 c 7
EndSplineSet
Fore
SplineSet
246 427 m 3
 213.21875 427 188.21875 392.098632812 192 324 c 1
 314 333 l 1
 320 333 316 338 316 344 c 1
 318.248046875 390.049804688 275.822265625 427 246 427 c 3
282 517 m 3
 357 517 433.922851562 458.301757812 457 364 c 1
 460 352 463 345 469 344 c 1
 469 274 l 1
 380.784179688 268.444335938 276.946289062 260.666992188 197 254 c 1
 198 253.384765625 198 252.615234375 198 252 c 1
 211.693359375 157.18359375 255.321289062 97 310 97 c 3
 323.186523438 97 380.22265625 133.306640625 398 168 c 1
 467 115 l 1
 428.14453125 56 362.208984375 -12 248 -12 c 3
 96.87890625 -12 38 129.328125 38 230 c 3
 38 419 174.077148438 517 282 517 c 3
EndSplineSet
Substitution2: "case-1" E
Substitution2: "pcap-1" e.pcap
Substitution2: "smcp-1" e.smcp
EndChar
StartChar: f
Encoding: 102 102 332
Width: 362
Flags: HMW
AnchorPoint: "Top" 224 735 basechar 0
AnchorPoint: "Bottom" 161 -15 basechar 0
LayerCount: 2
Fore
SplineSet
314 749 m 3
 351 749 394 733 426 696 c 1
 435.379882812 647.9296875 380.55859375 594.919921875 344 574 c 1
 309.829101562 617.37890625 264.556640625 648 247 648 c 3
 202.331054688 648 240.018554688 621.522460938 231 556 c 0
 230.025390625 548.91796875 229 529 227 498 c 1
 269.639648438 500 298.1796875 504 340 508 c 1
 340 424 l 1
 295.817382812 428 264.182617188 432 220 437 c 1
 218.142578125 392.954101562 207 323.86328125 207 304 c 3
 207 235.96875 217.217773438 141.588867188 237 102 c 0
 244.745117188 86.5 263.912109375 73.8828125 271 74 c 0
 280.532226562 74.158203125 281.4765625 74 291 74 c 1
 286 -8 l 1
 243 -3 183 1 134 1 c 1
 103.295898438 1 54.9130859375 -4 27 -7 c 1
 25 71 l 1
 28.2001953125 70 40.5146484375 66.0712890625 45 68 c 0
 55 72.2998046875 70.4521484375 80.984375 73 90 c 0
 88 143.072265625 97 216.430664062 97 280 c 3
 97 306.079101562 97 385.1875 93 433 c 1
 74.6103515625 431 44.6884765625 427 24 425 c 1
 24 509 l 1
 41.9052734375 505.698242188 71.2431640625 501.993164062 87 500 c 1
 83.6669921875 534.407226562 82 545.220703125 82 558 c 3
 82 622 135.349609375 650.080078125 194 697 c 0
 224 721 277 749 314 749 c 3
EndSplineSet
Substitution2: "salt-1" f.alt
Substitution2: "case-1" F
Substitution2: "pcap-1" f.pcap
Substitution2: "smcp-1" f.smcp
EndChar
StartChar: g
Encoding: 103 103 360
Width: 497
Flags: HMW
AnchorPoint: "Top" 242 537 basechar 0
AnchorPoint: "Bottom" 233 -162 basechar 0
LayerCount: 2
Fore
SplineSet
181 434 m 3
 175.645507812 434 167 401.428710938 167 358 c 3
 167 299.729492188 194.814453125 242.16015625 238 226 c 1
 279 232.623046875 289 248.538085938 289 298 c 3
 289 357.688476562 245.700195312 434 181 434 c 3
122 -26 m 3
 122 -63.75 202.006835938 -51 220 -51 c 3
 250.828125 -51 381 -34.181640625 381 -1 c 3
 381 21.044921875 372.5 30 368 30 c 3
 320.271484375 30 259.796875 10 240 10 c 3
 214.3671875 10 175.30859375 15.2001953125 157 18 c 1
 130.484375 12.0869140625 122 -18.65234375 122 -26 c 3
224 140 m 1
 223.307617188 136 224.837890625 134 228 134 c 3
 257.298828125 134 285.709960938 152 323 152 c 3
 419.352539062 152 467 64.9033203125 467 -2 c 3
 467 -122.381835938 271 -177 187 -177 c 3
 76 -177 26 -111 26 -59 c 3
 26 -5.78515625 78.8984375 26.7958984375 118 42 c 1
 79.7021484375 71.0234375 65.6591796875 105.627929688 58 138 c 1
 85 156 116 168 146 180 c 1
 80 202.01953125 41 253.986328125 41 313 c 3
 41 435 158 514 234 514 c 3
 273 514 311 504 346 486 c 1
 372.950195312 488 395.087890625 487 423 487 c 3
 451.983398438 487 457.466796875 486 470 486 c 1
 468.909179688 475.23828125 462 373 462 373 c 1
 449.958007812 383 438.904296875 391.182617188 428 393 c 0
 422 394 418 393 413 393 c 1
 417.799804688 378.688476562 421 353.831054688 421 335 c 3
 421 251.40625 314.466796875 186.653320312 243 156 c 0
 239.491210938 154.495117188 227 147 224 140 c 1
EndSplineSet
Substitution2: "case-1" G
Substitution2: "pcap-1" g.pcap
Substitution2: "smcp-1" g.smcp
EndChar
StartChar: h
Encoding: 104 104 396
Width: 559
Flags: HMW
AnchorPoint: "Top" 160 720 basechar 0
AnchorPoint: "Bottom" 280 -15 basechar 0
LayerCount: 2
Fore
SplineSet
202 407 m 1
 202 355.985351562 202 274.578125 204 191 c 1
 208 147.349609375 206 98.4599609375 216 81 c 1
 217 70.75 234.380859375 66.42578125 234 66 c 0
 230.6484375 65.6025390625 251.65625 63.3330078125 245 65 c 1
 235 -5 l 1
 207.791015625 -1 181.651367188 3 149 3 c 1
 113.465820312 3 62.5341796875 -2 27 -5 c 1
 22 68 l 1
 28.4287109375 68.75 33.501953125 69.517578125 40 71 c 0
 47.5009765625 72.7109375 57 83 60 98 c 1
 68 143.151367188 80 219.560546875 80 276 c 3
 80 483.030273438 70 570.20703125 60 592 c 1
 56.5712890625 597.713867188 48.0029296875 603 36 603 c 3
 34.03125 603 32 602 30 603 c 1
 10 683 l 1
 77.857421875 692 156 731 200 747 c 1
 244 712 l 1
 246 694 235.041992188 671.310546875 228 653 c 0
 212.833007812 613.564453125 204.166992188 543.865234375 202 476 c 1
 249.345703125 498.857421875 308.728515625 516 332 516 c 3
 426 516 475.981445312 449.93359375 483 371 c 0
 485.799804688 344 490 248 490 184 c 3
 490 145.549804688 498 109.68359375 503 93 c 1
 510.365234375 70 534.221679688 64.4765625 539 63 c 0
 539.65234375 62.3671875 542.815429688 65.2001953125 544 66 c 1
 527 -7 l 1
 497.120117188 -1.6669921875 473.200195312 1 440 1 c 1
 399.669921875 1 362.610351562 -3.5 331 -8 c 1
 322 64 l 1
 321.256835938 63 319.119140625 63.9013671875 320 64 c 0
 330.75 65.2001953125 349.265625 77.1982421875 352 88 c 0
 360 119.60546875 364 187.034179688 364 210 c 3
 364 245.057617188 353.078125 320.866210938 350 334 c 0
 339.844726562 377.333007812 311.802734375 416 268 416 c 3
 234.458984375 416 224.728515625 411.845703125 202 407 c 1
EndSplineSet
Substitution2: "case-1" H
Substitution2: "pcap-1" h.pcap
Substitution2: "smcp-1" h.smcp
EndChar
StartChar: k
Encoding: 107 107 462
Width: 515
Flags: HMW
AnchorPoint: "Top" 153 720 basechar 0
AnchorPoint: "Bottom" 255 -15 basechar 0
LayerCount: 2
Fore
SplineSet
191 319 m 1
 224.537109375 345.586914062 267.25390625 397.1953125 298 423 c 1
 301 425 300 428 298 429 c 1
 289 431 275.5 432 265 433 c 1
 269 503 l 1
 304.717773438 501 335.826171875 498 375 498 c 1
 413.473632812 498 456.526367188 501 495 505 c 1
 500 436 l 1
 426.5 435.013671875 349.4453125 372.2734375 345 372 c 1
 286 328 l 1
 327.4609375 241.8671875 411.163085938 168.959960938 493 93 c 1
 516.140625 71.80859375 539.615234375 60.599609375 532 64 c 1
 529 -10 l 1
 480.751953125 -5 467.40625 0 413 0 c 1
 372.196289062 0 336.90625 -5.1337890625 295 -11 c 1
 290 71 l 1
 292.432617188 71.2001953125 294.703125 71.7998046875 296 72 c 1
 274.0078125 135.510742188 243.045898438 176.126953125 167 241 c 1
 193 265 l 1
 204 195.875 207.872070312 121.858398438 211 107 c 0
 215 88 226 77 233 75 c 0
 233.869140625 74.751953125 242 74 245 75 c 1
 238 -12 l 1
 194.970703125 -7 169.42578125 1 118 1 c 1
 84.6201171875 1 51.240234375 -3.2001953125 15 -8 c 1
 8 67 l 1
 18 66.71484375 29.111328125 67.142578125 38 72 c 1
 39 75.5146484375 49 100 57 116 c 1
 76.8330078125 157.588867188 85 228.2109375 85 280 c 3
 85 434.684570312 74.3037109375 537.83203125 59 583 c 0
 54.6767578125 595.758789062 42 600 26 599 c 1
 23.6103515625 597.857421875 21 599 21 599 c 1
 11 688 l 1
 95.5029296875 699.633789062 139.540039062 710.478515625 205 745 c 1
 250 702 l 1
 237.400390625 686.491210938 223.840820312 666.389648438 221 651 c 0
 211 596.831054688 191 424.715820312 191 319 c 1
EndSplineSet
Substitution2: "case-1" K
Substitution2: "pcap-1" k.pcap
Substitution2: "smcp-1" k.smcp
EndChar
StartChar: l
Encoding: 108 108 472
Width: 290
Flags: HMW
AnchorPoint: "Top" 155 720 basechar 0
AnchorPoint: "Bottom" 145 -15 basechar 0
LayerCount: 2
Fore
SplineSet
206 303 m 3
 206 195.981445312 220 128.7578125 236 97 c 1
 243 84 255 70 260 69 c 1
 266.240234375 66.142578125 271.759765625 66.142578125 278 65 c 1
 273 -9 l 1
 226.029296875 -4.8466796875 186.885742188 0 136 0 c 1
 97.634765625 0 51.3974609375 -4.80078125 15 -8 c 1
 13 66 l 1
 19.12890625 66.3330078125 26.1767578125 67.1669921875 32 68 c 1
 39 69 55 86 58 95 c 1
 71.0146484375 142 88 225.0390625 88 276 c 3
 88 503.991210938 77.1591796875 596.193359375 68 600 c 1
 63.1962890625 603.678710938 45.5712890625 608 34 608 c 3
 32.318359375 608 28.193359375 615.143554688 26 618 c 1
 17 687 l 1
 101.853515625 700.239257812 147.268554688 709.479492188 213 744 c 1
 262 709 l 1
 252.200195312 694 237.397460938 664.885742188 234 650 c 1
 218.51953125 581.9609375 206 416.44140625 206 303 c 3
EndSplineSet
Substitution2: "case-1" L
Substitution2: "pcap-1" l.pcap
Substitution2: "smcp-1" l.smcp
EndChar
StartChar: m
Encoding: 109 109 501
Width: 862
Flags: HMW
AnchorPoint: "Top" 445 537 basechar 0
AnchorPoint: "Bottom" 448 -15 basechar 0
LayerCount: 2
Fore
SplineSet
806 190 m 3
 806 139.794886364 810 101.634943182 814 78 c 1
 815 73 816 72 820 70 c 1
 824.047851562 65.228515625 852.012695312 63.9912109375 859 63 c 1
 855 -11 l 1
 811.475585938 -3.92895507812 786.328125 0 737 0 c 3
 699.193359375 0 671.081054688 -6.5 642 -13 c 1
 635 58 l 1
 643.666992188 58.5 654.958007812 58.75 661 62 c 1
 667 63.4375 673.712910816 74.7032865315 676 93 c 0
 679 117 682 158.1484375 682 170 c 3
 682 217.71875 681.277733791 285.593274557 677 314 c 0
 670.729166667 360 645.872416179 410 591 410 c 3
 558.083333333 410 512 366.571428571 512 353 c 1
 512 349 512 347 512 346 c 1
 512 322.616260835 512 257.532433281 512 224 c 3
 512 165.76953125 514 97.5107421875 519 76 c 1
 520 73.375 530 64.625 531 62 c 1
 530.692382812 61.2001953125 550 57.7998046875 555 58 c 1
 548 -9 l 1
 503.1171875 -3.21439985795 491.36328125 0 439 0 c 3
 405.154296875 0 376.384765625 -5 351 -10 c 1
 343 59 l 1
 348.333007812 59.6669921875 356 61 357 62 c 1
 363.107142857 64.3571428571 373.857142857 72.2142857143 376 95 c 1
 377.904513889 116.357386148 380 169.312476181 380 186 c 3
 380 232.720703125 379.333333333 313 372 350 c 1
 366.307739258 381.012695312 348.156005859 412 304 412 c 3
 259.472186054 412 224.39824771 377.803125 209 364 c 1
 197 271.933632115 201 124.649857004 215 87 c 1
 220 72.5646784856 229.166015625 67 234 66 c 1
 239.200195312 64.9091796875 253.854492188 60.5458984375 260 60 c 1
 249 -9 l 1
 197.734375 -5.8466796875 179.091796875 0 122 0 c 3
 89.2724609375 0 54.7275390625 -4.2001953125 22 -7 c 1
 18 60 l 1
 27.755859375 61.3330078125 33.3639942738 60.0559604469 43 64 c 0
 52.375 67.8372093023 65.087864036 81.8641733273 68 97 c 0
 75.2727272727 134.8 78 196.374765625 78 232 c 3
 78 251.654992509 79.0859558298 360.4934757 71 382 c 0
 63.3082584791 402.458017507 49.0830078125 405 43 405 c 3
 36.5791015625 405 37 404 31 405 c 1
 26 470 l 1
 89.875 479 121 483 174 520 c 1
 221 478 l 1
 218 465.444921875 214.427734375 451.745284598 211 435 c 1
 240 462 319.635244693 512 382 512 c 3
 441.50420673 512 494.516025641 452.780523839 502 430 c 1
 528 456 597.865835835 500 671 500 c 3
 772.004950374 500 802 404 804 350 c 1
 806 309.024414062 806 232.926757812 806 190 c 3
EndSplineSet
Substitution2: "case-1" M
Substitution2: "pcap-1" m.pcap
Substitution2: "smcp-1" m.smcp
EndChar
StartChar: n
Encoding: 110 110 511
Width: 550
Flags: HMW
AnchorPoint: "Top" 305 537 basechar 0
AnchorPoint: "Bottom" 296 -15 basechar 0
LayerCount: 2
Fore
SplineSet
74 417 m 1
 70 413.90234375 61.6923828125 418 54 418 c 1
 43.955078125 418 32.36328125 421 20 423 c 1
 28 486 l 1
 93.1875 495.77734375 111.8125 488.93359375 177 530 c 1
 229 500 l 1
 223 496.436523438 222 446.599609375 221 441 c 1
 255.880859375 483.958984375 315.956054688 519 365 519 c 3
 431.272460938 519 493 469 493 380 c 3
 493 329.333007812 495 241.640625 495 190 c 3
 495 151.794921875 499.526367188 47.2216796875 505 72 c 0
 506.26953125 77.74609375 507.666992188 74.857421875 513 73 c 1
 516.875 72 538.671875 68 544 67 c 1
 542 -8 l 1
 502.60546875 -1.845703125 486.444335938 2 442 2 c 3
 402.275390625 2 365.034179688 -2.5 334 -7 c 1
 332 60 l 1
 339.255859375 62 353.163085938 64 358 66 c 1
 358 69.5830078125 359 84.0341796875 363 85 c 1
 370 120.430664062 377 193.655273438 377 222 c 3
 377 256.3515625 365.286132812 332.288085938 361 345 c 1
 357.517578125 367.96484375 339.327148438 412 312 412 c 3
 244.828125 412 231.165039062 386.099609375 213 369 c 1
 207 254.981445312 214 117.5078125 228 70 c 1
 229 63 241 62 248 61 c 1
 257 61.75 257 63.25 257 64 c 1
 255 -6 l 1
 203 -2.36328125 183.841796875 2 125 2 c 3
 92 2 59 -2.2001953125 26 -5 c 1
 26 65 l 1
 33.6357421875 65.3330078125 40.0908203125 63.60546875 47 66 c 0
 53.9443359375 68.4072265625 57 68 66 81 c 1
 80 107.90625 88 171.328125 88 204 c 3
 88 236.709960938 82 392.905273438 74 417 c 1
EndSplineSet
Substitution2: "case-1" N
Substitution2: "pcap-1" n.pcap
Substitution2: "smcp-1" n.smcp
EndChar
StartChar: o
Encoding: 111 111 541
Width: 570
Flags: HW
HStem: -11 92<271.824 368.744> 422 98<195.532 293.601>
VStem: 30 144<205.971 346.529> 391 149<152.322 307.098>
AnchorPoint: "Bottom" 288 -15 basechar 0
AnchorPoint: "Ogonek" 423 18 basechar 0
AnchorPoint: "Top" 285 537 basechar 0
AnchorPoint: "Middle" 284.697 252.853 basechar 0
AnchorPoint: "Horn" 446.5 453.8 basechar 0
LayerCount: 2
Fore
SplineSet
285 520 m 3
 446.282226562 520 540 379 540 254 c 3
 540 128.573242188 441.922851562 -11 285 -11 c 3
 148.782226562 -11 30 97.99609375 30 238 c 3
 30 419 181.474609375 520 285 520 c 3
241 422 m 3
 192.97265625 422 174 390.255859375 174 300 c 3
 174 202.834960938 259.790039062 81 319 81 c 3
 367.009765625 81 391 105.5234375 391 200 c 3
 391 358.87890625 276.647460938 422 241 422 c 3
EndSplineSet
Substitution2: "case-1" O
Substitution2: "pcap-1" o.pcap
Substitution2: "smcp-1" o.smcp
EndChar
StartChar: p
Encoding: 112 112 623
Width: 571
Flags: HMW
AnchorPoint: "Top" 298 537 basechar 0
AnchorPoint: "Bottom" 170 -154 basechar 0
LayerCount: 2
Fore
SplineSet
237 401 m 3
 224.834960938 401 215.877929688 397.059570312 207 382 c 1
 207 258.786132812 207 222.342773438 221 159 c 1
 260.297851562 134.799804688 300.603515625 115 353 115 c 3
 417.03125 115 417 174.938476562 417 192 c 3
 417 288.263671875 358.03125 401 237 401 c 3
93 80 m 3
 93 194.143554688 75.10546875 344.133789062 61 363 c 1
 54.400390625 367.666992188 45.017578125 369 39 369 c 3
 37.90234375 369 36 369 33 369 c 1
 20 451 l 1
 67.35546875 458 112.661132812 468 162 514 c 1
 189.268554688 508.713867188 200.8046875 503.428710938 205 477 c 1
 240.014648438 490.090820312 280.728515625 509 319 509 c 3
 441 509 536 380 536 291 c 3
 536 128 406 9 280 9 c 3
 268.1015625 9 235 9 229 7 c 1
 229 -16.814453125 231 -44 241 -63 c 1
 247 -72 253 -75 260 -77 c 1
 278 -82 292.677734375 -82.599609375 320 -84 c 1
 318 -165 l 1
 261.176757812 -164 234 -162 171 -162 c 1
 129.774414062 -162 72.5166015625 -170.307617188 29 -174 c 1
 28 -95 l 1
 43.51953125 -95.9521484375 52.904296875 -93.6669921875 65 -93 c 1
 74 -92 78 -85 81 -77 c 1
 93 -50.1953125 93 -2.3291015625 93 80 c 3
EndSplineSet
Substitution2: "case-1" P
Substitution2: "pcap-1" p.pcap
Substitution2: "smcp-1" p.smcp
EndChar
StartChar: q
Encoding: 113 113 16
Width: 574
VWidth: 1159
Flags: HMW
AnchorPoint: "Top" 307 537 basechar 0
AnchorPoint: "Bottom" 438 -154 basechar 0
LayerCount: 2
Back
SplineSet
362 114 m 5
 366 182.693877551 377 244.114285714 374 312 c 5
 375 311.444444444 373 315.333333333 371 317 c 5
 354 402 295.15 416 248 416 c 7
 220.015383705 416 179 370 179 357 c 7
 179 234.06161783 250.162166895 106 377 106 c 7
 389.993976122 106 364.26744186 98.3354037267 362 114 c 5
EndSplineSet
Fore
SplineSet
362 114 m 1
 366 182.693877551 377 244.114285714 374 312 c 1
 375 311.444444444 373 315.333333333 371 317 c 1
 354 402 295.15 416 248 416 c 3
 220.015383705 416 179 370 179 357 c 7
 179 234.551412182 257.813079909 107 354 107 c 3
 360.930120599 107 360.790697674 100.293478261 362 114 c 1
360 17 m 1
 329.66 10.4193548387 292.66 0 249 0 c 3
 131 0 37 139 37 237 c 3
 37 364 150 514 318 514 c 3
 419.443478261 514 404.87826087 497 421 497 c 1
 432.5 497 458.2 510.885714286 483 524 c 1
 524 489 l 1
 516.875 475.042553191 516.5 467.191489362 505 448 c 1
 502.454545455 431 502 399.992272578 492 321 c 1
 494 297.020824299 494 164 494 119 c 1
 494 5.71875 498 -35.96875 502 -55 c 1
 504 -61.9584054212 511 -72 514 -73 c 1
 533.811320755 -76.5 546.075471698 -80 564 -79 c 1
 559 -167 l 1
 524 -165 497 -164 445 -164 c 1
 399.724770642 -164 345.394495413 -171 304 -175 c 1
 299 -91 l 1
 309.111111111 -90.5 317.666666667 -89.5 327 -89 c 1
 330 -86 357 -83 357 -80 c 1
 360 -72.1138211382 360 -20.0650406504 360 17 c 1
EndSplineSet
Validated: 33
Substitution2: "case-1" Q
Substitution2: "pcap-1" q.pcap
Substitution2: "smcp-1" q.smcp
EndChar
StartChar: r
Encoding: 114 114 668
Width: 421
Flags: HMW
AnchorPoint: "Top" 203 537 basechar 0
AnchorPoint: "Bottom" 186 -15 basechar 0
LayerCount: 2
Fore
SplineSet
227 221 m 3
 227 187.014648438 232.599609375 101.514648438 241 85 c 1
 245 77 251.841796875 67.4296875 289 65 c 0
 306.999023438 63.439453125 325.782226562 60.5 343 59 c 1
 341 -2 l 1
 287.11328125 -1 198.584960938 1 137 1 c 3
 102.360351562 1 60.7939453125 -3.7998046875 25 -7 c 1
 24 65 l 1
 37.6953125 64.333984375 57.0439453125 62.666015625 66 67 c 1
 74 70 81 74 85 86 c 1
 93 113.36328125 101 228.681640625 101 258 c 3
 101 275.88671875 97 333 83 360 c 1
 74.052734375 377.23046875 65.8173828125 386 51 386 c 3
 44.185546875 386 38 387 35 388 c 1
 30 458 l 1
 91.203125 464.767578125 156.217773438 492.4921875 207 525 c 1
 218.87890625 516 235 511 235 482 c 3
 235 477.5 225 459 225 451 c 1
 231 470 318.701171875 526 352 526 c 3
 381 526 420 491.046875 420 448 c 3
 420 432.475585938 411.1875 345.142578125 279 352 c 1
 272.799804688 368.432617188 274.080078125 390 248 390 c 3
 233 390 226 378 225 372 c 1
 225 326.577148438 227 243.09765625 227 221 c 3
EndSplineSet
Substitution2: "case-1" R
Substitution2: "pcap-1" r.pcap
Substitution2: "smcp-1" r.smcp
EndChar
StartChar: s
Encoding: 115 115 684
Width: 434
Flags: HMW
AnchorPoint: "Bottom" 218 -15 basechar 0
AnchorPoint: "Top" 226 537 basechar 0
LayerCount: 2
Back
SplineSet
98 156 m 1
 111.278320312 122.2578125 194.091796875 81 214 81 c 3
 239.296875 81 253 83.8251953125 253 103 c 3
 253 143.112304688 233.6484375 160.515625 180 198 c 0
 134.59375 229.725585938 66 252.627929688 66 372 c 3
 66 443 137 514 226 514 c 3
 275 514 333 505 373 499 c 1
 370.900390625 490.07421875 383.799804688 431.958984375 388 397 c 1
 343 378 l 1
 322.864257812 403.038085938 259.848632812 433 221 433 c 3
 206.75 433 200 426.109375 200 411 c 3
 200 393.990234375 215 346 262 323 c 0
 359.526367188 275.274414062 393 230.708984375 393 135 c 3
 393 42.556640625 290 -7 205 -7 c 3
 139 -7 89 9 41 24 c 1
 42.63671875 43 44 64 44 87 c 1
 44 104.666992188 41.8828125 129.24609375 40 140 c 1
 98 156 l 1
EndSplineSet
Fore
SplineSet
98 156 m 1
 111.278320312 122.2578125 194.091796875 81 214 81 c 3
 239.296875 81 253 83.8251953125 253 103 c 3
 253 143.112304688 233.6484375 160.515625 180 198 c 0
 134.59375 229.725585938 66 252.627929688 66 372 c 3
 66 443 137 514 226 514 c 3
 275 514 328 505 368 499 c 1
 365.900390625 490.07421875 378.799804688 422.958984375 383 388 c 1
 338 369 l 1
 317.864257812 394.038085938 279.848632812 433 221 433 c 3
 206.75 433 197 419.109375 197 404 c 3
 197 377.990234375 231.202148438 340.309570312 277 315 c 0
 353 273 393 230.708984375 393 135 c 3
 393 42.556640625 290 -7 205 -7 c 3
 139 -7 89 9 41 24 c 1
 42.63671875 43 44 64 44 87 c 1
 44 104.666992188 41.8828125 129.24609375 40 140 c 1
 98 156 l 1
EndSplineSet
Substitution2: "case-1" S
Substitution2: "pcap-1" s.pcap
Substitution2: "smcp-1" s.smcp
EndChar
StartChar: t
Encoding: 116 116 734
Width: 373
Flags: HMW
AnchorPoint: "Bottom" 196 -15 basechar 0
AnchorPoint: "Top" 201 599 basechar 0
LayerCount: 2
Fore
SplineSet
32 486 m 1
 61.9140625 521.404296875 122 578.742235164 153 602 c 1
 213 590 l 1
 210.428710938 559.662449049 206.571289062 531.348293139 204 500 c 1
 252.333007812 500 299.833007812 500 344 500 c 1
 343 408 l 1
 296.870117188 414.222222222 250.741210938 419.2 202 422 c 1
 199 387.402298851 200 232.02734375 200 164 c 3
 200 125.160028312 226.452777778 98 264 98 c 3
 288.594845655 98 312.018471323 104.972656256 329 110 c 1
 329 110 352 56.884765625 352 56 c 1
 317.915039062 29.25390625 270.375976562 -8 204 -8 c 3
 170.158203125 -8 73 6.361328125 73 127 c 3
 73 229.75 77 329.487304688 78 426 c 1
 63.3330078125 426 50.2109375 426 34 426 c 1
 32 486 l 1
EndSplineSet
Substitution2: "case-1" T
Substitution2: "pcap-1" t.pcap
Substitution2: "smcp-1" t.smcp
EndChar
StartChar: u
Encoding: 117 117 786
Width: 563
Flags: HMW
AnchorPoint: "Top" 293 537 basechar 0
AnchorPoint: "Ogonek" 443 18 basechar 0
AnchorPoint: "Bottom" 292 -15 basechar 0
LayerCount: 2
Fore
SplineSet
291 464 m 1
 355.528320312 482.956054688 425.32421875 489.565429688 478 506 c 1
 505 471 l 1
 485.87109375 435.408203125 476 395.524414062 476 208 c 3
 476 171.012695312 480.286132812 134.024414062 488 101 c 1
 491.333007812 90 495 88 502 88 c 3
 512 88 533 84.36328125 545 83 c 1
 547 16 l 1
 523.87890625 8.8623046875 467.333984375 -6.0224609375 438 -17 c 0
 435.682617188 -17.8671875 425.625 -22 420 -22 c 3
 377.336914062 -22 360.418945312 22 353 48 c 1
 317.05859375 26.3740234375 277.93359375 -8 223 -8 c 3
 179.338867188 -8 134.779296875 14 111 53 c 1
 94 84 87 115.990234375 87 168 c 3
 87 217.62890625 86 357.625976562 84 350 c 1
 84 353.333007812 83 355 79 355 c 3
 72.953125 355 46.3486328125 364.706054688 27 370 c 1
 25 440 l 1
 85.0205078125 449.701171875 160.979492188 498.583984375 214 523 c 1
 247 471 l 1
 212.760742188 409.456054688 212 311.66015625 212 240 c 3
 212 160.747070312 214.74609375 103 294 103 c 3
 306.52734375 103 326.694335938 102.102539062 338 102 c 1
 338 144 344 365.302734375 344 375 c 3
 344 388.233398438 338.217773438 389.63671875 306 392 c 1
 291 464 l 1
EndSplineSet
Substitution2: "case-1" U
Substitution2: "pcap-1" u.pcap
Substitution2: "smcp-1" u.smcp
EndChar
StartChar: v
Encoding: 118 118 2222
Width: 535
Flags: HMW
AnchorPoint: "Top" 273 537 basechar 0
AnchorPoint: "Bottom" 248 -15 basechar 0
LayerCount: 2
Fore
SplineSet
534 450 m 1
 510.508789062 430.813476562 514.65234375 435.298828125 489 395 c 0
 432.142578125 305.678710938 410.568359375 245.836914062 372 187 c 0
 338.90234375 126.461914062 299.553710938 79.0234375 282 -13 c 1
 210 -13 l 1
 174.7890625 135 121.28515625 311.27734375 62 422 c 0
 59.3486328125 426.422851562 55.845703125 428.400390625 52 430 c 1
 33.365234375 437 18.654296875 438.166992188 1 444 c 1
 7 509 l 1
 38.7470703125 502.555664062 86.3681640625 499 123 499 c 3
 173.350585938 499 220.017578125 501.057617188 263 511 c 1
 272 434 l 1
 261.854492188 433.286132812 242.987304688 432.771484375 250 432 c 1
 244.22265625 431 237 430.471679688 237 428 c 3
 237 425 237.19921875 422.872070312 237 418 c 0
 235.747070312 329.15234375 269.788085938 232.198242188 307 192 c 1
 363.865234375 259.870117188 373.229492188 307.385742188 378 386 c 0
 379.857421875 396.651367188 371 406.668945312 371 413 c 3
 371 424.360351562 339.413085938 433.909179688 320 444 c 1
 334 510 l 1
 359 504 392 499 410 499 c 3
 448.46875 499 490.54296875 508 523 515 c 1
 534 450 l 1
EndSplineSet
Substitution2: "case-1" V
Substitution2: "pcap-1" v.pcap
Substitution2: "smcp-1" v.smcp
EndChar
StartChar: w
Encoding: 119 119 22
Width: 793
VWidth: 1159
Flags: HMW
AnchorPoint: "Top" 408 537 basechar 0
AnchorPoint: "Bottom" 383 -15 basechar 0
LayerCount: 2
Back
SplineSet
792 449 m 5
 798 448 785.169197897 437.006531679 735 364 c 4
 698 348.827922604 708.122751789 330.364237799 631 204 c 4
 583.116032074 125.302797665 558 72.3076923077 540 -10 c 5
 486 -10 l 5
 465.333568816 91.9005041092 421.40014129 183.422245317 384 274 c 5
 370.666666667 266.782608695 353.669661213 197.05312884 333 165 c 4
 300.88643662 113.944249386 274 54.4972375691 256 -12 c 5
 181 -12 l 5
 165.427238806 122.618500632 106.629846968 287.791761954 45 419.984375 c 4
 45.5287804783 419.305604202 48.1072595793 430.967578963 55 428.4921875 c 4
 38.29296875 434.4921875 21.5859375 436.4921875 4 441.4921875 c 5
 16 508.4921875 l 5
 41.0107421875 504.4921875 77.13671875 499.4921875 104 499.4921875 c 5
 144 499.4921875 171 503.4921875 205 509.4921875 c 5
 215 425.984375 l 5
 216.257123162 426.428873698 218.057559743 426.984375 219 426.984375 c 4
 217 426.984375 216 426.984375 215 425.984375 c 5
 215 423.984375 214.945800179 422.01430594 215 420.984375 c 4
 213.28515625 355.830749366 249.857421876 268.107889842 283 212 c 5
 314.10546875 250.14757126 330.525390624 286.953075966 344 389 c 5
 347.778645833 385.611979167 344 384.670674286 344 383.015625 c 5
 337.572108608 402.168146094 329.064341655 417.108772663 321 423.984375 c 4
 320.220857506 430.06406843 317.399919181 432.322546525 315 436.4921875 c 5
 321 504.4921875 l 5
 342.559570312 501.159179688 372.333007812 499.4921875 398 499.4921875 c 5
 430.943359375 499.4921875 464.801757812 505.206054688 495 509.4921875 c 5
 507 436.4921875 l 5
 508.217363911 434.62890625 509.869581653 430.192382812 511 427.4921875 c 5
 508 426.2421875 504 425.825195312 504 422.4921875 c 7
 504 422.4921875 502.453212703 422.603795776 500 422.4921875 c 4
 475.700810704 379.319083729 514.416666736 307.880556599 561 212 c 5
 599.846875 244.341606191 653.305298808 350.634858132 635 383 c 4
 633.521123585 400.850996586 628 400.154296876 626 413 c 5
 622.363699777 416.909104568 624.125 420.293719953 596 431 c 5
 610 508 l 5
 634.444335938 503.5 668.666992188 499 687 499 c 5
 713.866210938 499 743.333007812 506.3125 765 512 c 5
 792 449 l 5
787 455 m 5
 758 444 755.870029021 442.544588232 728 391 c 4
 702 342.913961302 672.252793596 271.575487949 631 204 c 4
 584.392968614 127.653827698 558 72.3076923077 540 -10 c 5
 486 -10 l 5
 466.000207779 99.0765959481 429.000124668 197.043530199 396 294 c 5
 382 277.173913043 355.344515989 203.362327077 333 165 c 4
 302.677888316 112.941286056 274 54.4972375691 256 -12 c 5
 196 -12 l 5
 180.65625 123.400005654 115.314923484 310.395880977 62 422.4921875 c 4
 58.5371678118 429.772901286 61.2090305709 433.980597377 57 435.4921875 c 4
 40.29296875 441.4921875 23.5859375 443.4921875 6 448.4921875 c 5
 16 508.4921875 l 5
 41.0107421875 504.4921875 77.13671875 499.4921875 104 499.4921875 c 5
 144 499.4921875 171 503.4921875 205 509.4921875 c 5
 214 441.4921875 l 5
 203.314453125 438.825195312 188.010742188 435.4921875 180 435.4921875 c 4
 178 435.4921875 177 435.4921875 176 434.4921875 c 5
 176 432.4921875 175.776043233 430.466485635 176 429.4921875 c 4
 193.142578125 354.915374683 235.428710938 242.553944921 264 164 c 5
 298.552734375 219.57378563 335.762695312 298.476537983 365 390 c 5
 365.22265625 395.34765625 361.666992188 401.942382812 360 406.5078125 c 5
 356.333007812 418.655273438 350.298847627 428.381263185 343 432.4921875 c 4
 334.713867188 437.159179688 325.599609375 439.825195312 314 443.4921875 c 5
 321 504.4921875 l 5
 342.559570312 501.159179688 372.333007812 499.4921875 398 499.4921875 c 5
 430.943359375 499.4921875 464.801757812 505.206054688 495 509.4921875 c 5
 506 445.4921875 l 5
 496.565429688 442.62890625 483.760742188 439.192382812 475 436.4921875 c 5
 472 435.2421875 468 434.825195312 468 431.4921875 c 7
 468 428.4921875 468.277270597 426.129284313 468 422.4921875 c 4
 464.008274475 370.130731372 499.180327951 280.655880885 540 162 c 5
 579.0234375 224.818886719 642.652649404 323.317429066 649 399 c 4
 650.455078125 416.349609375 649 422.077148438 640 429 c 5
 634.909179688 431.823242188 637.375 432.823242188 598 442 c 5
 610 508 l 5
 634.444335938 503.5 668.666992188 499 687 499 c 5
 713.866210938 499 743.333007812 506.3125 765 512 c 5
 787 455 l 5
EndSplineSet
Fore
SplineSet
792 449 m 1
 798 448 785.169197897 437.006531679 735 364 c 0
 712.351557792 331.041844741 707.951040844 330.46887661 631 204 c 0
 583.116032074 125.302797665 558 72.3076923077 540 -10 c 1
 486 -10 l 1
 465.333568816 91.9005041092 421.40014129 183.422245317 384 274 c 1
 370.666666667 266.782608695 353.306560212 197.284385939 333 165 c 0
 300.88643662 113.944249386 274 54.4972375691 256 -12 c 1
 181 -12 l 1
 166.343283582 122.618500632 102.882352941 309 53 419.984375 c 0
 49.947063008 426.377361867 48.3217344787 431.086773025 46 432 c 0
 32.2412683824 436.381009615 18.4825367647 437.841346154 4 441.4921875 c 1
 16 508.4921875 l 1
 41.0107421875 504.4921875 77.13671875 499.4921875 104 499.4921875 c 1
 155.881188119 499.4921875 190.900990099 503.4921875 235 509.4921875 c 1
 245 425.984375 l 1
 245 426.428873698 245 426.984375 227 426.984375 c 0
 225 426.984375 224 426.984375 223 425.984375 c 1
 223 423.984375 223.02734375 422.015374032 223 420.984375 c 0
 221.486902574 355.830749366 253.756548714 268.107889842 283 212 c 1
 314.10546875 250.14757126 330.525390624 286.953075966 344 389 c 1
 343 395 l 1
 336.851582147 408.549933878 325 420 321 423.984375 c 0
 317.588979215 428.892158812 310.199757543 432.322546525 303 436.4921875 c 1
 309 504.4921875 l 1
 336.159458705 501.159179688 373.666256594 499.4921875 406 499.4921875 c 1
 446.075426869 499.4921875 487.263994039 505.206054688 524 509.4921875 c 1
 536 436.4921875 l 1
 536 434.319976807 536 429.147883944 514 426 c 1
 509.714285714 424.75 508.517539515 425 504 425 c 3
 504 425 500.874143119 424.076287352 500 422.4921875 c 0
 476 379 514.416666736 307.880556599 561 212 c 1
 599.846875 244.341606191 642 336 635 383 c 0
 632.36133769 400.71673265 628 400.154296876 626 413 c 1
 622.363699777 416.909104568 624.125 420.293719953 596 431 c 1
 610 508 l 1
 634.444335938 503.5 668.666992188 499 687 499 c 1
 713.866210938 499 743.333007812 506.3125 765 512 c 1
 792 449 l 1
EndSplineSet
Validated: 37
Substitution2: "case-1" W
Substitution2: "pcap-1" w.pcap
Substitution2: "smcp-1" w.smcp
EndChar
StartChar: x
Encoding: 120 120 2234
Width: 555
Flags: HW
HStem: -5 66<13.4697 59.8115 172.152 194.606 293.435 326.999> 433 69<28 83.6824 366.1 380.781> 490 20G<256.204 274.86>
AnchorPoint: "Top" 305 537 basechar 0
AnchorPoint: "Bottom" 278 -15 basechar 0
LayerCount: 2
Fore
SplineSet
7 61 m 1xc0
 16.34375 64 56.546875 68 60 80 c 1
 31 49.953125 219 241 219 241 c 1
 219 241 122.884765625 368.383789062 117 375 c 1
 67.2861328125 429 79.7568359375 422.530273438 28 433 c 1
 28 502 l 1xc0
 58.42578125 500 101.611328125 498 134 498 c 3
 176.858398438 498 239.408203125 501.599609375 273 510 c 1xa0
 281 424 l 1
 273.647460938 424.5 264 425 262 425 c 1
 259 425 l 1
 262.44140625 421.43359375 309.247070312 324.56640625 312 321 c 1
 381 418 l 1
 381 419.833007812 381 416.27734375 381 429 c 1
 376.400390625 429 367.7109375 430 358 432 c 1
 367 502 l 1
 395.190429688 497.5 412.809570312 499 441 499 c 3
 475.286132812 499 524.571289062 499 552 507 c 1
 555 456 l 1
 536.956054688 449 489.494140625 409.626953125 480 403 c 0
 434.28125 362.094726562 391.985351562 314.509765625 347 273 c 1
 394.640625 211.754882812 456.578125 143.487304688 501 78 c 0
 508.284179688 66.7451171875 509.01171875 64 554 50 c 1
 551 -8 l 1
 509.092773438 -4 438.836914062 0 392 0 c 0
 362.330078125 0 324.568359375 -3 294 -7 c 1
 287 57 l 1
 301.948242188 61.125 310.569335938 62.25 322 65 c 1
 325 66 327 68 327 68 c 1
 322.286132812 76.0673828125 264.142578125 185.983398438 261 188 c 1
 257.426757812 183.967773438 175.251953125 82.064453125 169 74 c 1
 169.857421875 73.3330078125 172 70.6669921875 172 70 c 1
 175.061523438 68.875 190.3671875 63.25 202 61 c 1
 194 -5 l 1
 168.03515625 -3 143.860351562 1 117 1 c 0
 83.70703125 1 44.171875 -3 14 -5 c 1
 7 61 l 1xc0
EndSplineSet
Substitution2: "case-1" X
Substitution2: "pcap-1" x.pcap
Substitution2: "smcp-1" x.smcp
EndChar
StartChar: y
Encoding: 121 121 2240
Width: 521
Flags: HMW
AnchorPoint: "Top" 259 537 basechar 0
AnchorPoint: "Bottom" 330 -15 basechar 0
LayerCount: 2
Fore
SplineSet
256 -175 m 1
 213.963867188 -176 226.702148438 -173 149 -173 c 1
 91.240234375 -173 62.873046875 -175 14 -176 c 1
 15 -153.576171875 18 -137.559570312 11 -113 c 1
 53.796875 -108.7578125 108.337890625 -66.61328125 204 51 c 1
 171.470703125 181.282226562 134 377 66 431 c 0
 65.111328125 431.706054688 48.03515625 429.58203125 40 429 c 0
 31.0537109375 428.3515625 29.4541015625 428.25 24 429 c 1
 36 505 l 1
 63.388671875 501 102.188476562 497 133 497 c 1
 180.37890625 497 224.728515625 500.666992188 265 508 c 1
 276 436 l 1
 290.56640625 439.1328125 234.856445312 424.5546875 252 425 c 1
 251.333007812 425 250 425 250 426 c 1
 250 426.400390625 249.918945312 429.049804688 250 428 c 0
 253.928710938 377.254882812 269.005859375 263.909179688 307 197 c 1
 333.48828125 248.255859375 372.263671875 342.369140625 381 410 c 0
 381.444335938 413.439453125 376 419.913085938 376 422 c 1
 369.782226562 422.700195312 365.981445312 424.099609375 338 429 c 1
 359 506 l 1
 381.860351562 502.25 406.405273438 497 426 497 c 1
 473.838867188 497 501.797851562 505 538 513 c 1
 550 439 l 1
 489.638671875 430.75 495.494140625 439.365234375 484 415 c 0
 437.158203125 317 347.87109375 178.026367188 283 43 c 0
 259.928710938 -5.025390625 246.896484375 -146 256 -175 c 1
EndSplineSet
Substitution2: "case-1" Y
Substitution2: "pcap-1" y.pcap
Substitution2: "smcp-1" y.smcp
EndChar
StartChar: z
Encoding: 122 122 2254
Width: 550
Flags: HMW
AnchorPoint: "Bottom" 279 -15 basechar 0
AnchorPoint: "Top" 286 537 basechar 0
LayerCount: 2
Fore
SplineSet
422 0 m 1
 422 -1 207 -1 207 0 c 1
 130 1 61 -5 45 -16 c 1
 32 40 l 1
 164 200 266 302 300 415 c 1
 301.43359375 415 302.56640625 415 304 415 c 1
 264.1640625 415 236.991210938 415.71484375 194 410 c 0
 117 399.764648438 101 355.713867188 97 334 c 1
 22 362 l 1
 22 362 75.92578125 530.685546875 78 526 c 1
 116 508 103 499 271 499 c 1
 392 499 455 496 489 507 c 1
 514 466 l 1
 369 266 327 220 252 79 c 1
 257.189453125 79 342.810546875 82 348 82 c 1
 329.993164062 82 384.67578125 79.5556640625 405 95 c 1
 421.154296875 111.36328125 427.083007812 119.262695312 440 141 c 0
 445.833984375 150.817382812 450.587890625 169.423828125 455 184 c 1
 526 159 l 1
 481 -22 l 1
 462 -10 454 0 422 0 c 1
EndSplineSet
Substitution2: "case-1" Z
Substitution2: "pcap-1" z.pcap
Substitution2: "smcp-1" z.smcp
EndChar
StartChar: braceleft
Encoding: 123 123 195
Width: 266
Flags: HW
HStem: -175.7 62.4189<206.07 258.64> 647.881 62.4189<206.07 258.64>
VStem: 71.791 117.918<-98.2059 51.758 482.841 632.805> 94.291 131.418<32.5378 197.084 337.516 502.062>
LayerCount: 2
Fore
SplineSet
258.639648438 710.299804688 m 1xe0
 258.639648438 710.299804688 258.639648438 670.664433592 258.639648438 647.880859375 c 1
 232.182176589 651.221306367 189.708984375 629.710374482 189.708984375 589 c 3xe0
 189.708984375 498.769445312 225.708984375 482.467203125 225.708984375 408 c 3
 225.708984375 356.587843853 199.51329258 286.696023996 173.348632812 267.299804688 c 1
 199.51329258 247.903702051 225.708984375 178.012230622 225.708984375 126.599609375 c 3xd0
 225.708984375 52.1317828125 189.708984375 35.830900625 189.708984375 -54.400390625 c 3
 189.708984375 -95.1119387944 232.182176589 -116.621693064 258.639648438 -113.28125 c 1
 258.639648438 -175.700195312 l 1
 163.505919539 -178.738724828 71.791015625 -141.066685173 71.791015625 -5.7001953125 c 3xe0
 71.791015625 54.2272067041 94.291015625 86.5951077933 94.291015625 133.599609375 c 3
 94.291015625 173.661758319 68.0739448775 223.647885162 11.5 242.16015625 c 1
 11.5 292.439453125 l 1
 68.0739448775 310.951106962 94.291015625 360.938069872 94.291015625 401 c 3xd0
 94.291015625 448.003934096 71.791015625 480.371888713 71.791015625 540.299804688 c 3
 71.791015625 675.666331002 163.505919539 713.338331003 258.639648438 710.299804688 c 1xe0
EndSplineSet
Position2: "cpsp-1" dx=0 dy=0 dh=50 dv=100
Position2: "'case' vertical ajustments for all-caps-1" dx=0 dy=90 dh=0 dv=0
EndChar
StartChar: asciitilde
Encoding: 126 126 339
Width: 431
VWidth: 0
Flags: W
HStem: 193.834 93.2461<249.174 315.835> 263.292 92.498<115.244 189.066>
LayerCount: 2
Fore
SplineSet
28.2340700037 246.486557305 m 1x40
 63.5645087977 303.282198633 128.770830411 355.790039062 137.525390625 355.790039062 c 3x40
 172.755292511 355.790039062 247.415444965 287.080078125 281.662109375 287.080078125 c 3
 295.296560412 287.080078125 332.575435387 318.160529484 352.199614153 352.771699927 c 1
 404.33245 310.140407123 l 1
 374.062312558 257.51585224 318.450603611 193.833984375 303.41796875 193.833984375 c 3x80
 269.417193706 193.833984375 183.061329467 263.291992188 150.959960938 263.291992188 c 3
 134.598620047 263.291992188 95.7573578876 226.350928264 78.5592214391 203.283021586 c 1
 28.2340700037 246.486557305 l 1x40
EndSplineSet
Validated: 1
Position2: "cpsp-1" dx=0 dy=0 dh=50 dv=100
Position2: "'case' vertical ajustments for all-caps-1" dx=0 dy=90 dh=0 dv=0
EndChar
StartChar: uni007F
Encoding: 127 127 817
Width: 770
Flags: HW
HStem: 0 59<338.842 413.277> 216.5 41.8262<340.536 414.478>
VStem: 425.75 306.641<257.793 462.35>
LayerCount: 2
Fore
SplineSet
377 59 m 0
 401.873507609 59 456.5 114.201143973 456.5 137.75 c 0
 456.5 159.680153461 401.274227017 216.5 377 216.5 c 0
 350.724883829 216.5 298.25 158.694566408 298.25 137.75 c 0
 298.25 104.390482397 355.612661916 59 377 59 c 0
384.896 681.619 m 0
 572.009 681.619 732.391 534.6 732.391 347.494 c 0
 732.391 147.017 565.326 0 384.896 0 c 0
 197.787 0 37.4082 133.65 37.4082 334.125 c 0
 37.4082 534.598 204.47 681.619 384.896 681.619 c 0
339.5 258.326171875 m 1
 425.75 256.41015625 l 1
 425.75 352.854746533 438.177855264 400.527120673 447.400390625 490.461914062 c 0
 452.110497462 544.629974751 450.85786817 556.983444669 460.237304688 578.087890625 c 0
 463.408203125 585.22265625 l 1
 462.165039062 592.9296875 l 0
 456.937054866 625.342450714 423.458137066 626.729886677 409.465820312 624.39453125 c 0
 389.590703915 621.077320686 367.285896774 613.379011794 336.284179688 609.551757812 c 0
 314.162109375 606.8203125 l 1
 313.271484375 584.548828125 l 0
 311.371240866 537.04123658 330.760595352 515.010307923 332.831054688 490.681640625 c 0
 338.362232103 425.609294105 339.5 346.016876657 339.5 258.326171875 c 1
EndSplineSet
EndChar
StartChar: cent
Encoding: 162 162 225
Width: 473
UnlinkRmOvrlpSave: 1
Flags: HW
LayerCount: 2
Fore
SplineSet
21 242 m 3
 21 319.202206929 44.227038684 363.632979436 88.7998046875 423.400390625 c 0
 138.66991561 490.270986569 202.71998196 514.200195312 288 514.200195312 c 3
 353.638979933 514.200195312 384.555555556 487.904424253 446 471 c 1
 409.857142857 407.366666666 390.142857143 368.633333334 354 305 c 1
 333.447089111 346.969179 264.0625 427 232 427 c 3
 222.834960938 427 205.761703885 423.477447712 199 420 c 0
 164 402 154 352.646121716 154 318 c 3
 154 251.484396644 177.957986531 111 323 111 c 3
 346.294753794 111 362.566954169 127.217382812 373.201171876 137.400390624 c 1
 390.750732422 106.87524414 402.450439454 86.5251464843 420 56 c 1
 383.532750661 32.2527131337 331.409546019 -10.7998046875 238.799804688 -10.7998046875 c 3
 155.493442647 -10.7998046875 21 63.7193224155 21 242 c 3
EndSplineSet
Refer: 753 58113 N 0.0181668 0.693762 -0.968418 0.0253589 229.417 -98.881 2
Position2: "'lnum-2' vertical adjustment" dx=0 dy=125 dh=0 dv=0
EndChar
StartChar: copyright
Encoding: 169 169 875
Width: 770
VWidth: 1159
Flags: HW
HStem: 0 69.7334<273.935 486.4> 611.886 69.7333<283.391 492.785>
VStem: 37.4082 70.5371<230.658 439.965> 661.846 70.5453<241.654 446.292>
LayerCount: 2
Fore
SplineSet
384.892578125 611.885742188 m 3
 241.091641986 611.885742188 107.9453125 494.710025938 107.9453125 334.92578125 c 3
 107.9453125 175.806349238 235.767190072 69.7333984375 384.892578125 69.7333984375 c 3
 528.696781202 69.7333984375 661.845703125 186.909811008 661.845703125 346.693359375 c 3
 661.845703125 495.20192306 534.021253526 611.885742188 384.892578125 611.885742188 c 3
384.896 681.619 m 3
 572.009 681.619 732.391 534.6 732.391 347.494 c 3
 732.391 147.017 565.326 0 384.896 0 c 3
 197.787 0 37.4082 133.65 37.4082 334.125 c 3
 37.4082 534.598 204.47 681.619 384.896 681.619 c 3
EndSplineSet
Refer: 2 99 N 0.845772 0 0 0.787072 177.085 143.87 2
EndChar
StartChar: registered
Encoding: 174 174 876
Width: 564
VWidth: 1159
Flags: W
HStem: 276.219 54.5225<192.121 369.793> 468.655 48.2227<245.379 288.714> 612.074 42.9531<248.841 317.248> 711.695 54.5225<196.008 371.604>
VStem: 33.1963 55.4102<428.898 604.275> 177.992 67.3867<371.765 468.772 518.324 589.839> 328.328 65.6025<521.849 601.331> 477.193 55.417<438.162 609.969>
LayerCount: 2
Fore
SplineSet
245.37890625 518.32421875 m 1
 261.512695312 517.948242188 269.626953125 516.877929688 285.571289062 516.877929688 c 1
 313.661132812 516.877929688 328.328125 535.418945312 328.328125 560.54296875 c 1
 328.533203125 586.771484375 308.36328125 611.270507812 272.276367188 612.07421875 c 1
 262.450195312 611.034179688 253.224609375 609.786132812 248.622070312 590.7734375 c 0
 243.8359375 571.000976562 244.501953125 540.801757812 245.37890625 518.32421875 c 1
177.099609375 651.712890625 m 1
 191.326171875 651.340820312 201.407226562 650.96484375 217.366210938 650.96484375 c 1
 246.331054688 650.96484375 259.26953125 655.02734375 292.215820312 655.02734375 c 1
 347.229492188 655.02734375 393.930664062 615.983398438 393.930664062 566.790039062 c 1
 393.930664062 524.495117188 367.830078125 495.41796875 337.399414062 480.478515625 c 1
 378.166015625 442.271484375 400.3515625 411.314453125 437.10546875 406.673828125 c 1
 431.510742188 366.610351562 l 1
 364.2109375 369.641601562 313.928710938 412.822265625 272.869140625 468.655273438 c 1
 261.517578125 468.625 256.513671875 468.743164062 245.37890625 468.772460938 c 1
 245.881835938 457.299804688 247.154296875 448.92578125 247.14453125 439.236328125 c 0
 247.130859375 425.364257812 247.063476562 423.659179688 246.892578125 421.012695312 c 1
 247.385742188 370.591796875 l 1
 224.828125 377.208007812 200.38671875 377.955078125 177.678710938 371.764648438 c 1
 177.489257812 421.171875 l 1
 178.001953125 422.271484375 178.173828125 424.940429688 178.223632812 438.385742188 c 1
 178.072265625 475.09765625 177.9921875 498.017578125 177.9921875 521.383789062 c 3
 177.9921875 540.7265625 178.198242188 560.350585938 178.630859375 587.0390625 c 1
 178.47265625 604.942382812 178.227539062 609.072265625 177.099609375 609.716796875 c 1
 177.099609375 651.712890625 l 1
282.897460938 711.6953125 m 3
 182.037109375 711.6953125 88.6064453125 629.452148438 88.6064453125 517.3984375 c 3
 88.6064453125 405.426757812 177.985351562 330.741210938 282.897460938 330.741210938 c 3
 383.762695312 330.741210938 477.193359375 412.986328125 477.193359375 525.040039062 c 3
 477.193359375 629.390625 387.65234375 711.6953125 282.897460938 711.6953125 c 3
282.900390625 766.217773438 m 3
 417.215820312 766.217773438 532.610351562 660.678710938 532.610351562 525.927734375 c 3
 532.610351562 381.82421875 412.581054688 276.21875 282.900390625 276.21875 c 3
 148.763671875 276.21875 33.1962890625 372.307617188 33.1962890625 516.508789062 c 3
 33.1962890625 660.612304688 153.223632812 766.217773438 282.900390625 766.217773438 c 3
EndSplineSet
Validated: 37
EndChar
StartChar: paragraph
Encoding: 182 182 76
Width: 558
VWidth: 1159
UnlinkRmOvrlpSave: 1
Flags: HW
LayerCount: 2
Back
SplineSet
380.916015625 673 m 5
 439.700195312 681 l 5
 429.700195312 45 l 5
 372.916015625 57 l 5
 380.916015625 673 l 5
514.700195312 741 m 5
 516.700195312 645.868164062 l 5
 631.400390624 661.85583496 378.250921942 678.677249774 307.700195312 630.82421875 c 4
 278.518565035 611.612409562 313.623046876 569.003163213 313.623046876 283 c 7
 313.623046876 137.492773437 280.755383885 89.7486456623 295.700195312 81.1318359385 c 4
 305.896629134 90.8937262171 394.667480468 82.7984519139 454.047851562 83.1318359375 c 5
 438.700195312 -10 l 5
 227.348059741 33.9285855587 188.219772137 69.9952770416 128.700195312 131 c 4
 70.7001953125 197 26.0919035528 278.498610671 25.7001953125 343 c 4
 25.6014772944 359.255591946 21.2998046875 370.966885604 21.2998046875 382.532226562 c 5
 21.2998046875 385.723904542 22.4685985993 393.197848545 24.7001953125 399 c 4
 54.7001953125 477 105.842800187 586.795342609 206.700195312 657 c 4
 308.700195312 728 514.700195312 741 514.700195312 741 c 5
EndSplineSet
Fore
SplineSet
361.916015625 673 m 1
 426.700195312 681 l 1
 416.700195312 45 l 1
 353.916015625 57 l 1
 361.916015625 673 l 1
514.700195312 741 m 1
 516.700195312 645.868164062 l 1
 425 647 347.250976562 666.677734375 294.700195312 618.82421875 c 0
 268.867814313 595.300872029 272.623046875 569.002929688 272.623046875 283 c 3
 272.623046875 137.493164062 267.755859375 125.749023438 282.700195312 117.131835938 c 0
 294.928710938 110.081054688 394.667480468 82.7984519139 454.047851562 83.1318359375 c 1
 438.700195312 -10 l 1
 227.348059741 33.9285855587 188.219772137 69.9952770416 128.700195312 131 c 0
 70.7001953125 197 26.0919035528 278.498610671 25.7001953125 343 c 0
 25.6014772944 359.255591946 21.2998046875 370.966885604 21.2998046875 382.532226562 c 1
 21.2998046875 385.723904542 22.4685985993 393.197848545 24.7001953125 399 c 0
 54.7001953125 477 105.842800187 586.795342609 206.700195312 657 c 0
 308.700195312 728 514.700195312 741 514.700195312 741 c 1
EndSplineSet
Position2: "cpsp-1" dx=0 dy=0 dh=50 dv=100
EndChar
StartChar: AE
Encoding: 198 198 2300
Width: 1046
Flags: HW
AnchorPoint: "Top" 580.585 699 basechar 0
AnchorPoint: "Bottom" 569.957 -15 basechar 0
LayerCount: 2
Fore
SplineSet
492.9375 589.375976562 m 1
 298.040039062 253.374023438 l 1
 365.397460938 252.533203125 452.731445312 258.856445312 506.52734375 259.260742188 c 1
 506.596679688 348.650390625 506.291026322 582.043945546 506.216796875 585.430664062 c 0
 506.177734375 587.212890625 500.415039062 588.4453125 492.9375 589.375976562 c 1
377.501953124 684.431640624 m 1
 487.3671875 681.060546876 548.201171876 679.279296876 711.35546875 679.279296876 c 1
 814.125 679.279296876 908.353515624 681.24609375 932.162109376 687.431640624 c 1
 954.330078124 670.810546876 961.369140624 661.458984376 961.369140624 647.671875 c 1
 961.369140624 629.78515625 944.462890624 604.69921875 941.98046875 543.28125 c 1
 877.48828125 529.626953124 l 1
 871.359375 558.599609376 872.863761915 571.56130025 856.4921875 576.416015624 c 0
 801.224609376 592.8046875 752.71484375 601.1015625 708.94140625 601.1015625 c 1
 706.638671876 601.1015625 703.794574636 599.330995653 691.013671876 597.60546875 c 0
 682.6953125 596.482421876 677.572541723 593.908335295 677.5703125 582.021484376 c 0
 677.556640624 509.119140624 673.205078124 449.9375 672.205078124 382.55859375 c 1
 717.427734376 384.76171875 807.484431806 380.819344845 813.05859375 381.298828124 c 0
 821.119140624 381.9921875 820.57421875 404.37890625 831.259765624 435.787109376 c 1
 910.17578125 418.994140624 l 1
 901.908203124 386.462890624 898.525390624 358.041015624 898.525390624 327.869140624 c 1
 898.525390624 306.908203124 900.66015625 285.828125 905.400390624 262.33984375 c 1
 829.7890625 238.234375 l 1
 812.1328125 281.3828125 820.533980001 300.585024561 813.052734376 300.5625 c 0
 779.96875 300.462890624 724.728515624 297.5859375 668.55078125 299.75390625 c 1
 668.376953124 209.201171876 666.699010801 168.714486836 670.291015624 108.751953125 c 0
 671.169921876 94.080078125 677.345737517 93.1584225382 683.15234375 91.552734375 c 0
 696 88 726.999999398 88.00390625 739.66796875 88.00390625 c 3
 750.000000738 88.00390625 788 89 797.5390625 89.9453125 c 0
 853.90625 95.53125 871.08203125 87.214315269 929.068359376 170.09375 c 1
 995.044921876 156.470703124 l 1
 980.83984375 96.359375 965.763671876 60.451171875 953.61328125 3.873046875 c 1
 861.943359376 1.625 766.44140625 5.607421875 675.70703125 5.607421875 c 1
 591.136697257 5.607421875 539.209075058 0.1953125 474.15625 -13.763671875 c 1
 446 71 l 1
 473.528340948 76.9429932234 506.167458095 90.6402233608 506.185546876 97.353515625 c 1
 506.498046876 118.45145132 506.548828125 136.472656251 506.452148438 184.197265625 c 1
 418.833984375 184.956054688 372.44140625 187.465820312 260.6484375 190.515625 c 1
 223.916015624 126.34375 l 2
 207.583027364 97.809871006 218.478515625 85.9794921875 250.80859375 80.365234375 c 1
 245.06640625 -5.9677734375 l 1
 215.038085938 0.8916015625 164.807617188 3.4072265625 129.09375 3.4072265625 c 0
 100.141601562 3.4072265625 71.599609375 1.6005859375 47.0693359375 -1.1396484375 c 1
 45.2412109375 15.41015625 40.1552734375 47.904296875 36.4140625 71.451171875 c 1
 84.6826171875 88.794921875 97.2909124627 103.175980223 111.931640624 126.794921875 c 2
 401.518554688 593.966796875 l 1
 388.638671875 594.375 389.677734376 593.41796875 373.680664062 594.421875 c 1
 377.501953124 684.431640624 l 1
EndSplineSet
Position2: "cpsp-1" dx=0 dy=0 dh=50 dv=100
Substitution2: "c2pc-1" ae.pcap
Substitution2: "c2sc-1" ae.smcp
EndChar
StartChar: germandbls
Encoding: 223 223 382
Width: 601
Flags: HW
LayerCount: 2
Fore
SplineSet
298 749 m 3
 405.82001954 749 476 667.537974416 476 592 c 3
 476 503.044819761 410 416.910447761 410 405 c 3
 410 378.413793104 427.618810345 354.471362553 490 329 c 0
 575.46728422 294.102169502 599 218.647366319 599 151 c 3
 599 48.6338028169 506.409574468 -7 430 -7 c 3
 374 -7 332 6 291 19 c 1
 291 40 288.594726562 60.9404296875 285 87 c 0
 281 116 271 144 265 159 c 1
 325 175 l 1
 336.473684211 134.82 411.348590167 77 434 77 c 3
 449.231546212 77 455 104.677985922 455 118 c 3
 455 153.020833333 447.847934104 184.063761051 416 200 c 0
 361.223021583 227.409596306 275 241.670886076 275 367 c 3
 275 425.008620049 364 443.851117221 364 547 c 3
 364 624.400824866 288.783402472 647 233 647 c 3
 190.177427992 647 201.708165507 622.789052438 197 549 c 0
 191.926757812 469.489257812 180 391.274414062 180 304 c 3
 180 240.381835938 191.030273438 156.515625 198 114 c 0
 201.649414062 91.73828125 222.235351562 82.1884765625 224 81 c 0
 241 75 l 1
 236 -7 l 1
 204.033203125 -2.5556640625 169.427631579 1 133 1 c 3
 97.6542056075 1 42.9252336449 -4 11 -7 c 1
 9 69 l 1
 15.6315789474 69.6666666666 22.068573857 69.5723432943 30 71 c 0
 40 72.8 43.537109375 81.8916015625 46 90 c 0
 62 142.680664062 70 216.666992188 70 280 c 3
 70 306.465820312 70 385.936523438 66 434 c 1
 44.4931640625 435 33.1948051949 436 9 437 c 1
 9 493 l 1
 30.2837837838 494.5 41.2705078125 499 60 502 c 1
 56 542.932617188 54 555.796875 54 571 c 3
 54 621.359375 115.749512943 648.417501224 180 696 c 0
 211.363304733 719.22697426 277.616666667 749 298 749 c 3
EndSplineSet
Substitution2: "pcap-1" uni1E9E.pcap
Substitution2: "case-1" uni1E9E
Substitution2: "smcp-1" uni1E9E.smcp
MultipleSubs2: "case-2" S S
EndChar
StartChar: ae
Encoding: 230 230 20
Width: 672
Flags: HW
AnchorPoint: "Bottom" 331 -15 basechar 0
AnchorPoint: "Top" 340 537 basechar 0
LayerCount: 2
Fore
SplineSet
449 427 m 1
 428.105589703 427 397.536132812 400.12890625 388 323 c 1
 494 340 l 2
 497.0625 340.154296875 498.125 342.998046875 498 346 c 0
 495.826171875 398.046875 462.840868217 427 449 427 c 1
247.482421875 241.725585938 m 1
 240 241 231.183631652 240.164573868 220 238 c 0
 189 232 166 212.666666667 166 187 c 3
 166 100.350004648 215.849609375 97 250 97 c 3
 252.278320312 97 267.129882812 98.10546875 260.828125 112.909179688 c 1
 243.522460938 166.366210938 245.393554688 195.712890625 247.482421875 241.725585938 c 1
388 257 m 1
 388 173.499023438 440.93080606 98 506 98 c 3
 517.328097683 98 563.169179779 131.514285714 578 167 c 1
 646 115 l 1
 612.822180294 56 546.520763805 -12 449 -12 c 3
 383.361690507 -12 334.245075057 14.8494689364 302.797404464 38.0099867672 c 1
 249.592077842 7.6918484271 200.06751328 -10 139 -10 c 3
 42 -10 30 56 30 112 c 3
 30 140.209960938 28.8158705163 181.17565471 42 203 c 0
 50.8357824414 217.626310152 59.9429618966 229.260050568 70 236 c 0
 151.279569892 290.471324983 196.47265625 288.416992188 245 301 c 1
 245.501953125 303.974609375 245 314.381835938 245 318 c 0
 245 330 244.932617188 355.428710938 241 368 c 0
 238.9375 374.592773438 227.461914062 420 200 420 c 3
 193.67544468 420 191 412 191 405 c 3
 191 397 194 390 194 390 c 1
 50 345 l 1
 50 346 39 368 39 385 c 3
 39 409 49.9518251524 430.640132204 72 453 c 0
 93 474.296875 206 525 258 525 c 3
 273.328125 525 301.146484375 508.123046875 338 472 c 1
 381.140625 502.502929688 442.782619872 517 483 517 c 3
 548.571056277 517 620.880215721 458.479137116 636 366 c 0
 637.995810736 353.792758727 642 347 648 346 c 1
 648 273 l 1
 553.934444518 267.395128038 473.24609375 264.92578125 388 257 c 1
EndSplineSet
Substitution2: "pcap-1" ae.pcap
Substitution2: "case-1" AE
Substitution2: "smcp-1" ae.smcp
EndChar
StartChar: Eogonek
Encoding: 280 280 2335
Width: 683
UnlinkRmOvrlpSave: 1
Flags: HW
AnchorPoint: "Top" 349 679 basechar 0
LayerCount: 2
Fore
SplineSet
84.7490234375 683.784179688 m 1
 148.499023438 680.969726562 253.08984375 678.860351562 349.322265625 678.860351562 c 0
 452.4375 678.860351562 546.323242188 680.876953125 570.418945312 686.784179688 c 1
 592.334960938 671.094726562 599.315429688 659.270507812 599.315429688 646.6640625 c 0
 599.315429688 626.172146794 579.268554688 599.55149697 577.509765625 528.859375 c 1
 513.755859375 514.686523438 l 1
 506.3203125 550.172948126 510.416865804 571.766606346 494 577 c 0
 445.092498056 592.590808464 401.436008537 601.212890625 362 601.212890625 c 0
 359.022656413 601.212890625 351.275477704 602.500491884 329.278320312 596.708007812 c 0
 321.45703125 594.6484375 315.220281531 592.555360773 315 582 c 0
 313.506835937 510.451171875 310 448.810546875 309 382 c 1
 353.888671875 381.8984375 445.06756392 381.753431416 449.970703125 382.350585938 c 0
 459.440429688 383.50390625 456.712890625 402.310546875 467.870117188 434.606445312 c 1
 546.912109375 419.002929688 l 1
 539.045898438 387.268554688 534.737304688 356.479492188 534.737304688 326.565429688 c 0
 534.737304688 307.045898438 538.169921875 286.0859375 543.299804688 261.830078125 c 1
 467.10546875 237.8828125 l 1
 450.43359375 280.80859375 459.735173537 299.586930603 451.473632812 299.71875 c 0
 417.015625 300.268554688 360.635742188 299.70703125 304.724609375 298.623046875 c 1
 304.811523438 214.899414062 307.939245587 172.423883069 306.930664062 116.400390625 c 0
 306.491210938 91.9901687824 313.954446552 90.7235990613 320 90 c 0
 349.845703125 86.427734375 342.033203125 85.998046875 377.166015625 85.998046875 c 0
 417.05795984 85.998046875 422.035419916 87.3343243143 441 90 c 0
 493.333880446 97.3560897223 514 105.168539326 565 180 c 1
 632 165 l 1
 598.95000533 8.50641741904 567.831969652 8.50724886225 543 0 c 0
 522 -9.33333333333 511 -28.3729905681 511 -48 c 3
 511 -65.812368484 520.017273906 -79.6641989652 528.33203125 -82.744140624 c 0
 530.342007738 -83.4886735144 546.614257812 -86.2578125 547.97265625 -86.599609375 c 1
 547.97265625 -86.599609375 568.92578125 -116.5703125 574 -140 c 1
 556.876961148 -165.004882812 519.792574642 -177.110207172 475.771484375 -177 c 0
 441.18279438 -176.913406922 410.561523438 -148.507143614 410.561523438 -100.834960938 c 0
 410.561523438 -68.2447228743 420.359116106 -32.5138943941 443.057830087 -0.86678152169 c 1
 399.330302246 -0.990518699134 355.757053778 -1.3037109375 313.146484375 -1.3037109375 c 0
 232.9140625 -1.3037109375 157.83203125 -0.09765625 96.921875 -14.1181640625 c 1
 83 61 l 1
 120.6796875 69.3759765625 142.969371716 82.9172262368 142.907226562 90.8232421875 c 0
 142.612304688 128.342773438 144.438476562 224.9921875 144.438476562 346.059570312 c 0
 144.438476562 465.973588686 142.635658715 574.346373789 142.783203125 584.569335938 c 0
 142.868164062 590.456054688 91.497070312 589.822265625 82.3193359375 593.578125 c 1
 84.7490234375 683.784179688 l 1
EndSplineSet
Position2: "cpsp-1" dx=0 dy=0 dh=50 dv=100
Substitution2: "c2pc-1" eogonek.pcap
Substitution2: "c2sc-1" eogonek.smcp
EndChar
StartChar: eogonek
Encoding: 281 281 311
Width: 513
UnlinkRmOvrlpSave: 1
Flags: HW
HStem: -177.1 75.1279<284.727 371.339>
VStem: 225.79 79.4385<-124.77 -19.8732>
AnchorPoint: "Top" 209 465 basechar 0
LayerCount: 2
Fore
SplineSet
384.859375 35.443359375 m 1
 320.1875 -10 305.228515625 -48.1767578125 305.228515625 -67.099609375 c 3
 305.228515625 -88.9921875 318.544921875 -101.971679688 335.39453125 -101.971679688 c 3
 344.369140625 -101.971679688 355.14453125 -98.4560546875 366.201171875 -90.69921875 c 1
 366.201171875 -90.69921875 387.154296875 -118.986328125 392.228515625 -141.099609375 c 1
 371.802734375 -166.104492188 337.389648438 -177.099609375 306 -177.099609375 c 3
 263.454101562 -177.099609375 225.790039062 -148.606445312 225.790039062 -100.934570312 c 3
 225.790039062 -34.5546875 272.109375 43.14453125 359.228515625 85.900390625 c 1
 384.859375 35.443359375 l 1
EndSplineSet
Refer: 268 101 N 1 0 0 1 0 0 3
Substitution2: "smcp-1" eogonek.smcp
Substitution2: "case-1" Eogonek
Substitution2: "pcap-1" eogonek.pcap
EndChar
StartChar: Iogonek
Encoding: 302 302 2363
Width: 453
UnlinkRmOvrlpSave: 1
Flags: HW
HStem: -177.1 78.1279<217.08 318.667> -3.31152 21G<70.796 97.1929 361.963 388.663> 4.44336 50.457<280.718 299.176> 6.7168 668.642<155.364 309.25> 672.709 20G<76.3777 104.046 362.706 391.894>
VStem: 144.182 98.4385<-124.77 -33.6343> 154.403 155.869<90.577 590.006>
LayerCount: 2
Fore
SplineSet
321.250976562 4.443359375 m 1xa4
 252.921875 -20.4560546875 242.620117188 -53.8974609375 242.620117188 -67.099609375 c 3
 242.620117188 -87.1083984375 255.936523438 -98.9716796875 272.786132812 -98.9716796875 c 3
 284.96484375 -98.9716796875 299.587890625 -96.3916015625 314.592773438 -90.69921875 c 1
 314.592773438 -90.69921875 335.545898438 -118.986328125 340.620117188 -141.099609375 c 1
 317.588867188 -166.104492188 278.786132812 -177.099609375 243.391601562 -177.099609375 c 3
 190.766601562 -177.099609375 144.181640625 -148.606445312 144.181640625 -100.934570312 c 3
 144.181640625 -45.568359375 186.53515625 19.23828125 295.620117188 54.900390625 c 1
 321.250976562 4.443359375 l 1xa4
EndSplineSet
Refer: 2355 73 N 1 0 0 1 0 0 3
Position2: "cpsp-1" dx=0 dy=0 dh=50 dv=100
Substitution2: "c2pc-1" iogonek.pcap
Substitution2: "c2sc-1" iogonek.smcp
EndChar
StartChar: iogonek
Encoding: 303 303 443
Width: 331
UnlinkRmOvrlpSave: 1
Flags: HW
HStem: -177.1 75.1279<161.727 248.339> 601.225 155.55<148.029 267.971>
VStem: 102.79 79.4385<-124.77 -30.3803> 128.7 158.6<620.246 737.827>
LayerCount: 2
Fore
SplineSet
260.859375 5.443359375 m 1xe0
 192.530273438 -24.8740234375 182.228515625 -53.712890625 182.228515625 -67.099609375 c 3
 182.228515625 -88.9921875 195.544921875 -101.971679688 212.39453125 -101.971679688 c 3
 221.369140625 -101.971679688 232.14453125 -98.4560546875 243.201171875 -90.69921875 c 1
 243.201171875 -90.69921875 264.154296875 -118.986328125 269.228515625 -141.099609375 c 1
 248.802734375 -166.104492188 214.389648438 -177.099609375 183 -177.099609375 c 3
 140.454101562 -177.099609375 102.790039062 -148.606445312 102.790039062 -100.934570312 c 3
 102.790039062 -45.2138671875 139.830078125 20.009765625 235.228515625 55.900390625 c 1
 260.859375 5.443359375 l 1xe0
EndSplineSet
Refer: 410 105 N 1 0 0 1 0 0 3
Substitution2: "smcp-1" iogonek.smcp
Substitution2: "case-1" Iogonek
Substitution2: "pcap-1" iogonek.pcap
EndChar
StartChar: dotlessi
Encoding: 305 305 50
Width: 263
VWidth: 1159
Flags: HMW
AnchorPoint: "Bottom" 135 -15 basechar 0
AnchorPoint: "Ogonek" 189 18 basechar 0
AnchorPoint: "Top" 145 537 basechar 0
LayerCount: 2
Fore
SplineSet
199 212 m 3
 199 173.693430657 204.625 120.437956204 214 84 c 1
 214 76 233.352630557 73.5828504178 232 71 c 0
 245.31213205 64.0826904007 258.666969477 66.625 272 66 c 1
 267 -10 l 1
 220.719349779 -4.9228515625 168.795975332 1 118 1 c 1
 73.7210787259 1 47.4305889423 -5.00043402778 -1 -9 c 1
 -8 62 l 1
 9.4321388712 62.125 35.1350025182 64.5169922994 51 71 c 0
 52.74528776 74.1415327582 68.0553892786 94.3973715136 70 97 c 0
 74 121.25210084 76 180.949579832 76 208 c 3
 76 227.139942808 80.0459486538 303.095039153 64 368 c 0
 62 376.944614862 60.375 385 35 385 c 1
 32.03125 385 14.34375 387 16 388 c 1
 13 466 l 1
 98.5223880597 476.818181819 138.432835821 482.227272727 204 517 c 1
 248 485 l 1
 246 466 228.244018932 440.747715858 221 421 c 0
 205 376.666826071 199 231.000382571 199 212 c 3
EndSplineSet
Validated: 33
Substitution2: "case-1" I
Substitution2: "pcap-1" i.pcap
Substitution2: "smcp-1" i.smcp
EndChar
StartChar: OE
Encoding: 338 338 346
Width: 1071
VWidth: 1159
Flags: HW
LayerCount: 2
Fore
SplineSet
357 598 m 1
 265 598 228 554 228 430 c 0
 228 276 323 71 454 71 c 1
 485.346874707 71 530.775740997 85.4701557954 530.993898432 130.885676808 c 1
 530.978231465 160.107063976 532 241.122172292 532 346 c 0
 532 377.763525114 531.85365741 409.141537767 531.472794166 455.716539868 c 1
 531.134607365 540.495225067 424.812866915 598 357 598 c 1
414 -17 m 3
 242 -17 46 99 46 330 c 0
 46 532 215 688 405 688 c 3
 499.393220236 688 534.364409664 679 737 679 c 3
 840 679 934 681 958 687 c 1
 980 671 987 660 987 647 c 0
 987 629 968 605 966 543 c 1
 902 529 l 1
 895 557 898.044533839 571.443369155 882 577 c 0
 822.105900209 599.263774477 771.632584589 607.384542272 717 597 c 0
 708.915527416 595.864332036 703.152763044 592.998939197 703 582 c 0
 702 510 698 449 697 382 c 1
 742 384 832.932167443 381.436907494 838 382 c 0
 847 383 845 403 856 435 c 1
 935 419 l 1
 927 387 923 357 923 327 c 0
 923 307 926 286 931 262 c 1
 855 238 l 1
 838 281 846.996542036 300.235192413 839 300 c 0
 805 299 749 297 693 299 c 1
 693 215 695 174.060612273 695 118 c 0
 695 103 702.10255262 103.310543862 708 102 c 0
 726 98 752 98 765 98 c 0
 774 98 814 100 823 101 c 0
 879.663836445 107.295981827 897 104 956 187 c 1
 1020 156 l 1
 1005 95 991 57 979 0 c 1
 888 -3 792 1 701 1 c 3
 514.559247147 1 494.04585211 -17.0000005711 414 -17 c 3
EndSplineSet
Position2: "cpsp-1" dx=0 dy=0 dh=50 dv=100
Substitution2: "c2pc-1" oe.pcap
Substitution2: "c2sc-1" oe.smcp
EndChar
StartChar: oe
Encoding: 339 339 560
Width: 830
UnlinkRmOvrlpSave: 1
Flags: HW
AnchorPoint: "Top" 420 537 basechar 0
AnchorPoint: "Bottom" 423 -15 basechar 0
LayerCount: 2
Fore
SplineSet
261 520 m 3
 415.325195312 520 505 379 505 254 c 3
 505 128.573242188 411.153320312 -11 261 -11 c 3
 133.329101562 -11 22 97.99609375 22 238 c 3
 22 419 163.970703125 520 261 520 c 3
227 422 m 3
 177.836914062 422 166 389.19921875 166 316 c 3
 166 200.150390625 235.733398438 81 295 81 c 3
 337.330078125 81 353 99.4248046875 353 188 c 3
 353 348.465820312 261.744140625 422 227 422 c 3
EndSplineSet
Refer: 268 101 N 1 0 0 1 333 0 2
Substitution2: "smcp-1" oe.smcp
Substitution2: "case-1" OE
Substitution2: "pcap-1" oe.pcap
EndChar
StartChar: uogonek
Encoding: 371 371 2205
Width: 599
UnlinkRmOvrlpSave: 1
Flags: HW
LayerCount: 2
Fore
SplineSet
485.859375 -0.556640625 m 1
 418.399414062 -28.3662109375 408.228515625 -54.8203125 408.228515625 -67.099609375 c 3
 408.228515625 -88.9921875 421.544921875 -101.971679688 438.39453125 -101.971679688 c 3
 447.369140625 -101.971679688 458.14453125 -98.4560546875 469.201171875 -90.69921875 c 1
 469.201171875 -90.69921875 490.154296875 -118.986328125 495.228515625 -141.099609375 c 1
 474.802734375 -166.104492188 440.389648438 -177.099609375 409 -177.099609375 c 3
 366.454101562 -177.099609375 328.790039062 -148.606445312 328.790039062 -100.934570312 c 3
 328.790039062 -47.3447265625 365.55078125 15.3828125 460.228515625 49.900390625 c 1
 485.859375 -0.556640625 l 1
EndSplineSet
Refer: 786 117 N 1 0 0 1 0 0 3
Substitution2: "smcp-1" uogonek.smcp
Substitution2: "case-1" Uogonek
Substitution2: "pcap-1" uogonek.pcap
EndChar
StartChar: longs
Encoding: 383 383 496
Width: 381
Flags: HW
AnchorPoint: "Top" 232 735 basechar 0
AnchorPoint: "Bottom" 169 -15 basechar 0
LayerCount: 2
Back
SplineSet
340 749 m 3
 377 749 420 733 452 696 c 1
 461.379882812 647.9296875 406.55859375 594.919921875 370 574 c 1
 335.829101562 617.37890625 290.556640625 648 273 648 c 3
 233.329101562 648 236.162109375 622.250976562 235 556 c 0
 233.896101937 492.825739425 226 361.384564748 226 304 c 3
 226 233.611328125 227.680664062 132.383789062 247 95 c 0
 253.413085938 82.58984375 273.912109375 73.908203125 281 74 c 0
 290.532226562 74.158203125 291.4765625 74 301 74 c 1
 296 -8 l 1
 253 -3 193 0 144 0 c 1
 113.295898438 0 64.9130859375 -4 37 -7 c 1
 35 71 l 1
 38.2001953125 71 50.953125 69.4970703125 55 71 c 0
 65 74.7138671875 79.0302734375 82.83984375 83 90 c 0
 103 126.072265625 107 216.430664062 107 280 c 3
 107 306.079101562 107 385.1875 103 433 c 1
 84.6103515625 431 54.6884765625 427 34 425 c 1
 34 509 l 1
 51.9052734375 505.698242188 83.2431640625 501.993164062 99 500 c 1
 99 527.407226562 98 545.220703125 98 558 c 3
 98 622 158.947265625 657.155273438 220 697 c 0
 252.173828125 717.997070312 303 749 340 749 c 3
EndSplineSet
Fore
SplineSet
340 749 m 3
 377 749 420 733 452 696 c 1
 461.379882812 647.9296875 406.55859375 594.919921875 370 574 c 1
 335.829101562 617.37890625 290.556640625 648 273 648 c 3
 233.329101562 648 236.157661523 622.251054432 235 556 c 0
 233.896101937 492.825739425 226 361.384564748 226 304 c 3
 226 233.611328125 227.681333454 132.384134985 247 95 c 0
 253.413085938 82.58984375 273.912491016 73.8823710219 281 74 c 0
 290.532226562 74.158203125 291.4765625 74 301 74 c 1
 296 -8 l 1
 253 -3 193 0 144 0 c 1
 113.295898438 0 64.9130859375 -4 37 -7 c 1
 35 71 l 1
 38.2001953125 71 50.953133466 69.4970475167 55 71 c 0
 65 74.7138671875 79.0301442207 82.8399153918 83 90 c 0
 103 126.072265625 107 216.430664062 107 280 c 3
 107 306.079101562 107 385.1875 103 433 c 1
 86.7424847147 433 60.2898126132 433 42 433 c 1
 42 501 l 1
 57.701547476 500.633138021 85.1824669471 500.221462674 99 500 c 1
 99 527.407226562 98 545.220703125 98 558 c 3
 98 622 158.946855538 657.155901808 220 697 c 0
 252.173828125 717.997070312 303 749 340 749 c 3
EndSplineSet
Substitution2: "case-1" S
Substitution2: "pcap-1" s.pcap
Substitution2: "smcp-1" s.smcp
EndChar
StartChar: uni0190
Encoding: 400 400 1188
Width: 604
Flags: HW
HStem: -9 42<238.849 404.906> 336 37<277.384 392.524> 659 40<222.787 396.759>
VStem: 42.4189 109.718<129.469 269.83> 75.9912 98.1514<452.02 599.049> 484 33<522.188 588.436> 524 27<150.932 169.074>
LayerCount: 2
Fore
SplineSet
190 365 m 1xf6
 112.853249713 393.582951861 75.9912109375 457.149360892 75.9912109375 521.239257812 c 0
 75.9912109375 609.621858825 153.293519379 699 298 699 c 3
 360 699 395 695 454 678 c 0
 495 667 512 673 527 678 c 1
 554 664 l 1
 516 604 517 567 517 545 c 0
 517 525 516 518 484 518 c 9
 469 555 481 593 447 614 c 0
 393 646 350 659 284 659 c 3
 216.570013704 659 174.142578125 603.044654777 174.142578125 539.03515625 c 0xee
 174.142578125 478.194100338 194 372.698661326 394 373 c 1
 394 360.358891404 393.205581613 348.017136253 391.797851562 336 c 1
 179.519459718 335.595283779 152.13671875 290.419319569 152.13671875 211.142578125 c 0
 152.13671875 127.565218888 221.30931019 33 303 33 c 3
 405 33 487 86 524 175 c 9
 551 167 l 1
 542 120 534 94 522 47 c 1
 459 16 382 -9 289 -9 c 3
 153.121018851 -9 42.4189453125 93.2334738441 42.4189453125 196.389648438 c 0
 42.4189453125 260.252462272 84.8481287359 324.468921415 190 365 c 1xf6
EndSplineSet
Position2: "cpsp-1" dx=0 dy=0 dh=50 dv=100
EndChar
StartChar: Ohorn
Encoding: 416 416 758
Width: 819
VWidth: 1159
UnlinkRmOvrlpSave: 1
Flags: HW
LayerCount: 2
Fore
SplineSet
631.33984375 633.54296875 m 3
 631.33984375 662.788862179 610.5234375 685.889508929 572.12109375 723.88671875 c 1
 613.99609375 778.1640625 664.752970668 808.537109376 717.255859376 808.537109376 c 3
 796.879559699 808.537109376 842.83203125 746.215704007 842.83203125 686.196289062 c 3
 842.83203125 608.349609375 749.942382812 553.314453125 675.782226562 553.314453125 c 3
 653.22265625 553.314453125 636.084960938 555.923828125 622.26953125 560.771484375 c 1
 613.138671875 570.870117188 586.766601562 620.385742188 582.537109375 639.822265625 c 1
 606.710818501 626.99353357 638.940933086 614.948242188 663.1640625 614.948242188 c 3
 644.749680151 614.948242188 631.33984375 602.341796876 631.33984375 633.54296875 c 3
EndSplineSet
Refer: 40 79 N 1 0 0 1 0 0 2
Position2: "cpsp-1" dx=0 dy=0 dh=50 dv=100
Substitution2: "c2pc-1" ohorn.pcap
Substitution2: "c2sc-1" ohorn.smcp
EndChar
StartChar: ohorn
Encoding: 417 417 448
Width: 550
VWidth: 0
UnlinkRmOvrlpSave: 1
Flags: HW
LayerCount: 2
Fore
SplineSet
368.879882812 496.864257812 m 5
 392.763671875 483.794921875 424.607421875 471.524414062 448.540039062 471.524414062 c 7
 435.451890675 471.524414062 418 463.334585732 418 491 c 7
 418 517.881256797 398.745886536 539.323851648 366.80078125 574.041015624 c 5
 399.599826352 619.803834507 446.719364944 645.8125 492.015625 645.8125 c 7
 563.978527016 645.8125 605.510742188 589.356176751 605.510742188 539.022460938 c 7
 605.510742188 468.252707867 521.06537909 418.220703125 453.647460938 418.220703125 c 7
 433.138671875 418.220703125 417.559570312 420.592605924 405 425 c 5
 396.69921875 434.180333272 372.724609375 479.194414219 368.879882812 496.864257812 c 5
EndSplineSet
Refer: 14 111 N 1 0 0 1 0 0 2
Substitution2: "smcp-1" ohorn.smcp
Substitution2: "case-1" Ohorn
Substitution2: "pcap-1" ohorn.pcap
EndChar
StartChar: Uhorn
Encoding: 431 431 760
Width: 824
VWidth: 1159
UnlinkRmOvrlpSave: 1
Flags: HW
AnchorPoint: "Top" 431 679 basechar 0
AnchorPoint: "Bottom" 428 -15 basechar 0
LayerCount: 2
Back
SplineSet
794.526367188 589.262695312 m 7
 736.900162104 589.262695312 719.244867148 594.959739354 722 561 c 4
 722.957389825 549.359720025 727.21500584 447.428171143 723.864257812 262.171875 c 4
 722.443358056 183.613110281 695.563595349 125.455627531 655.375976562 77.8818359375 c 4
 603.011910167 15.8936600558 522.487832949 -13.3974609375 427.2265625 -13.3974609375 c 7
 310.929774508 -13.3974609375 232.235938181 22.3416669837 180.645507812 78.3115234375 c 4
 141.089364791 121.225521846 125.445007728 177.636148655 121.482421875 245.9140625 c 4
 119.535812379 279.455401514 120.754859496 565.138558688 117.06640625 579.334960938 c 4
 113.882929154 591.587772183 102.84197544 591.093552824 50.654296875 596.09765625 c 5
 58.396484375 686 l 5
 88.536409078 681.35792022 136.256765895 678.908203125 184.989257812 678.908203125 c 7
 237.128036372 678.908203125 290.144670804 680.900160555 329.811523438 685.0859375 c 5
 331.381835938 601.18359375 l 5
 296.42574504 602.903988925 287.668611991 609.98251365 284.583007812 591.233398438 c 4
 282.20187222 576.764859068 286 343 287.690429688 266.7421875 c 4
 288.478634314 231.185097474 296.452351655 193.369882618 304.4453125 177.181640624 c 4
 331.84020735 121.69842285 391.973688765 101 468 101 c 7
 513.828389641 101 557.882893364 121.792999792 582.677734375 159.353515625 c 4
 599.674804688 185.1015625 608.434155107 217.883075466 614.56640625 262.6875 c 4
 622 317 618.490595129 491.441596652 617.560546875 575.21484375 c 4
 617.363048471 593.004332114 602 595 538.494140625 595.26953125 c 5
 540.494140625 686.171875 l 5
 584.863866997 685.327495018 633.999023438 684.625 706.662109375 684.625 c 7
 721.004882812 684.625 725.280273438 694.62888456 725.280273438 722.12109375 c 4
 725.280273438 744.526993644 713.901774168 760.079088778 701.185546876 793.45703125 c 5
 738.168178593 815.971480373 779.21473557 827.462890624 816.923828124 827.462890624 c 4
 899.577129157 827.462890624 945.194335938 770.076514707 945.194335938 712.498046875 c 5
 945.194335938 627.579748287 863.503507876 589.262695312 794.526367188 589.262695312 c 7
EndSplineSet
Fore
SplineSet
794.526367188 589.262695312 m 3
 736.900162104 589.262695312 719.244867148 594.959739354 722 561 c 0
 722.957389825 549.359720025 727.21500584 447.428171143 723.864257812 262.171875 c 0
 722.443358056 183.613110281 695.563595349 125.455627531 655.375976562 77.8818359375 c 0
 603.011910167 15.8936600558 522.487832949 -13.3974609375 427.2265625 -13.3974609375 c 3
 310.929774508 -13.3974609375 232.235938181 22.3416669837 180.645507812 78.3115234375 c 0
 141.089364791 121.225521846 125.445007728 177.636148655 121.482421875 245.9140625 c 0
 119.535812379 279.455401514 120.754859496 565.138558688 117.06640625 579.334960938 c 0
 113.882929154 591.587772183 102.84197544 591.093552824 50.654296875 596.09765625 c 1
 58.396484375 686 l 1
 88.536409078 681.35792022 136.256765895 678.908203125 184.989257812 678.908203125 c 3
 237.128036372 678.908203125 290.144670804 680.900160555 329.811523438 685.0859375 c 1
 331.381835938 601.18359375 l 1
 296.42574504 602.903988925 287.668611991 609.98251365 284.583007812 591.233398438 c 0
 282.20187222 576.764859068 286 343 287.690429688 266.7421875 c 0
 288.478634314 231.185097474 296.452351655 193.369882618 304.4453125 177.181640624 c 0
 331.84020735 121.69842285 391.973688765 101 468 101 c 3
 513.828389641 101 557.882893364 121.792999792 582.677734375 159.353515625 c 0
 599.674804688 185.1015625 608.434155107 217.883075466 614.56640625 262.6875 c 0
 622 317 618.490595129 491.441596652 617.560546875 575.21484375 c 0
 617.363048471 593.004332114 602 595 538.494140625 595.26953125 c 1
 540.494140625 686.171875 l 1
 584.863866997 685.327495018 633.999023438 684.625 706.662109375 684.625 c 3
 721.004882812 684.625 725.280273438 694.62888456 725.280273438 722.12109375 c 0
 725.280273438 744.526993644 713.901774168 760.079088778 701.185546876 793.45703125 c 1
 738.168178593 815.971480373 779.21473557 827.462890624 816.923828124 827.462890624 c 0
 899.577129157 827.462890624 945.194335938 770.076514707 945.194335938 712.498046875 c 1
 945.194335938 627.579748287 863.503507876 589.262695312 794.526367188 589.262695312 c 3
EndSplineSet
Position2: "cpsp-1" dx=0 dy=0 dh=50 dv=100
Substitution2: "c2pc-1" uhorn.pcap
Substitution2: "c2sc-1" uhorn.smcp
EndChar
StartChar: uhorn
Encoding: 432 432 449
Width: 539
VWidth: 1159
UnlinkRmOvrlpSave: 1
Flags: HW
LayerCount: 2
Fore
SplineSet
418 471 m 1
 436.151176082 476.109572141 462.351754636 482.835918129 478.540039062 487.524414062 c 1
 448.473309096 481.048828124 448 470.48952419 448 495 c 1
 448 522.204967395 428.40888699 544.953948128 395.80078125 579.041015624 c 1
 429.123710648 629.267163292 476.995868293 657.8125 523.015625 657.8125 c 3
 594.344465359 657.8125 635.510742188 596.576324346 635.510742188 543.022460938 c 3
 635.510742188 473.880913922 555 437 472 425 c 1
 456.401545719 425 444.552484191 425 435 429 c 1
 431.093221943 434.365309671 419.809527672 460.67312189 418 471 c 1
276 476 m 1
 345.890576859 479.409028369 421.486506933 481.200696221 478.540039062 487.524414062 c 1
 496 512 l 1
 471.82718894 472.275015214 461 399.408048863 461 208 c 3
 461 170.395096009 459 134.790123456 473 101 c 1
 475.666666667 90 480 88 487 88 c 3
 497.325581396 88 517.209302326 83.6363636365 530 83 c 1
 532 16 l 1
 509.484848485 8.4358151476 449.420274307 -1.13453110232 423 -17 c 0
 421.316984744 -18.1329400898 411.375 -22 405 -22 c 3
 365.286927292 -22 348.124274661 12.6857142858 342 34 c 1
 304.188235294 16.6206896552 253.976470589 -8 208 -8 c 3
 163.661016949 -8 120.220338983 14 96 53 c 1
 79 84 72 116.009614496 72 168 c 3
 72 217.084509897 71 370 69 362 c 1
 69 366 68 367 64 367 c 3
 57.8139534883 367 31.3953488373 377.17647059 12 382 c 1
 10 452 l 1
 69.1013513513 462.168831169 146.898648648 510.974025974 199 535 c 1
 232 483 l 1
 198.760869565 421.726277372 197 312.003649635 197 240 c 3
 197 160.314979554 200.253968254 103 279 103 c 3
 293.763888889 103 316.847222223 86.976559683 331 86 c 1
 316 51 329 376.768019461 329 387 c 3
 329 400.166683465 323.391304348 401.636363636 291 404 c 1
 276 476 l 1
EndSplineSet
Substitution2: "smcp-1" uhorn.smcp
Substitution2: "case-1" Uhorn
Substitution2: "pcap-1" uhorn.pcap
EndChar
StartChar: uni01B2
Encoding: 434 434 1975
Width: 747
Flags: HW
HStem: -10 60<248.262 393.817> 621 96<519.465 586.19> 650 40<15 94.1699 204.225 289>
VStem: 99 87<115.238 533.533> 104 90<340.148 637.527> 650 56<328.038 551.573>
AnchorPoint: "Top" 405 699 basechar 0
AnchorPoint: "Bottom" 384 -15 basechar 0
LayerCount: 2
Fore
SplineSet
706 462 m 3xd4
 706 197 472 -10 288 -10 c 3
 161.560337972 -10 99 80.0090957253 99 208 c 3xd4
 99 241 104 578 104 594 c 0
 104 638 92 641 10 650 c 1
 15 690 l 1
 75 683 208 683 289 690 c 1
 293 654 l 1
 225 648 194 646 194 591 c 0xac
 194 583 186 262 186 227 c 3
 186 123.880830821 220.422871704 50 329 50 c 3
 438 50 650 196 650 443 c 3
 650 606 555 621 496 621 c 1
 494 625 491 629 491 639 c 3
 491 664 528 708 537 717 c 1
 640 717 706 591 706 462 c 3xd4
EndSplineSet
EndChar
StartChar: uni01BF
Encoding: 447 447 858
Width: 466
UnlinkRmOvrlpSave: 1
Flags: HW
HStem: -348 32<21.3438 68.6963> -342 34<164.751 242> 322 31<6 47.5218> 348 75<289.163 332.382>
VStem: 89 67<-201.151 263.697> 369 71<206.163 307.611>
AnchorPoint: "Top" 251 465 basechar 0
AnchorPoint: "Bottom" 286 -15 basechar 0
LayerCount: 2
Fore
SplineSet
162 -284 m 0x1c
 164 -299 182.976148957 -303.31100931 194 -304 c 0
 210 -305 229 -307 243 -308 c 1
 242 -342 l 1x5c
 203 -341 172 -339 130 -339 c 3
 100 -339 52 -344 22 -348 c 1
 19 -316 l 1
 30 -315 38.1817100136 -313.822162605 49 -311 c 0
 72 -305 77.3132247115 -293.942463001 80 -266 c 0
 85 -214 89 -122 89 31 c 3
 89 153 84.7139067635 272.944903477 81 293 c 0
 76 320 62 331 48 331 c 3
 38 331 15 322 6 322 c 1
 0 353 l 1xac
 37 360 94 385 136 424 c 1
 148 417.260869565 155 419.913043478 155 331 c 1
 157.859375 337.344827586 322.2734375 421.942528736 338 423 c 1
 376.945454545 423 440 346.127272727 440 272 c 3
 440 169.288917498 211.635087719 -29.5308641975 133 -72 c 1
 118.432617188 -51 l 1
 192.625923036 -13.4080638015 369 163.154235646 369 233 c 3
 369 297.296167411 325.411764706 348 291 348 c 3
 261.365853659 348 156 316.93994097 156 287 c 0
 156 216.48698455 156 151 156 64 c 3
 156 -27.9228366662 154.64577167 -228.843287522 162 -284 c 0x1c
EndSplineSet
Substitution2: "smcp-1" uni01BF.smcp
Substitution2: "pcap-1" uni01BF.pcap
EndChar
StartChar: uni01EA
Encoding: 490 490 918
Width: 818
UnlinkRmOvrlpSave: 1
Flags: HW
HStem: -346.889 73.7197<408.937 475.985> -16.2793 88.0098<375.893 521.36> 598.422 90.6641<292.212 444.211>
VStem: 48 185.133<268.197 450.24> 317.899 71.875<-253.641 -127.154> 597.133 172.917<213.637 413.835>
AnchorPoint: "Middle" 417.697 364.853 basechar 0
AnchorPoint: "Top" 420 699 basechar 0
LayerCount: 2
Fore
SplineSet
503.87109375 -1.998046875 m 1
 487.1328125 -8 458.1328125 -20 458.1328125 -50 c 3
 458.1328125 -74.484375 498.38671875 -89 516.1328125 -89 c 3
 519.69140625 -89 522.421875 -89.0439453125 534.212890625 -89.140625 c 1
 534.212890625 -89.140625 549.530273438 -118.549804688 553.240234375 -141.541015625 c 1
 523.102539062 -166.545898438 472.327148438 -177.541015625 426.01171875 -177.541015625 c 3
 369.143554688 -177.541015625 318.801757812 -150.543945312 318.801757812 -105.375976562 c 3
 318.801757812 -49.654296875 363.392578125 13.568359375 478.240234375 49.458984375 c 1
 503.87109375 -1.998046875 l 1
EndSplineSet
Refer: 2398 79 N 1 0 0 1 0 0 3
Position2: "cpsp-1" dx=0 dy=0 dh=50 dv=100
EndChar
StartChar: uni01EB
Encoding: 491 491 309
Width: 550
VWidth: 0
UnlinkRmOvrlpSave: 1
Flags: HW
HStem: -326 60.1279<272.366 350.024> -11 92<261.824 358.744> 422 98<185.532 283.601>
VStem: 20 144<205.971 346.529> 187.912 69.209<-252.6 -139.048> 381 149<152.322 307.098>
AnchorPoint: "Top" 275 537 basechar 0
LayerCount: 2
Fore
SplineSet
347.087890625 1.34375 m 1
 312 -12.6980926431 293 -28.443116065 293 -59 c 3
 293 -70.0315829689 308.35667253 -82.943359376 327.7890625 -82.943359376 c 3
 335.546463312 -82.943359376 344.870888689 -83.5221098022 354.4296875 -84.798828125 c 1
 354.4296875 -84.798828125 370.552195268 -116.453782761 374.45703125 -141.19921875 c 1
 352.61045649 -166.204020148 315.803232447 -177.19921875 282.228515625 -177.19921875 c 3
 234.367369628 -177.19921875 192 -141.210537427 192 -81 c 3
 192 -49 213 23 320.45703125 53.80078125 c 1
 347.087890625 1.34375 l 1
EndSplineSet
Refer: 14 111 N 1 0 0 1 0 0 3
Substitution2: "case-1" uni01EA
EndChar
StartChar: uni021D
Encoding: 541 541 1001
Width: 342
UnlinkRmOvrlpSave: 1
Flags: HW
HStem: -175 27.8545<34.3578 81.3487> 122.159 22.4922<69.7505 95.8853> 374 48<112.545 189.219>
VStem: 23 76<325.768 362.082> 225.762 73.6943<253.094 339.194> 242.687 76.3135<-3.19377 94.102>
LayerCount: 2
Fore
SplineSet
197.399414062 184.862304688 m 1xf4
 244.379882812 175.697265625 319 106.369140625 319 66.1875 c 3
 319 -47.423828125 134.208007812 -165.263671875 35.267578125 -175 c 1
 31.6474609375 -147.145507812 l 1
 123.5625 -139.0078125 242.686523438 -36.8544921875 242.686523438 50.283203125 c 3
 242.686523438 85.0244140625 182.979492188 140.384765625 131 152 c 1
 197.399414062 184.862304688 l 1xf4
62.7705078125 144.651367188 m 1
 146.012695312 167.703125 225.76171875 215.313476562 225.76171875 295.90625 c 3
 225.76171875 334.392578125 169 374 132 374 c 3
 110 374 99 367.434570312 99 348 c 3
 99 344.661132812 101.467773438 337.622070312 103 333 c 1
 29 304 l 1
 27.2666015625 307.299804688 23 316.0625 23 326 c 3
 23 376 160.86328125 422 188 422 c 3
 214 422 299.456054688 366.014648438 299.456054688 322.538085938 c 3xf8
 299.456054688 224.346679688 168.538085938 139.140625 72.904296875 122.159179688 c 1
 62.7705078125 144.651367188 l 1
EndSplineSet
EndChar
StartChar: uni0222
Encoding: 546 546 1758
Width: 618
VWidth: 1159
UnlinkRmOvrlpSave: 1
Flags: W
HStem: -7 44.3418<241.343 409.364> 638.404 35.5957<224.265 272.714> 708.332 36.3232<313 356.937>
VStem: 36 95.0576<155.782 298.227> 96.0576 91.3711<525.269 603.137> 424.314 85.6855<532.326 646.328> 483.942 98.0576<136.395 294.022>
LayerCount: 2
Fore
SplineSet
277.771484375 638.404296875 m 1xea
 235.119879898 638.404296875 187.428710938 603.439453125 187.428710938 574.482421875 c 3
 187.428710938 512.909125401 257.898317505 488.193975903 330.124023438 476 c 0
 466.392566375 452.993574415 582 350.3513408 582 236.216796875 c 3xea
 582 90.0195062727 463.311284637 -7 305.713867188 -7 c 3
 165.943405299 -7 36 69.6120896794 36 214.11328125 c 3
 36 327.845336025 147.808024001 415.172337543 252 442.397460938 c 1
 268.490529486 454.685289361 284.790280065 462.67979361 300.42578125 466 c 1
 376.986328125 471.92578125 424.314453125 527.274414062 424.314453125 579.088867188 c 3
 424.314453125 622.260742188 389.177734375 698.984375 305 708.33203125 c 1
 313 744.655273438 l 1
 405.9296875 741.612304688 510 700.469726562 510 599.005859375 c 3
 510 535.309293143 453.689357805 476.415440988 374 451.709960938 c 5
 356.446693614 438.538253115 337.759061186 429.38154818 318.2890625 425 c 1
 225.536897997 415.849316145 131.057617188 336.867624746 131.057617188 250.57421875 c 3xf4
 131.057617188 145.05332019 209.504529467 37.341796875 324.314453125 37.341796875 c 3
 467.452548649 37.341796875 483.942382812 158.228697372 483.942382812 210.11328125 c 3
 483.942382812 300.968382551 413.240062197 380.711171147 298.077148438 403.515625 c 0
 187.436945495 425.424495832 96.0576171875 476.221331764 96.0576171875 548.581054688 c 3
 96.0576171875 617.477539062 196.366418717 674 272.713867188 674 c 1
 277.771484375 638.404296875 l 1xea
EndSplineSet
Substitution2: "c2pc-1" uni0223.pcap
Substitution2: "c2sc-1" uni0223.smcp
EndChar
StartChar: uni0237
Encoding: 567 567 52
Width: 242
VWidth: 1159
Flags: HMW
AnchorPoint: "Top" 145 537 basechar 0
LayerCount: 2
Fore
SplineSet
-36 -175 m 1
 -33 -112.284552846 -23.6552666855 -77.2206115189 6 -42 c 0
 22.0588235294 -23.2285714286 36.9303140879 7.8257852198 45 31 c 0
 47.3713785499 37.8100340508 62 74.1627906977 62 147 c 3
 62 265.754721851 57 341.041445667 47 371 c 0
 43 375.347997979 32.9375 376 22 376 c 3
 19.2413793103 376 7.5172413793 377.666666667 2 378 c 1
 -2 451 l 1
 73.2631578947 459.723076923 112.947368421 471.353846154 180 514 c 1
 231 490 l 1
 227.352941176 473 211 446.90109516 205 428 c 0
 192.866666666 388 180 274.972243623 180 257 c 3
 180 183.743709827 192 92 192 57 c 3
 192 4 183.889406654 -35.5549256694 163 -57 c 0
 140.857142857 -89 103.055364261 -109.811005973 82 -128 c 0
 70 -138 57 -156 58 -175 c 1
 -36 -175 l 1
EndSplineSet
EndChar
StartChar: uni025B
Encoding: 603 603 1060
Width: 467
Flags: HW
LayerCount: 2
Back
SplineSet
308.240234376 321.16015625 m 5
 269.239186357 361.080078124 203.895674542 409 182 409 c 7
 176.692307692 409 209 418.2 209 432 c 7
 209 352.605890781 236.551724138 326.18265221 315 289 c 5
 315 256.586206896 312.5 224.172413793 310 195 c 5
 235.790195264 202.795593061 240 236.174649572 240 169 c 7
 240 132.882291666 268.051970109 101.279296875 304.51953125 101.279296875 c 7
 335.039370888 101.279296875 352.479235197 110.459960938 369.119140624 133.640625 c 5
 420.400390625 54.080078125 l 5
 382.533637153 27.7789884868 316.823682598 -12 250 -12 c 7
 121.391005479 -12 34.7197265625 54.9321240718 34.7197265625 141.639648438 c 7
 34.7197265625 172.414978567 70 222.316279967 128 241 c 5
 78.2001953125 267.441452206 58.2802734375 311.911167279 58.2802734375 343.16015625 c 7
 58.2802734375 441.400111607 158.720180377 515.080078125 269.080078125 515.080078125 c 7
 325.974975586 515.080078125 384.055183411 490.279932776 420.799804688 461.759765625 c 5
 402.008253785 369.06732446 411.563437824 370.568179268 308.240234376 321.16015625 c 5
EndSplineSet
Fore
SplineSet
344.440429688 327.16015625 m 5
 288.771941426 376.431686928 255.453076665 422 224.200195312 422 c 3
 216.533203125 422 211.200195312 413 211.200195312 402 c 3
 211.200195312 343 275.56640625 303.609375 302.200195312 295 c 1
 302.200195312 262.5859375 299.700195312 230.172851562 297.200195312 201 c 1
 268.700195312 203 240.200195312 192.086914062 240.200195312 169 c 3
 240.200195312 132.881835938 268.251953125 101.279296875 304.719726562 101.279296875 c 3
 337.698242188 101.279296875 374.952148438 120.459960938 399.319335938 133.640625 c 1
 450.600585938 54.080078125 l 1
 406.067382812 27.779296875 328.7890625 -12 250.200195312 -12 c 3
 121.590820312 -12 34.919921875 54.931640625 34.919921875 141.639648438 c 3
 34.919921875 172.415039062 70.2001953125 221.31640625 128.200195312 240 c 1
 78.400390625 266.44140625 58.48046875 311.911132812 58.48046875 343.16015625 c 3
 58.48046875 441.400390625 173.21484375 515.080078125 299.280273438 515.080078125 c 3
 356.174804688 515.080078125 414.255859375 490.280273438 451 461.759765625 c 1
 433.209716977 373.022972016 442.256015339 374.459895347 344.440429688 327.16015625 c 5
EndSplineSet
Substitution2: "case-1" uni0190
EndChar
StartChar: uni0272
Encoding: 626 626 1998
Width: 526
Flags: HW
HStem: 0 59<338.842 413.277> 216.5 41.8262<340.536 414.478>
VStem: 425.75 306.641<257.793 462.35>
AnchorPoint: "Top" 272 465 basechar 0
AnchorPoint: "Bottom" 269 -15 basechar 0
LayerCount: 2
Fore
SplineSet
162.345703125 55 m 7xdc
 162.345703125 -53.4386019445 158.423768932 -124.413476345 149.249023438 -172 c 4
 136.630814681 -237.446686212 111.308131815 -279.271062226 82.470703125 -323 c 5
 72.330078125 -322 73.189453125 -321 31.189453125 -321 c 7
 14.4353181635 -321 -10.6460207818 -325 -20.1083984375 -326 c 5
 -30.1669921875 -290 l 5
 20.0013471612 -275.843201216 49.0599002723 -238.660890175 65.3564453125 -187 c 4
 86.3563860243 -131.964818646 95.9582557934 -53.1177976917 98.2646484375 20 c 4
 99.0348228019 87.1082535059 97 167 97 199 c 7
 97 219 94.4716482638 287.976104104 86 308 c 4
 77 334 72 336 54 336 c 7
 44 336 41 335 32 335 c 5
 30 364 l 5xec
 67 371 104 375 154 416 c 5
 175 401 l 5
 170 387.056338028 167 366.915492958 167 346 c 5
 215 377 267 415 330 415 c 7
 403 415 448 375 448 304 c 7
 448 265.971428571 446 224.485714286 446 183 c 7
 446 126 446.737721518 70.967088615 449 54 c 4
 451 39 463.085896873 34.4253562504 474 32 c 4
 483 30 505 29 515 27 c 5
 510 -7 l 5
 471 2 450 4 408 4 c 7
 378 4 335 -1 309 -7 c 5
 305 26 l 5
 316 28 331.770914699 27.6973278528 343 31 c 4
 360 36 369.491767923 47.9341433822 373 76 c 4
 375 92 379 128 379 143 c 7
 379 192.5 376.161935969 266.771303188 374 287 c 4
 369 328.910447761 348 359 293 359 c 7
 245 359 203 345 170 324 c 5
 167.292573402 234.329113924 162.345703125 171.548690085 162.345703125 55 c 7xdc
EndSplineSet
EndChar
StartChar: gravecomb
Encoding: 768 768 94
Width: 0
VWidth: 1159
Flags: HW
HStem: 569.951 193.429
VStem: -346.611 230.611
AnchorPoint: "TopMark" -185 768 basemark 0
AnchorPoint: "TopMark" -180 537 mark 0
AnchorPoint: "Top" -174 537 mark 0
LayerCount: 2
Fore
SplineSet
-115.94140625 613.673828125 m 1
 -134.669921875 565.951171875 l 1
 -211.120099665 610.604365449 -287.779742822 633.843184199 -361.552734375 648.048828125 c 1
 -338.233601752 714.313000499 -300.341796875 763.428710938 -300.341796875 763.428710938 c 1
 -238.696264694 725.760982082 -157.20451405 657.896344205 -115.94140625 613.673828125 c 1
EndSplineSet
EndChar
StartChar: acutecomb
Encoding: 769 769 15
Width: 0
Flags: HW
AnchorPoint: "TopMark" -185 768 basemark 0
AnchorPoint: "TopMark" -180 537 mark 0
AnchorPoint: "Top" -174 537 mark 0
LayerCount: 2
Fore
SplineSet
-232.611328125 613.625 m 1
 -191.348220325 657.84751608 -109.856469681 725.712153957 -48.2109375 763.379882812 c 1
 -48.2109375 763.379882812 -10.3191326228 714.264172374 13 648 c 1
 -60.7729915532 633.794356074 -137.43263471 610.555537324 -213.8828125 565.90234375 c 1
 -232.611328125 613.625 l 1
EndSplineSet
EndChar
StartChar: uni0302
Encoding: 770 770 1083
Width: 0
Flags: HW
AnchorPoint: "Top" -174 537 mark 0
AnchorPoint: "TopMark" -180 537 mark 0
AnchorPoint: "TopMark" -185 768 basemark 0
LayerCount: 2
Fore
SplineSet
-42.2001953125 607.200195312 m 1
 -85 571 l 1
 -174.950195312 625.981445312 l 1
 -263.900390625 571 l 1
 -306.700195312 607.200195312 l 1
 -212.900390625 726.80078125 l 1
 -137 726.80078125 l 1
 -42.2001953125 607.200195312 l 1
EndSplineSet
EndChar
StartChar: tildecomb
Encoding: 771 771 100
Width: 0
VWidth: 1159
Flags: HW
LayerCount: 2
Fore
SplineSet
-317.416015625 601.708984375 m 1
 -287.229720224 669.38183245 -235.236547765 735.384765624 -255.201171876 735.384765624 c 3
 -221.46770137 735.384765624 -120.31429247 692.408203125 -115.815429688 692.408203125 c 3
 -112.215271394 692.408203125 -85.7889345929 715.729049682 -74.59375 744.178710938 c 1
 -23.3095703125 720.893554688 l 1
 -44.0320269814 657.087261146 -95.4556604973 583.81640625 -70.96484375 583.81640625 c 3
 -100.611473004 583.81640625 -214.839485788 627.74609375 -220.263671875 627.74609375 c 3
 -232.089762674 627.74609375 -249.489903949 592.39037142 -263 578 c 1
 -317.416015625 601.708984375 l 1
EndSplineSet
EndChar
StartChar: uni0306
Encoding: 774 774 105
Width: 0
Flags: HW
AnchorPoint: "TopMark" -179 768 basemark 0
AnchorPoint: "TopMark" -180 537 mark 0
AnchorPoint: "Top" -174 537 mark 0
LayerCount: 2
Fore
SplineSet
-327.15234375 685.375 m 1
 -279.072265625 717.135742188 l 1
 -264.143274579 688.221752755 -219.575301308 673.71875 -174.861328125 673.71875 c 3
 -130.240051195 673.71875 -85.4747733721 688.160831766 -69.8759765625 717.135742188 c 1
 -21.794921875 685.375 l 1
 -43.9987530778 612.458 -109.600301999 576 -175 576 c 3
 -240.467693038 576 -305.733900966 612.458 -327.15234375 685.375 c 1
EndSplineSet
EndChar
StartChar: hookabovecomb
Encoding: 777 777 748
Width: 0
VWidth: 1159
Flags: HW
LayerCount: 2
Fore
SplineSet
-221.5 778 m 1
 -211.650943396 781.524590164 -179.359496856 797 -144 797 c 3
 -94.147798562 797 -62.5 761.619 -62.5 735 c 3
 -62.5 719.612282324 -57.108400618 676.336759958 -69 681 c 1
 -72.789496264 688.999728888 -74.671857142 691.568047852 -82 690 c 1
 -171 691 l 1
 -171.355395834 693.946679834 -167 700.31763974 -167 706 c 3
 -167 722.989689198 -151 731.514636364 -151 749 c 3
 -151 728.618180328 -146.699117648 702 -137 702 c 3
 -138.94048 702 -159.03456 711.103235536 -171.5 719.59921875 c 1
 -178.22089947 719.59921875 -209.761111112 735.503955348 -221.5 778 c 1
EndSplineSet
EndChar
StartChar: uni030A
Encoding: 778 778 98
Width: 0
Flags: HW
AnchorPoint: "TopMark" -185 768 basemark 0
AnchorPoint: "TopMark" -180 537 mark 0
AnchorPoint: "Top" -174 537 mark 0
LayerCount: 2
Fore
SplineSet
-176 715.864257812 m 3
 -202.477503141 715.864257812 -226.993164062 694.712805154 -226.993164062 665.870117188 c 3
 -226.993164062 635.711216989 -203.457857572 615.606445312 -176 615.606445312 c 3
 -149.522496859 615.606445312 -125.006835938 636.757897971 -125.006835938 665.600585938 c 3
 -125.006835938 693.748428074 -148.542142428 715.864257812 -176 715.864257812 c 3
-176 767.470703125 m 3
 -121.497070312 767.470703125 -74.7802734375 722.479326021 -74.7802734375 665.220703125 c 3
 -74.7802734375 605.670297476 -123.443603516 562 -176 562 c 3
 -232.118314303 562 -280.219726562 603.3 -280.219726562 665.25 c 3
 -280.219726562 724.222158813 -230.114088792 767.470703125 -176 767.470703125 c 3
EndSplineSet
EndChar
StartChar: uni0313
Encoding: 787 787 1098
Width: 0
Flags: HW
AnchorPoint: "TopMark" -179 768 basemark 0
AnchorPoint: "TopMark" -180 537 mark 0
AnchorPoint: "Top" -174 537 mark 0
LayerCount: 2
Fore
SplineSet
-243 569 m 1
 -258 616 l 1
 -230.234821003 627.399219586 -203.970404919 642.054104428 -207 660 c 0
 -207.525714256 664.994285429 -208.674340211 667.685850527 -210 671 c 0
 -210.767648146 672.151472219 -212 674.600163088 -212 677 c 3
 -212 685.307040928 -209.624372817 690.521012957 -206 695 c 0
 -197.039815263 706.072964446 -180.028907666 712.956084248 -167 716 c 0
 -163.495573845 716.818731566 -158.627685547 718 -153 718 c 3
 -141.85311153 718 -128.65726889 713.145945406 -122 705 c 0
 -114.428587213 695.735492852 -109.719730071 688.588034494 -105 677 c 0
 -101.046395295 667.292981376 -99 653.898763021 -99 649 c 3
 -99 616.705645161 -155.147868518 575.553984684 -243 569 c 1
EndSplineSet
EndChar
StartChar: uni0315
Encoding: 789 789 1100
Width: 0
Flags: HW
AnchorPoint: "TopRight" -110.5 531 mark 0
LayerCount: 2
Fore
SplineSet
-59.75 657.245 m 1
 51.25 632.245117188 l 1
 39.169921875 627.189453124 3.2524474945 491.332133257 -77 442.494140625 c 1
 -118 464.494140625 l 1
 -79.029296875 521.860351562 -68.2984 587.855 -59.75 657.245 c 1
EndSplineSet
EndChar
StartChar: uni031B
Encoding: 795 795 99
Width: 0
VWidth: 1159
Flags: HW
LayerCount: 2
Fore
SplineSet
-132 491 m 3
 -132 517.881256797 -151.254113464 539.323851648 -183.19921875 574.041015624 c 1
 -150.400173648 619.803834507 -103.280635056 645.8125 -57.984375 645.8125 c 3
 13.9785270152 645.8125 55.5107421875 589.356176751 55.5107421875 539.022460938 c 3
 55.5107421875 468.252707867 -28.9346209115 418.220703125 -96.3525390625 418.220703125 c 3
 -116.861328125 418.220703125 -132.440429688 420.592605924 -145 425 c 1
 -153.30078125 434.180333272 -177.275390625 479.194414219 -181.120117188 496.864257812 c 1
 -157.236328125 483.794921875 -125.392578125 471.524414062 -101.459960938 471.524414062 c 3
 -114.548109325 471.524414062 -132 463.334585732 -132 491 c 3
EndSplineSet
EndChar
StartChar: uni0327
Encoding: 807 807 268
Width: 0
VWidth: 1159
UnlinkRmOvrlpSave: 1
Flags: HW
LayerCount: 2
Fore
SplineSet
-283 -172 m 1
 -278.965820312 -121.80859375 l 1
 -260.965975506 -118.489254484 -227.825195312 -137.382709688 -227.825195312 -103.997070312 c 3
 -227.825195312 -96.4359833886 -224.365619427 -88.5356727703 -221.4609375 -88.1259765625 c 1
 -252.948242188 -59.4599609375 l 1
 -250.535248801 -57.698392598 -248.042839695 -55.0454953272 -245.346679688 -52.0732421875 c 0
 -229.045341594 -34.1026086957 -221.092316902 -26.9686956522 -201 -2 c 1
 -141 6 l 1
 -141 6 -162.940331479 -43.0022333492 -165.897460938 -51.92578125 c 1
 -146.836850026 -61.6767578125 -133.397460938 -72.6572397468 -133.397460938 -103.42578125 c 3
 -133.397460938 -156.707176565 -216.974575919 -185.889577706 -283 -172 c 1
EndSplineSet
EndChar
StartChar: uni0328
Encoding: 808 808 254
Width: 0
Flags: HW
LayerCount: 2
Fore
SplineSet
-95.369140625 5.54296875 m 1
 -145.4496066 -26.4094004935 -153 -30.7803077873 -153 -39 c 3
 -153 -66.4621698034 -136.961872224 -82.744140624 -116.66796875 -82.744140624 c 3
 -115.60740592 -82.744140624 -114.334016431 -83.9464996928 -113.02734375 -86.599609375 c 1
 -113.02734375 -86.599609375 -92.0744530605 -117.131828613 -87 -141 c 1
 -107.42555479 -166.004842105 -141.838448051 -177 -173.228515625 -177 c 3
 -215.774898327 -177 -253.438476562 -148.506528262 -253.438476562 -100.834960938 c 3
 -253.438476562 -45.113824837 -216.398388483 20.1093277259 -121 56 c 1
 -95.369140625 5.54296875 l 1
EndSplineSet
EndChar
StartChar: uni032B
Encoding: 811 811 696
Width: 0
VWidth: 1159
Flags: HW
CounterMasks: 1 70
LayerCount: 2
Fore
SplineSet
-345 -10.350571875 m 1
 -261.742375 -6.5898875 l 1
 -259.934254818 -29.5103359884 -254.536572272 -41.006671875 -249.1211875 -41.006671875 c 1
 -243.578050298 -41.006671875 -238.01677155 -30.5560982446 -236.079203124 -9.5898875 c 1
 -153.742375 -9.5898875 l 1
 -151.934254818 -30.5123692228 -146.536821598 -41.006671875 -141.1211875 -41.006671875 c 1
 -135.577996936 -41.006671875 -130.016741306 -29.5581207704 -128.079103124 -6.5898875 c 1
 -44.821278125 -10.350571875 l 1
 -57.6295045584 -80.600407296 -95.4709871668 -115.726125 -133.196578124 -115.726125 c 1
 -156.517115008 -115.726125 -179.78505412 -107.785296876 -195.054375 -91.903640624 c 1
 -210.523923002 -107.785296876 -233.88561818 -115.726125 -257.196578124 -115.726125 c 1
 -294.976562842 -115.726125 -332.638822054 -80.600407296 -345 -10.350571875 c 1
EndSplineSet
EndChar
StartChar: uni0376
Encoding: 886 886 1130
Width: 720
Flags: HW
HStem: -2 38<14.4878 76.962 430.263 499> 651 40<217.719 292.649 642.265 705.45>
VStem: 100 78.5<132 587.523> 544.5 78.5<102.477 556>
LayerCount: 2
Fore
SplineSet
551 678 m 0
 556 687 564.975602213 690.840613645 571 690 c 0
 614 684 662 686 705 691 c 1
 708 651 l 1
 651 649 629.935552052 641.002113615 628 581 c 0
 623 426 620.958681955 271.016217308 623 122 c 0
 624 49 644 45 706 44 c 1
 703 1 l 1
 626 15 532 16 431 -2 c 1
 427 36 l 1
 508 47 528.902105269 60.155945877 535 128 c 0
 541.576923077 201.173635308 544.5 273.842624855 544.5 345.25 c 0
 544.5 417.02166065 543.227272727 487.525270758 541 556 c 1
 410.228021978 382.40445269 278.711786134 204.08121504 172 12 c 0
 167 3 158.02698462 -0.8218615391 152 0 c 0
 108 6 59 4 15 -1 c 1
 12 39 l 1
 71 41 93.0644479479 48.9978863851 95 109 c 0
 100 264 102.041318045 418.983782692 100 568 c 0
 99 641 79 645 17 646 c 1
 20 689 l 1
 97 675 191 674 292 692 c 1
 296 654 l 1
 215 643 194.097894731 629.844054123 188 562 c 0
 181.423076923 488.826364692 178.5 416.157375145 178.5 344.75 c 0
 178.5 272.29723225 179.772727273 201.124548736 182 132 c 1
 312.771978022 306.233766234 445.011440871 485.979178499 551 678 c 0
EndSplineSet
Position2: "cpsp-1" dx=0 dy=0 dh=50 dv=100
EndChar
StartChar: Gamma
Encoding: 915 915 978
Width: 630
VWidth: 1159
Flags: HW
LayerCount: 2
Fore
SplineSet
435 -14 m 1
 379.324201444 -8.90581612724 315.877460154 6.607421875 256.70703125 6.607421875 c 3
 243.15019628 6.607421875 136.97732892 -0.8046875 95.15625 -20.763671875 c 1
 86.705078125 59.212890625 l 1
 102.345703124 57.4609375 144.16015625 94.166015625 143.185546876 70.353515625 c 1
 143.775390624 123.314453124 143.123046876 295.015625 143.123046876 474.880859376 c 3
 143.123046876 582.134765624 141.740610184 627.77026042 141.43359375 588.861328124 c 0
 141.263671876 595.087890624 89.005859376 594.35546875 86.361328125 598.84375 c 1
 88.501953125 687.431640624 l 1
 164.001953124 684.060546876 284.8203125 682.279296876 391.35546875 682.279296876 c 3
 474.574792418 682.279296876 544.135394243 684.24609375 568.162109376 685.431640624 c 1
 585.330078124 661.810546876 591.369140624 667.458984376 591.369140624 653.671875 c 3
 591.369140624 626.419369342 562.462890624 589.787282032 559.98046875 470.28125 c 1
 497.48828125 465.626953124 l 1
 470.370866612 509.256704702 477.5026896 567.399144208 431.4921875 576.416015624 c 0
 414.787463664 596.293265048 396.468889041 604.430738833 389.580512854 604.430738833 c 1
 369.638366855 604.430738833 351.712363826 603.335742889 338.013671876 600.60546875 c 0
 324.6953125 599.482421876 315.751699576 603.906614312 315.5703125 588.021484376 c 0
 314.240138868 535.196977746 306.55078125 527.40927032 306.55078125 371.75390625 c 3
 306.55078125 272.527109916 304.28976726 184.834097566 308.291015624 116.751953125 c 0
 309.169921876 102.769121146 322.232416274 101.695056404 320.15234375 101.477338783 c 0
 384.091294284 92.4772218399 429.904603598 83.1136731656 445.66796875 82.00390625 c 1
 437.737669796 15.9251200396 441.557757412 47.9686428702 435 -14 c 1
EndSplineSet
Position2: "cpsp-1" dx=0 dy=0 dh=50 dv=100
Substitution2: "c2pc-1" gamma.pcap
Substitution2: "c2sc-1" gamma.smcp
EndChar
StartChar: Delta
Encoding: 916 916 979
AltUni2: 002206.ffffffff.0
Width: 785
VWidth: 1159
Flags: HW
LayerCount: 2
Fore
SplineSet
307.5 74.2998046875 m 1
 461.740329649 74.5992838542 528.453088831 74.2998046875 520.5 82.2998046875 c 1
 473.397825369 163.719820116 404.77578451 360.896160179 372 420 c 1
 374.467296006 439.75349929 234.314169638 167.2897149 210.5 99.2998046875 c 1
 208.087111173 91.1179865057 226.721769593 75.2169744318 303.5 75.2998046875 c 1
 307.5 74.2998046875 l 1
45 -5 m 1
 44.2 62.659754136 77.2742660687 62.9104555521 99 102 c 0
 204.897137697 292.533074004 297.862237404 458.282856615 358 617 c 0
 372.474967446 655.202709653 370 656 374 689 c 1
 441 689 l 1
 447.071428571 662 443.642017067 658.837541281 458 619 c 0
 534.618913526 406.413793103 610.362394126 288.667890958 709 71 c 0
 724.176757812 37.5087890625 743.5 66.681640625 748 -4 c 1
 712.643535605 0.250784817377 554.316211887 2.2705078125 390.493164062 2.2705078125 c 0
 234.678847334 2.2705078125 73.0239913497 -0.250951634898 45 -5 c 1
EndSplineSet
Position2: "cpsp-1" dx=0 dy=0 dh=50 dv=100
Substitution2: "c2pc-1" delta.pcap
Substitution2: "c2sc-1" delta.smcp
EndChar
StartChar: Theta
Encoding: 920 920 983
Width: 819
Flags: HW
AnchorPoint: "Top" 426 699 basechar 0
AnchorPoint: "Bottom" 422 -15 basechar 0
LayerCount: 2
Fore
SplineSet
545.5 437.5 m 1
 543.443359375 386.929837022 543.918945312 300.429369767 550.5 246.5 c 1
 474.5 244.5 l 1
 468.961768617 282.345811632 464.960373792 281.705538315 450.5 285.5 c 0
 447.453600725 286.248025863 424.090384491 290.5 407.5 290.5 c 3
 390.457835478 290.5 366.851834312 288.856870194 363.5 287.5 c 0
 354.117946648 280.171455359 352.562932632 267.585714286 352.5 246.5 c 1
 272.5 247.5 l 1
 278.977539062 313.789827167 279.790039062 375.001059479 272.5 441.5 c 1
 351.5 443.5 l 1
 351.859541642 424.965499649 355.332779569 407.6675542 362.5 402.5 c 0
 366.331779117 400.96829543 393.449387168 396.5 407.5 397.5 c 3
 434.249291514 397.5 454.182747538 398.324757656 456.5 398.5 c 0
 461.790893515 399.813570865 468.318181818 399.694029851 469.5 438.5 c 1
 545.5 437.5 l 1
EndSplineSet
Refer: 990 927 N 1 0 0 1 0 0 2
Position2: "cpsp-1" dx=0 dy=0 dh=50 dv=100
Substitution2: "c2pc-1" theta.pcap
Substitution2: "c2sc-1" theta.smcp
EndChar
